arefruqaa-regular.sfdir
StartChar: quotedbl
Encoding: 34 34 2
Width: 971
GlyphClass: 2
Flags: W
LayerCount: 2
Fore
SplineSet
165 945 m 1,0,-1
 112 1218 l 1,1,-1
 112 1466 l 1,2,-1
 418 1466 l 1,3,-1
 418 1218 l 1,4,-1
 372 945 l 1,5,-1
 165 945 l 1,0,-1
616 945 m 1,6,-1
 563 1218 l 1,7,-1
 563 1466 l 1,8,-1
 869 1466 l 1,9,-1
 869 1218 l 1,10,-1
 823 945 l 1,11,-1
 616 945 l 1,6,-1
EndSplineSet
EndChar
StartChar: numbersign
Encoding: 35 35 6
Width: 1139
GlyphClass: 2
Flags: W
LayerCount: 2
Fore
SplineSet
154 365 m 1,0,-1
 18 365 l 1,1,-1
 18 585 l 1,2,-1
 198 585 l 1,3,-1
 258 880 l 1,4,-1
 18 880 l 1,5,-1
 18 1101 l 1,6,-1
 303 1101 l 1,7,-1
 382 1491 l 1,8,-1
 606 1491 l 1,9,-1
 527 1101 l 1,10,-1
 748 1101 l 1,11,-1
 825 1491 l 1,12,-1
 1057 1491 l 1,13,-1
 977 1101 l 1,14,-1
 1115 1101 l 1,15,-1
 1115 880 l 1,16,-1
 932 880 l 1,17,-1
 872 585 l 1,18,-1
 1115 585 l 1,19,-1
 1115 365 l 1,20,-1
 827 365 l 1,21,-1
 748 -25 l 1,22,-1
 525 -25 l 1,23,-1
 602 365 l 1,24,-1
 380 365 l 1,25,-1
 301 -25 l 1,26,-1
 75 -25 l 1,27,-1
 154 365 l 1,0,-1
483 880 m 1,28,-1
 424 585 l 1,29,-1
 646 585 l 1,30,-1
 704 880 l 1,31,-1
 483 880 l 1,28,-1
EndSplineSet
EndChar
StartChar: parenright
Encoding: 41 41 9
Width: 682
GlyphClass: 2
Flags: W
LayerCount: 2
Fore
SplineSet
69 -431 m 1,0,1
 152 -253 152 -253 186 -158 c 128,-1,2
 220 -63 220 -63 249 61 c 128,-1,3
 278 185 278 185 292 296.5 c 128,-1,4
 306 408 306 408 306 525 c 0,5,6
 306 763 306 763 255 975.5 c 128,-1,7
 204 1188 204 1188 67 1491 c 1,8,-1
 258 1491 l 1,9,10
 409 1276 409 1276 492.5 1035 c 128,-1,11
 576 794 576 794 576 546 c 0,12,13
 576 337 576 337 510 98 c 0,14,15
 435 -170 435 -170 263 -431 c 1,16,-1
 69 -431 l 1,0,1
EndSplineSet
EndChar
StartChar: colon
Encoding: 58 58 9
Width: 682
GlyphClass: 2
Flags: W
LayerCount: 2
Fore
SplineSet
201 781 m 1,0,-1
 201 1062 l 1,1,-1
 482 1062 l 1,2,-1
 482 781 l 1,3,-1
 201 781 l 1,0,-1
201 0 m 1,4,-1
 201 281 l 1,5,-1
 482 281 l 1,6,-1
 482 0 l 1,7,-1
 201 0 l 1,4,-1
EndSplineSet
EndChar
StartChar: semicolon
Encoding: 59 59 13
Width: 682
GlyphClass: 2
Flags: W
LayerCount: 2
Fore
SplineSet
193 781 m 1,0,-1
 193 1062 l 1,1,-1
 474 1062 l 1,2,-1
 474 781 l 1,3,-1
 193 781 l 1,0,-1
193 281 m 1,4,-1
 474 281 l 1,5,-1
 474 80 l 2,6,7
 474 -42 474 -42 453 -112.5 c 128,-1,8
 432 -183 432 -183 373.5 -239 c 128,-1,9
 315 -295 315 -295 225 -327 c 1,10,-1
 170 -211 l 1,11,12
 255 -183 255 -183 291 -133 c 128,-1,13
 327 -83 327 -83 329 0 c 1,14,-1
 193 0 l 1,15,-1
 193 281 l 1,4,-1
EndSplineSet
EndChar
StartChar: less
Encoding: 60 60 11
Width: 1196
GlyphClass: 2
Flags: W
LayerCount: 2
Fore
SplineSet
1100 167 m 1,0,-1
 95 604 l 1,1,-1
 95 846 l 1,2,-1
 1100 1281 l 1,3,-1
 1100 996 l 1,4,-1
 399 728 l 1,5,-1
 1100 450 l 1,6,-1
 1100 167 l 1,0,-1
EndSplineSet
EndChar
StartChar: equal
Encoding: 61 61 12
Width: 1196
GlyphClass: 2
Flags: W
LayerCount: 2
Fore
SplineSet
85 816 m 1,0,-1
 85 1074 l 1,1,-1
 1110 1074 l 1,2,-1
 1110 816 l 1,3,-1
 85 816 l 1,0,-1
85 372 m 1,4,-1
 85 631 l 1,5,-1
 1110 631 l 1,6,-1
 1110 372 l 1,7,-1
 85 372 l 1,4,-1
EndSplineSet
EndChar
StartChar: greater
Encoding: 62 62 13
Width: 1196
GlyphClass: 2
Flags: W
LayerCount: 2
Fore
SplineSet
95 166 m 1,0,-1
 95 449 l 1,1,-1
 797 725 l 1,2,-1
 95 998 l 1,3,-1
 95 1279 l 1,4,-1
 1101 844 l 1,5,-1
 1101 604 l 1,6,-1
 95 166 l 1,0,-1
EndSplineSet
EndChar
StartChar: question
Encoding: 63 63 17
Width: 1251
GlyphClass: 2
Flags: W
LayerCount: 2
Fore
SplineSet
751 378 m 1,0,-1
 496 378 l 1,1,2
 495 433 495 433 495 445 c 0,3,4
 495 569 495 569 536 649 c 128,-1,5
 577 729 577 729 700 829 c 128,-1,6
 823 929 823 929 847 960 c 0,7,8
 884 1009 884 1009 884 1068 c 0,9,10
 884 1150 884 1150 818.5 1208.5 c 128,-1,11
 753 1267 753 1267 642 1267 c 0,12,13
 535 1267 535 1267 463 1206 c 128,-1,14
 391 1145 391 1145 364 1020 c 1,15,-1
 106 1052 l 1,16,17
 117 1231 117 1231 258.5 1356 c 128,-1,18
 400 1481 400 1481 630 1481 c 0,19,20
 872 1481 872 1481 1015 1354.5 c 128,-1,21
 1158 1228 1158 1228 1158 1060 c 0,22,23
 1158 967 1158 967 1105.5 884 c 128,-1,24
 1053 801 1053 801 881 658 c 0,25,26
 792 584 792 584 770.5 539 c 128,-1,27
 749 494 749 494 751 378 c 1,0,-1
496 0 m 1,28,-1
 496 281 l 1,29,-1
 777 281 l 1,30,-1
 777 0 l 1,31,-1
 496 0 l 1,28,-1
EndSplineSet
EndChar
StartChar: bar
Encoding: 124 124 16
Width: 573
GlyphClass: 2
Flags: W
LayerCount: 2
Fore
SplineSet
176 -431 m 1,0,-1
 176 1491 l 1,1,-1
 399 1491 l 1,2,-1
 399 -431 l 1,3,-1
 176 -431 l 1,0,-1
EndSplineSet
EndChar
StartChar: braceright
Encoding: 125 125 20
Width: 797
GlyphClass: 2
Flags: W
LayerCount: 2
Fore
SplineSet
729 410 m 1,0,1
 656 406 656 406 619 388 c 128,-1,2
 582 370 582 370 555.5 327.5 c 128,-1,3
 529 285 529 285 518 221 c 0,4,5
 510 173 510 173 510 55 c 0,6,7
 510 -139 510 -139 492.5 -216 c 128,-1,8
 475 -293 475 -293 428 -339.5 c 128,-1,9
 381 -386 381 -386 290 -413 c 0,10,11
 229 -431 229 -431 98 -431 c 2,12,-1
 45 -431 l 1,13,-1
 45 -191 l 1,14,15
 152 -191 152 -191 185 -177.5 c 128,-1,16
 218 -164 218 -164 233.5 -138.5 c 128,-1,17
 249 -113 249 -113 249.5 -52 c 128,-1,18
 250 9 250 9 258 181 c 0,19,20
 263 285 263 285 285 347.5 c 128,-1,21
 307 410 307 410 343.5 453.5 c 128,-1,22
 380 497 380 497 437 530 c 1,23,24
 363 578 363 578 329 624 c 1,25,26
 282 690 282 690 265 792 c 0,27,28
 254 862 254 862 249 1100 c 0,29,30
 248 1175 248 1175 235.5 1200 c 128,-1,31
 223 1225 223 1225 190.5 1238.5 c 128,-1,32
 158 1252 158 1252 45 1252 c 1,33,-1
 45 1491 l 1,34,-1
 98 1491 l 2,35,36
 233 1491 233 1491 305 1470 c 128,-1,37
 377 1449 377 1449 426 1398.5 c 128,-1,38
 475 1348 475 1348 492.5 1274.5 c 128,-1,39
 510 1201 510 1201 510 1043 c 0,40,41
 510 860 510 860 525 804 c 0,42,43
 547 724 547 724 592 689.5 c 128,-1,44
 637 655 637 655 729 650 c 1,45,-1
 729 410 l 1,0,1
EndSplineSet
EndChar
StartChar: afii57388
Encoding: 1548 1548 27
Width: 376
GlyphClass: 2
Flags: W
LayerCount: 2
Fore
SplineSet
201 2 m 1,1,2
 118 -14 118 -14 59 105.5 c 128,-1,3
 0 225 0 225 190 792 c 1,4,-1
 191 796 l 1,5,-1
 254 859 l 1,6,7
 249 827 249 827 197 631 c 128,-1,8
 145 435 145 435 178.5 309.5 c 128,-1,9
 212 184 212 184 345 307 c 1,10,11
 365 315 365 315 371 309 c 0,12,13
 376 304 376 304 375 293 c 0,14,0
 362 13 362 13 201 2 c 1,1,2
EndSplineSet
EndChar
StartChar: uni060C
Encoding: 1548 1548 11
Width: 570
GlyphClass: 2
Flags: W
LayerCount: 2
Fore
SplineSet
275.979492188 2 m 1,1,2
 192.979492188 -14 192.979492188 -14 133.979492188 105.5 c 128,-1,3
 74.9794921875 225 74.9794921875 225 264.979492188 792 c 1,4,-1
 265.979492188 796 l 1,5,-1
 328.979492188 859 l 1,6,7
 323.979492188 827 323.979492188 827 271.979492188 631 c 128,-1,8
 219.979492188 435 219.979492188 435 253.479492188 309.5 c 128,-1,9
 286.979492188 184 286.979492188 184 419.979492188 307 c 1,10,11
 439.979492188 315 439.979492188 315 445.979492188 309 c 0,12,13
 450.979492188 304 450.979492188 304 449.979492188 293 c 0,14,0
 436.979492188 13 436.979492188 13 275.979492188 2 c 1,1,2
EndSplineSet
EndChar
StartChar: afii57403
Encoding: 1563 1563 12
Width: 404
GlyphClass: 2
Flags: W
LayerCount: 2
Fore
SplineSet
201 471 m 1,1,2
 118 455 118 455 59 574.5 c 128,-1,3
 0 694 0 694 190 1261 c 1,4,-1
 191 1265 l 1,5,-1
 254 1328 l 1,6,7
 249 1296 249 1296 197 1100 c 128,-1,8
 145 904 145 904 178.5 778.5 c 128,-1,9
 212 653 212 653 345 776 c 1,10,11
 365 784 365 784 371 778 c 0,12,13
 376 773 376 773 375 762 c 0,14,0
 362 482 362 482 201 471 c 1,1,2
41 174 m 2,15,-1
 222 362 l 2,16,17
 228 369 228 369 235 369 c 0,18,19
 241 369 241 369 248 363 c 2,20,-1
 397 219 l 2,21,22
 404 212 404 212 404 206 c 256,23,24
 404 200 404 200 398 194 c 2,25,-1
 216 6 l 2,26,27
 210 0 210 0 203 0 c 0,28,29
 197 0 197 0 190 5 c 1,30,-1
 42 149 l 2,31,32
 35 155 35 155 35 162 c 0,33,34
 35 168 35 168 41 174 c 2,15,-1
EndSplineSet
EndChar
StartChar: uni061B
Encoding: 1563 1563 12
Width: 570
GlyphClass: 2
Flags: W
LayerCount: 2
Fore
SplineSet
116 174 m 2
 297 362 l 2
 303 369 303 369 310 369 c 0
 316 369 316 369 323 363 c 2
 472 219 l 2
 479 212 479 212 479 206 c 256
 479 200 479 200 473 194 c 2
 291 6 l 2
 285 0 285 0 278 0 c 0
 272 0 272 0 265 5 c 1
 117 149 l 2
 110 155 110 155 110 162 c 0
 110 168 110 168 116 174 c 2
EndSplineSet
Refer: 11 1548 N 1 0 0 1 0 469 3
EndChar
StartChar: afii57407
Encoding: 1567 1567 29
Width: 707
GlyphClass: 2
Flags: W
LayerCount: 2
Fore
SplineSet
657 1548 m 1,0,1
 639 1482 639 1482 617.5 1417 c 128,-1,2
 596 1352 596 1352 569 1290 c 0,3,4
 563 1277 563 1277 543 1269 c 0,5,6
 537 1266 537 1266 533 1266 c 0,7,8
 523 1266 523 1266 522 1281 c 0,9,10
 510 1425 510 1425 354 1432 c 1,11,-1
 341 1432 l 2,12,13
 250 1432 250 1432 183 1381 c 1,14,15
 198 1304 198 1304 245 1253 c 128,-1,16
 292 1202 292 1202 339 1155 c 0,17,18
 410 1082 410 1082 469 995 c 128,-1,19
 528 908 528 908 541 779 c 1,20,21
 536 658 536 658 495.5 570.5 c 128,-1,22
 455 483 455 483 413 400 c 0,23,24
 409 394 409 394 399 393 c 0,25,26
 397 392 397 392 396 392 c 0,27,28
 391 392 391 392 391 397 c 0,29,30
 391 400 391 400 392 403 c 0,31,32
 414 475 414 475 414 541 c 0,33,34
 414 618 414 618 385 686 c 0,35,36
 330 812 330 812 249 887 c 0,37,38
 197 934 197 934 152.5 989.5 c 128,-1,39
 108 1045 108 1045 80 1115 c 1,40,41
 73 1152 73 1152 73 1191 c 0,42,43
 73 1327 73 1327 155 1491 c 1,44,45
 252 1689 252 1689 449 1689 c 0,46,47
 462 1689 462 1689 475 1688 c 0,48,49
 536 1684 536 1684 575.5 1650.5 c 128,-1,50
 615 1617 615 1617 641 1575 c 0,51,52
 644 1569 644 1569 645.5 1562 c 128,-1,53
 647 1555 647 1555 657 1548 c 1,0,1
218 174 m 2,54,-1
 399 362 l 2,55,56
 405 369 405 369 412 369 c 0,57,58
 418 369 418 369 425 363 c 2,59,-1
 574 219 l 2,60,61
 581 212 581 212 581 206 c 256,62,63
 581 200 581 200 575 194 c 2,64,-1
 393 6 l 2,65,66
 387 0 387 0 380 0 c 0,67,68
 374 0 374 0 367 5 c 1,69,-1
 219 149 l 2,70,71
 212 155 212 155 212 162 c 0,72,73
 212 168 212 168 218 174 c 2,54,-1
EndSplineSet
EndChar
StartChar: afii57410
Encoding: 1570 1570 34
Width: 226
GlyphClass: 2
Flags: W
LayerCount: 2
Fore
SplineSet
7 870 m 1,0,-1
 158 1110 l 1,1,-1
 216 240 l 1,2,-1
 65 0 l 1,3,-1
 7 870 l 1,0,-1
497 1401 m 1,4,-1
 407 1286 l 1,5,6
 332 1237 332 1237 207 1212 c 0,7,8
 168 1204 168 1204 131 1204 c 0,9,10
 47 1204 47 1204 -29 1244 c 0,11,12
 -38 1249 -38 1249 -47 1249 c 256,13,14
 -56 1249 -56 1249 -64 1243 c 0,15,16
 -81 1232 -81 1232 -95 1224 c 0,17,18
 -125 1207 -125 1207 -175 1154 c 0,19,20
 -192 1136 -192 1136 -196 1136 c 0,21,22
 -198 1136 -198 1136 -198 1138 c 0,23,24
 -198 1148 -198 1148 -165 1206 c 0,25,26
 -112 1300 -112 1300 -4 1355 c 0,27,28
 -1 1357 -1 1357 4 1357 c 0,29,30
 15 1357 15 1357 33 1349 c 0,31,32
 114 1308 114 1308 202 1308 c 0,33,34
 242 1308 242 1308 284 1316 c 0,35,36
 418 1343 418 1343 489 1406 c 0,37,38
 492 1409 492 1409 494 1409 c 0,39,40
 497 1409 497 1409 497 1401 c 1,4,-1
EndSplineSet
MultipleSubs2: "'fina' Terminal Forms in Arabic lookup 2 subtable" _.notdef_3 uni0653
MultipleSubs2: "'isol' Isolated Forms in Arabic lookup 0 subtable" _.notdef_2 uni0653
EndChar
StartChar: afii57411
Encoding: 1571 1571 35
AltUni2: 00fe83.ffffffff.0
Width: 226
GlyphClass: 2
Flags: W
LayerCount: 2
Fore
SplineSet
7 870 m 1,0,-1
 158 1110 l 1,1,-1
 216 240 l 1,2,-1
 65 0 l 1,3,-1
 7 870 l 1,0,-1
195 1415 m 2,4,5
 184 1392 184 1392 158 1381 c 128,-1,6
 132 1370 132 1370 113 1345 c 1,7,8
 128 1327 128 1327 153.5 1320 c 128,-1,9
 179 1313 179 1313 199 1301 c 1,10,11
 221 1286 221 1286 221 1262 c 0,12,13
 221 1249 221 1249 214 1233 c 0,14,15
 195 1187 195 1187 149 1155 c 1,16,17
 110 1126 110 1126 66.5 1119 c 128,-1,18
 23 1112 23 1112 -22 1105 c 1,19,20
 17 1122 17 1122 57.5 1139.5 c 128,-1,21
 98 1157 98 1157 134 1177 c 1,22,23
 146 1185 146 1185 146 1191 c 0,24,25
 146 1194 146 1194 143 1196 c 0,26,27
 129 1204 129 1204 110.5 1211.5 c 128,-1,28
 92 1219 92 1219 78 1228 c 1,29,30
 47 1244 47 1244 47 1273 c 0,31,32
 47 1305 47 1305 84 1352 c 0,33,34
 153 1442 153 1442 186 1467 c 0,35,36
 200 1478 200 1478 230 1491 c 1,37,-1
 195 1415 l 2,4,5
EndSplineSet
MultipleSubs2: "'fina' Terminal Forms in Arabic lookup 2 subtable" _.notdef_3 uni0654
MultipleSubs2: "'isol' Isolated Forms in Arabic lookup 0 subtable" _.notdef_2 uni0654
EndChar
StartChar: afii57415
Encoding: 1575 1575 39
Width: 226
GlyphClass: 2
Flags: W
LayerCount: 2
Fore
SplineSet
7 870 m 1,0,-1
 158 1110 l 1,1,-1
 216 240 l 1,2,-1
 65 0 l 1,3,-1
 7 870 l 1,0,-1
EndSplineSet
MultipleSubs2: "'fina' Terminal Forms in Arabic lookup 2 subtable" _.notdef_3
MultipleSubs2: "'isol' Isolated Forms in Arabic lookup 0 subtable" _.notdef_2
EndChar
StartChar: afii57419
Encoding: 1579 1579 43
AltUni2: 00fe99.ffffffff.0
Width: 1439
GlyphClass: 2
Flags: W
LayerCount: 2
Fore
SplineSet
1279 440 m 0,0,1
 1214 304 1214 304 1031 191.5 c 128,-1,2
 848 79 848 79 643 31 c 0,3,4
 522 2 522 2 411 2 c 0,5,6
 332 2 332 2 257 17 c 0,7,8
 77 51 77 51 18 211 c 0,9,10
 -2 265 -2 265 -2 324 c 0,11,12
 -2 407 -2 407 39 500 c 0,13,14
 109 656 109 656 184 774 c 1,15,16
 197 792 197 792 211 792 c 0,17,18
 216 792 216 792 221 790 c 0,19,20
 232 785 232 785 232 772 c 0,21,22
 232 763 232 763 226 749 c 1,23,24
 142 592 142 592 142 491 c 0,25,26
 142 472 142 472 145 456 c 0,27,28
 163 348 163 348 255 300 c 1,29,30
 342 253 342 253 474 253 c 0,31,32
 481 253 481 253 488 254 c 0,33,34
 629 256 629 256 776 292 c 0,35,36
 922 327 922 327 1051 390 c 2,37,-1
 1179 453 l 1,38,-1
 1179 457 l 2,39,40
 1179 495 1179 495 1159 566 c 1,41,42
 1137 639 1137 639 1116 701 c 1,43,-1
 1273 933 l 1,44,-1
 1322 783 l 2,45,46
 1339 730 1339 730 1339 673 c 0,47,48
 1339 565 1339 565 1279 440 c 0,0,1
989 1141 m 1,49,50
 959 1078 959 1078 919.5 1019.5 c 128,-1,51
 880 961 880 961 839 908 c 0,52,53
 832 899 832 899 825 899 c 0,54,55
 816 899 816 899 808 919 c 0,56,57
 765 1025 765 1025 713 1025 c 2,58,-1
 707 1025 l 1,59,60
 651 1018 651 1018 598.5 958.5 c 128,-1,61
 546 899 546 899 503.5 822 c 128,-1,62
 461 745 461 745 442 719 c 1,63,-1
 441 808 l 1,64,-1
 443 811 l 1,65,66
 469 862 469 862 521.5 952 c 128,-1,67
 574 1042 574 1042 638 1127 c 0,68,69
 701 1211 701 1211 771 1260 c 1,70,71
 800 1279 800 1279 829 1279 c 0,72,73
 872 1279 872 1279 917 1238 c 1,74,75
 957 1199 957 1199 989 1141 c 1,49,50
EndSplineSet
MultipleSubs2: "'medi' Medial Forms in Arabic lookup 3 subtable" _.notdef_7 salasneqat_A
MultipleSubs2: "'fina' Terminal Forms in Arabic lookup 2 subtable" _.notdef_5 salasneqat_A
MultipleSubs2: "'init' Initial Forms in Arabic lookup 1 subtable" _.notdef_6 salasneqat_A
MultipleSubs2: "'isol' Isolated Forms in Arabic lookup 0 subtable" _.notdef_4 salasneqat_A
EndChar
StartChar: afii57430
Encoding: 1590 1590 54
Width: 1806
GlyphClass: 2
Flags: W
LayerCount: 2
Fore
SplineSet
716 258 m 1,0,1
 603 96 603 96 432 33 c 0,2,3
 343 1 343 1 268 1 c 0,4,5
 198 1 198 1 139 30 c 0,6,7
 17 89 17 89 0 285 c 0,8,9
 -1 301 -1 301 -1 317 c 0,10,11
 -1 509 -1 509 179 838 c 0,12,13
 189 857 189 857 198 857 c 0,14,15
 201 857 201 857 204 856 c 0,16,17
 210 853 210 853 210 843 c 0,18,19
 210 832 210 832 203 814 c 1,20,21
 179 761 179 761 141.5 688 c 128,-1,22
 104 615 104 615 85 542 c 0,23,24
 75 501 75 501 75 463 c 0,25,26
 75 433 75 433 82 404 c 0,27,28
 97 340 97 340 179 305 c 1,29,30
 245 293 245 293 306 293 c 0,31,32
 413 293 413 293 508 330 c 0,33,34
 656 387 656 387 754 477 c 1,35,-1
 754 495 l 2,36,37
 754 570 754 570 740 634 c 1,38,39
 723 706 723 706 702 775 c 1,40,-1
 814 1031 l 1,41,42
 865 918 865 918 886 870 c 0,43,44
 900 836 900 836 948 836 c 0,45,46
 969 836 969 836 996 842 c 1,47,-1
 996 843 l 1,48,-1
 998 845 l 1,49,50
 1085 946 1085 946 1176 1043.5 c 128,-1,51
 1267 1141 1267 1141 1365 1232 c 0,52,53
 1413 1277 1413 1277 1509 1295 c 0,54,55
 1531 1299 1531 1299 1550 1299 c 0,56,57
 1617 1299 1617 1299 1657 1252 c 1,58,59
 1694 1206 1694 1206 1694 1158 c 0,60,61
 1694 1124 1694 1124 1676 1090 c 0,62,63
 1632 1005 1632 1005 1581 936 c 0,64,65
 1500 826 1500 826 1371.5 750.5 c 128,-1,66
 1243 675 1243 675 1110 642 c 1,67,68
 980 608 980 608 861 591 c 1,69,70
 823 414 823 414 716 258 c 1,0,1
1478 1021 m 0,71,72
 1459 1055 1459 1055 1409 1070 c 0,73,74
 1389 1076 1389 1076 1371 1076 c 0,75,76
 1341 1076 1341 1076 1315 1061 c 0,77,78
 1243 1022 1243 1022 1187 966 c 128,-1,79
 1131 910 1131 910 1075 854 c 1,80,81
 1183 875 1183 875 1285 900 c 128,-1,82
 1387 925 1387 925 1475 967 c 0,83,84
 1489 974 1489 974 1489 989 c 0,85,86
 1489 1002 1489 1002 1478 1021 c 0,71,72
1528 1635 m 1,87,88
 1486 1581 1486 1581 1444 1529 c 128,-1,89
 1402 1477 1402 1477 1360 1425 c 1,90,-1
 1216 1560 l 1,91,92
 1257 1613 1257 1613 1299.5 1665 c 128,-1,93
 1342 1717 1342 1717 1384 1770 c 1,94,-1
 1528 1635 l 1,87,88
EndSplineSet
MultipleSubs2: "'medi' Medial Forms in Arabic lookup 3 subtable" _.notdef_23 noqta_A
MultipleSubs2: "'fina' Terminal Forms in Arabic lookup 2 subtable" _.notdef_21 noqta_A
MultipleSubs2: "'init' Initial Forms in Arabic lookup 1 subtable" _.notdef_22 noqta_A
MultipleSubs2: "'isol' Isolated Forms in Arabic lookup 0 subtable" _.notdef_20 noqta_A
EndChar
StartChar: afii57432
Encoding: 1592 1592 56
AltUni2: 00fec5.ffffffff.0
Width: 1395
GlyphClass: 2
Flags: W
LayerCount: 2
Fore
SplineSet
1087 433 m 1,0,1
 1068 466 1068 466 1017 481 c 0,2,3
 997 487 997 487 978 487 c 0,4,5
 949 487 949 487 924 473 c 0,6,7
 852 434 852 434 796 378 c 128,-1,8
 740 322 740 322 684 265 c 1,9,10
 792 286 792 286 893.5 311.5 c 128,-1,11
 995 337 995 337 1083 379 c 0,12,13
 1096 385 1096 385 1096 401 c 0,14,15
 1096 413 1096 413 1087 433 c 1,0,1
1186 387 m 0,16,17
 1082 248 1082 248 931 163.5 c 128,-1,18
 780 79 780 79 579 27 c 1,19,20
 479 0 479 0 401 0 c 0,21,22
 382 0 382 0 364 2 c 0,23,24
 264 11 264 11 191 63.5 c 128,-1,25
 118 116 118 116 4 184 c 0,26,27
 0 186 0 186 0 191 c 0,28,29
 0 194 0 194 2 198 c 0,30,31
 5 208 5 208 14 208 c 0,32,33
 65 206 65 206 114 206 c 0,34,35
 218 206 218 206 318 215 c 0,36,37
 466 227 466 227 601 250 c 1,38,39
 689 352 689 352 782 451.5 c 128,-1,40
 875 551 875 551 974 644 c 0,41,42
 1022 688 1022 688 1118 707 c 0,43,44
 1140 711 1140 711 1160 711 c 0,45,46
 1226 711 1226 711 1266 663 c 1,47,48
 1302 618 1302 618 1302 578 c 0,49,50
 1302 548 1302 548 1283 521 c 0,51,52
 1237 456 1237 456 1186 387 c 0,16,17
602 981 m 1,53,-1
 753 1221 l 1,54,-1
 797 564 l 1,55,-1
 646 324 l 1,56,-1
 602 981 l 1,53,-1
1207 1021 m 1,57,58
 1165 967 1165 967 1123 915 c 128,-1,59
 1081 863 1081 863 1039 811 c 1,60,-1
 895 946 l 1,61,62
 936 999 936 999 978.5 1051 c 128,-1,63
 1021 1103 1021 1103 1063 1156 c 1,64,-1
 1207 1021 l 1,57,58
EndSplineSet
MultipleSubs2: "'medi' Medial Forms in Arabic lookup 3 subtable" _.notdef_27 noqta_A
MultipleSubs2: "'fina' Terminal Forms in Arabic lookup 2 subtable" _.notdef_25 noqta_A
MultipleSubs2: "'init' Initial Forms in Arabic lookup 1 subtable" _.notdef_26 noqta_A
MultipleSubs2: "'isol' Isolated Forms in Arabic lookup 0 subtable" _.notdef_24 noqta_A
EndChar
StartChar: afii57470
Encoding: 1607 1607 66
AltUni2: 00fee9.ffffffff.0
Width: 506
GlyphClass: 2
Flags: W
LayerCount: 2
Fore
SplineSet
283 546 m 0,0,1
 261 561 261 561 240 561 c 0,2,3
 192 561 192 561 152 480 c 0,4,5
 94 362 94 362 89 339 c 0,6,7
 88 336 88 336 88 334 c 0,8,9
 88 322 88 322 116 309 c 0,10,11
 152 293 152 293 189 293 c 0,12,13
 215 293 215 293 241 301 c 1,14,15
 305 318 305 318 350 346 c 0,16,17
 361 353 361 353 361 371 c 0,18,19
 361 397 361 397 340 447 c 0,20,21
 303 532 303 532 283 546 c 0,0,1
444 345 m 0,22,23
 419 231 419 231 366 137 c 128,-1,24
 313 43 313 43 184 10 c 0,25,26
 141 -1 141 -1 108 -1 c 0,27,28
 2 -1 2 -1 2 116 c 0,29,30
 2 118 2 118 3 119 c 0,31,32
 4 276 4 276 64 454 c 0,33,34
 151 709 151 709 236 789 c 0,35,36
 291 842 291 842 336 842 c 0,37,38
 359 842 359 842 379 828 c 0,39,40
 438 787 438 787 460 653 c 0,41,42
 468 603 468 603 468 549 c 0,43,44
 468 455 468 455 444 345 c 0,22,23
EndSplineSet
MultipleSubs2: "'medi' Medial Forms in Arabic lookup 3 subtable" __.notdef_56
MultipleSubs2: "'fina' Terminal Forms in Arabic lookup 2 subtable" __.notdef_53
MultipleSubs2: "'init' Initial Forms in Arabic lookup 1 subtable" __.notdef_54
MultipleSubs2: "'isol' Isolated Forms in Arabic lookup 0 subtable" __.notdef_52
EndChar
StartChar: uni064C
Encoding: 1612 1612 477
Width: 0
GlyphClass: 4
Flags: W
AnchorPoint: "Anchor-14" 0 0 mark 0
AnchorPoint: "arMarkMark.above" 0 0 mark 0
LayerCount: 2
Fore
SplineSet
106 270 m 0,0,1
 106 263 106 263 115 258 c 0,2,3
 130 248 130 248 136 245 c 0,4,5
 152 237 152 237 162 234 c 1,6,7
 180 226 180 226 184 224 c 1,8,9
 192 244 192 244 195 260 c 1,10,11
 197 279 197 279 195 294 c 1,12,13
 192 308 192 308 186 319 c 1,14,15
 179 329 179 329 170 329 c 0,16,17
 158 329 158 329 146 322 c 0,18,19
 132 313 132 313 125 305 c 0,20,21
 114 294 114 294 111 286 c 0,22,23
 106 276 106 276 106 270 c 0,0,1
-199 -91 m 0,24,25
 -186 -82 -186 -82 -171 -72.5 c 128,-1,26
 -156 -63 -156 -63 -139 -51 c 0,27,28
 -106 -30 -106 -30 -73 -6 c 0,29,30
 -57 5 -57 5 -41.5 16.5 c 128,-1,31
 -26 28 -26 28 -9 40 c 0,32,33
 19 60 19 60 47 83 c 0,34,35
 59 92 59 92 70 100.5 c 128,-1,36
 81 109 81 109 90 117 c 1,37,38
 102 126 102 126 113 137 c 1,39,40
 82 152 82 152 65 179 c 1,41,42
 46 205 46 205 46 238 c 0,43,44
 46 266 46 266 61 299 c 1,45,46
 73 331 73 331 98 364 c 0,47,48
 118 390 118 390 148 414 c 0,49,50
 174 434 174 434 197 434 c 0,51,52
 201 434 201 434 212 427 c 0,53,54
 223 419 223 419 233 405 c 1,55,56
 240 393 240 393 249 370 c 0,57,58
 257 347 257 347 257 319 c 0,59,60
 257 286 257 286 250 250 c 0,61,62
 243 217 243 217 233 195 c 1,63,64
 237 193 237 193 240 190 c 0,65,66
 242 187 242 187 244 185 c 128,-1,67
 246 183 246 183 249 181 c 0,68,69
 250 180 250 180 251 178.5 c 128,-1,70
 252 177 252 177 254 177 c 1,71,-1
 254 177 l 1,72,-1
 254 177 l 1,73,74
 275 152 275 152 273 156 c 1,75,76
 283 143 283 143 283 132 c 1,77,78
 276 106 276 106 265 87 c 1,79,80
 255 67 255 67 237 52 c 1,81,82
 223 62 223 62 209 77 c 1,83,84
 192 89 192 89 179 101 c 1,85,86
 172 105 172 105 171 106 c 0,87,88
 171 107 171 107 170 107 c 0,89,90
 134 67 134 67 85 27 c 0,91,92
 38 -11 38 -11 -12 -42 c 1,93,94
 -60 -73 -60 -73 -108 -95 c 0,95,96
 -156 -118 -156 -118 -192 -128 c 1,97,98
 -256 -148 -256 -148 -256 -136 c 1,99,100
 -256 -136 -256 -136 -254 -130 c 2,101,102
 -254 -130 -254 -130 -252 -126 c 0,103,104
 -249 -119 -249 -119 -236 -104 c 0,105,106
 -204 -65 -204 -65 -173 -6.5 c 128,-1,107
 -142 52 -142 52 -123 100 c 0,108,109
 -115 120 -115 120 -109 150 c 1,110,111
 -103 204 -103 204 -131 203.5 c 128,-1,112
 -159 203 -159 203 -189 173 c 0,113,114
 -193 169 -193 169 -196.5 166 c 128,-1,115
 -200 163 -200 163 -202 161 c 0,116,117
 -226 143 -226 143 -221 174 c 1,118,119
 -219 201 -219 201 -191 249 c 1,120,121
 -140 342 -140 342 -89 330 c 1,122,123
 -32 315 -32 315 -41.5 248 c 128,-1,124
 -51 181 -51 181 -66 138 c 1,125,126
 -119 0 -119 0 -208 -96 c 1,127,128
 -202 -92 -202 -92 -199 -91 c 0,24,25
EndSplineSet
EndChar
StartChar: afii57453
Encoding: 1613 1613 86
Width: 0
GlyphClass: 4
Flags: W
AnchorPoint: "Anchor-19" 0 0 mark 0
AnchorPoint: "Anchor-16" 0 0 mark 0
LayerCount: 2
Fore
SplineSet
-204 93 m 1,0,-1
 -202 95 l 1,1,2
 -171 107 -171 107 -120.5 126 c 128,-1,3
 -70 145 -70 145 -12 165.5 c 128,-1,4
 46 186 46 186 107 208.5 c 128,-1,5
 168 231 168 231 223 250 c 1,6,-1
 164 155 l 1,7,8
 53 116 53 116 -62.5 74.5 c 128,-1,9
 -178 33 -178 33 -271 -13 c 1,10,-1
 -271 -15 l 1,11,-1
 -204 93 l 1,0,-1
-204 -40 m 1,12,-1
 -202 -40 l 1,13,14
 -171 -27 -171 -27 -120.5 -8.5 c 128,-1,15
 -70 10 -70 10 -12 31.5 c 128,-1,16
 46 53 46 53 107 75 c 128,-1,17
 168 97 168 97 223 116 c 1,18,-1
 164 21 l 1,19,20
 53 -17 53 -17 -62.5 -59.5 c 128,-1,21
 -178 -102 -178 -102 -271 -148 c 1,22,-1
 -204 -40 l 1,12,-1
EndSplineSet
EndChar
StartChar: afii57454
Encoding: 1614 1614 215
Width: 0
GlyphClass: 4
Flags: W
AnchorPoint: "Anchor-19" 0 0 mark 0
AnchorPoint: "Anchor-17" 0 0 mark 0
AnchorPoint: "Anchor-11" 0 0 mark 0
LayerCount: 2
Fore
SplineSet
-203 -47 m 1,0,-1
 -202 -47 l 1,1,2
 -170 -34 -170 -34 -120 -15.5 c 128,-1,3
 -70 3 -70 3 -12.5 24.5 c 128,-1,4
 45 46 45 46 106 68 c 128,-1,5
 167 90 167 90 221 109 c 1,6,-1
 162 15 l 1,7,8
 52 -24 52 -24 -62.5 -66 c 128,-1,9
 -177 -108 -177 -108 -270 -154 c 1,10,-1
 -203 -47 l 1,0,-1
EndSplineSet
EndChar
StartChar: afii57456
Encoding: 1616 1616 92
Width: 0
GlyphClass: 4
Flags: W
AnchorPoint: "Anchor-19" 0 0 mark 0
AnchorPoint: "Anchor-16" 0 0 mark 0
LayerCount: 2
Fore
SplineSet
-204 93 m 1,0,-1
 -202 95 l 1,1,2
 -171 107 -171 107 -120.5 126 c 128,-1,3
 -70 145 -70 145 -12 165.5 c 128,-1,4
 46 186 46 186 107 208.5 c 128,-1,5
 168 231 168 231 223 250 c 1,6,-1
 164 155 l 1,7,8
 53 116 53 116 -62.5 74.5 c 128,-1,9
 -178 33 -178 33 -271 -13 c 1,10,-1
 -271 -15 l 1,11,-1
 -204 93 l 1,0,-1
EndSplineSet
EndChar
StartChar: afii57458
Encoding: 1618 1618 91
Width: 0
GlyphClass: 4
Flags: W
AnchorPoint: "Anchor-14" 0 0 mark 0
LayerCount: 2
Fore
SplineSet
127 22 m 1,0,-1
 128 27 l 1,1,2
 111 42 111 42 1 53 c 0,3,4
 -31 56 -31 56 -57 56 c 0,5,6
 -121 56 -121 56 -147 37 c 0,7,8
 -158 29 -158 29 -175.5 12.5 c 128,-1,9
 -193 -4 -193 -4 -198 -7 c 1,10,-1
 -200 -6 l 1,11,12
 -200 9 -200 9 -173.5 72 c 128,-1,13
 -147 135 -147 135 -98 196 c 0,14,15
 -72 227 -72 227 27 227 c 2,16,-1
 64 227 l 1,17,18
 195 220 195 220 226 189 c 0,19,20
 245 170 245 170 245 138 c 0,21,22
 245 100 245 100 217 45 c 0,23,24
 165 -57 165 -57 59 -106 c 0,25,26
 10 -129 10 -129 -35.5 -138.5 c 128,-1,27
 -81 -148 -81 -148 -134 -152 c 1,28,-1
 -154 -150 l 1,29,30
 -147 -134 -147 -134 -26 -75 c 128,-1,31
 95 -16 95 -16 127 22 c 1,0,-1
EndSplineSet
EndChar
StartChar: uni0658
Encoding: 1624 1624 472
Width: 0
GlyphClass: 4
Flags: W
AnchorPoint: "Anchor-14" 0 0 mark 0
AnchorPoint: "Anchor-18" 0 0 mark 0
LayerCount: 2
Fore
SplineSet
91 41 m 0,0,-1
6 -147 m 1,1,2
 -51 -142 -51 -142 -76 -113 c 0,3,4
 -99 -85 -99 -85 -102 -41 c 1,5,6
 -106 -4 -106 -4 -94 46 c 1,7,8
 -77 101 -77 101 -62 133 c 0,9,10
 -43 172 -43 172 -25 198 c 0,11,12
 -8 222 -8 222 2 222 c 0,13,14
 6 222 6 222 7 220 c 1,15,16
 7 216 7 216 6 214 c 0,17,18
 -32 161 -32 161 -40 124 c 1,19,20
 -50 84 -50 84 -38 55 c 1,21,22
 -27 25 -27 25 -3 10 c 1,23,24
 23 -10 23 -10 52 -11 c 1,25,26
 81 -15 81 -15 110 -4 c 1,27,28
 139 5 139 5 159 31 c 0,29,30
 165 40 165 40 168 38 c 1,31,32
 172 33 172 33 167 21 c 0,33,34
 149 -21 149 -21 142 -35 c 0,35,36
 127 -66 127 -66 106 -90 c 0,37,38
 81 -119 81 -119 62 -131 c 0,39,40
 35 -149 35 -149 6 -147 c 1,41,-1
 6 -147 l 1,1,2
EndSplineSet
EndChar
StartChar: uni065A
Encoding: 1626 1626 481
Width: 0
GlyphClass: 4
Flags: W
AnchorPoint: "Anchor-14" 0 0 mark 0
LayerCount: 2
Fore
SplineSet
190 383 m 1,0,1
 177 339 177 339 177 299 c 1,2,3
 135 251 135 251 105 196.5 c 128,-1,4
 75 142 75 142 49 84 c 0,5,6
 42 69 42 69 37.5 53 c 128,-1,7
 33 37 33 37 21 24 c 0,8,9
 18 21 18 21 12 19 c 0,10,11
 9 18 9 18 7 18 c 0,12,13
 4 18 4 18 4 20 c 0,14,15
 -22 99 -22 99 -70 165.5 c 128,-1,16
 -118 232 -118 232 -171 297 c 1,17,18
 -161 318 -161 318 -149 339.5 c 128,-1,19
 -137 361 -137 361 -124 384 c 1,20,21
 -26 266 -26 266 37 152 c 1,22,23
 67 215 67 215 104.5 271.5 c 128,-1,24
 142 328 142 328 184 382 c 0,25,26
 184 383 184 383 187 383 c 0,27,28
 188 383 188 383 190 383 c 1,0,1
EndSplineSet
EndChar
StartChar: uni0663
Encoding: 1635 1635 92
Width: 848
GlyphClass: 2
Flags: W
LayerCount: 2
Fore
SplineSet
798 1195 m 0,0,1
 788 1081 788 1081 765 980.5 c 128,-1,2
 742 880 742 880 679 823 c 0,3,4
 653 799 653 799 605 780 c 0,5,6
 585 772 585 772 566 772 c 0,7,8
 539 772 539 772 514 788 c 0,9,10
 501 796 501 796 481 822 c 1,11,12
 466 809 466 809 445 790 c 0,13,14
 428 775 428 775 428 765 c 0,15,16
 428 762 428 762 430 759 c 0,17,18
 527 589 527 589 543 387 c 0,19,20
 544 362 544 362 544 337 c 0,21,22
 544 164 544 164 449 14 c 0,23,24
 445 8 445 8 436 4 c 0,25,26
 429 0 429 0 427 0 c 1,27,-1
 427 1 l 1,28,29
 432 50 432 50 432 97 c 0,30,31
 432 256 432 256 374 379 c 0,32,33
 298 538 298 538 219 669 c 1,34,35
 176 737 176 737 129 803 c 128,-1,36
 82 869 82 869 50 950 c 1,37,38
 72 1013 72 1013 96.5 1077 c 128,-1,39
 121 1141 121 1141 151 1204 c 1,40,41
 175 1156 175 1156 200.5 1104 c 128,-1,42
 226 1052 226 1052 268 1022 c 0,43,44
 306 995 306 995 354 995 c 0,45,46
 377 995 377 995 402 1002 c 0,47,48
 479 1021 479 1021 512 1066 c 0,49,50
 520 1077 520 1077 530 1108 c 128,-1,51
 540 1139 540 1139 547 1152 c 0,52,53
 550 1157 550 1157 552 1157 c 0,54,55
 555 1157 555 1157 557 1152 c 0,56,57
 561 1145 561 1145 561 1140 c 2,58,-1
 561 1138 l 1,59,60
 559 1126 559 1126 559 1116 c 0,61,62
 559 1064 559 1064 609 1053 c 0,63,64
 628 1049 628 1049 646 1049 c 0,65,66
 688 1049 688 1049 721 1074 c 1,67,68
 766 1110 766 1110 778 1166 c 0,69,70
 779 1172 779 1172 789 1190 c 0,71,72
 794 1200 794 1200 796 1200 c 256,73,74
 798 1200 798 1200 798 1195 c 0,0,1
EndSplineSet
EndChar
StartChar: uni0664
Encoding: 1636 1636 93
Width: 734
GlyphClass: 2
Flags: W
LayerCount: 2
Fore
SplineSet
684 306 m 1,0,1
 650 251 650 251 618.5 191.5 c 128,-1,2
 587 132 587 132 552 78 c 1,3,4
 477 9 477 9 329 2 c 0,5,6
 315 1 315 1 301 1 c 0,7,8
 173 1 173 1 100 64 c 0,9,10
 71 88 71 88 61 136 c 1,11,12
 57 150 57 150 57 164 c 0,13,14
 57 195 57 195 73 221 c 1,15,16
 107 281 107 281 143 341 c 128,-1,17
 179 401 179 401 205 477 c 1,18,19
 184 531 184 531 146 550 c 128,-1,20
 108 569 108 569 82 591.5 c 128,-1,21
 56 614 56 614 56 659 c 0,22,23
 56 703 56 703 112 808 c 0,24,25
 164 907 164 907 236.5 1011.5 c 128,-1,26
 309 1116 309 1116 408 1179 c 0,27,28
 427 1191 427 1191 456 1200 c 1,29,30
 426 1155 426 1155 404.5 1103.5 c 128,-1,31
 383 1052 383 1052 360 1000 c 1,32,33
 322 973 322 973 275 947.5 c 128,-1,34
 228 922 228 922 211 873 c 0,35,36
 208 865 208 865 208 857 c 0,37,38
 208 837 208 837 231 825 c 1,39,40
 359 745 359 745 359 665 c 0,41,42
 359 640 359 640 347 615 c 0,43,44
 295 510 295 510 206 367 c 1,45,46
 216 312 216 312 267 285 c 128,-1,47
 318 258 318 258 378 249 c 0,48,49
 414 243 414 243 448 243 c 0,50,51
 494 243 494 243 537 255 c 0,52,53
 611 275 611 275 669 310 c 1,54,-1
 673 310 l 2,55,56
 676 310 676 310 684 306 c 1,0,1
EndSplineSet
EndChar
StartChar: afii57397
Encoding: 1637 1637 103
Width: 694
GlyphClass: 2
Flags: W
LayerCount: 2
Fore
SplineSet
525 364 m 0,0,1
 509 422 509 422 461.5 531.5 c 128,-1,2
 414 641 414 641 366 677 c 0,3,4
 344 693 344 693 323 693 c 0,5,6
 299 693 299 693 277 672 c 0,7,8
 234 631 234 631 170 493 c 0,9,10
 137 423 137 423 137 378 c 0,11,12
 137 335 137 335 168 316 c 1,13,14
 221 281 221 281 297 281 c 0,15,16
 341 281 341 281 394 293 c 0,17,18
 526 323 526 323 526 359 c 0,19,20
 526 361 526 361 525 364 c 0,0,1
458 88 m 0,21,22
 402 29 402 29 283 5 c 0,23,24
 251 -1 251 -1 223 -1 c 0,25,26
 144 -1 144 -1 91 48 c 0,27,28
 58 78 58 78 58 159 c 0,29,30
 58 179 58 179 60 202 c 0,31,32
 70 318 70 318 102.5 451.5 c 128,-1,33
 135 585 135 585 176.5 706.5 c 128,-1,34
 218 828 218 828 241 876 c 0,35,36
 297 998 297 998 358 998 c 0,37,38
 389 998 389 998 422 965 c 0,39,40
 517 867 517 867 577 720 c 1,41,42
 624 602 624 602 624 486 c 0,43,44
 624 436 624 436 616 387 c 0,45,46
 587 222 587 222 458 88 c 0,21,22
EndSplineSet
EndChar
StartChar: afii57400
Encoding: 1640 1640 97
Width: 771
GlyphClass: 2
Flags: W
LayerCount: 2
Fore
SplineSet
50 2 m 1,0,1
 74 146 74 146 74 278 c 1,2,3
 151 436 151 436 207 614 c 128,-1,4
 263 792 263 792 313 981 c 1,5,6
 325 1031 325 1031 333 1084.5 c 128,-1,7
 341 1138 341 1138 364 1180 c 0,8,9
 368 1188 368 1188 381 1197 c 0,10,11
 386 1200 386 1200 389 1200 c 0,12,13
 394 1200 394 1200 396 1193 c 0,14,15
 443 932 443 932 532 715 c 128,-1,16
 621 498 621 498 721 285 c 1,17,18
 702 216 702 216 679.5 144 c 128,-1,19
 657 72 657 72 633 0 c 1,20,21
 450 385 450 385 334 761 c 1,22,23
 279 554 279 554 209.5 367.5 c 128,-1,24
 140 181 140 181 63 6 c 0,25,26
 61 2 61 2 55 2 c 2,27,-1
 50 2 l 1,0,1
EndSplineSet
EndChar
StartChar: afii57401
Encoding: 1641 1641 107
Width: 651
GlyphClass: 2
Flags: W
LayerCount: 2
Fore
SplineSet
374 847 m 1,0,1
 366 871 366 871 346 901 c 128,-1,2
 326 931 326 931 297 936 c 0,3,4
 288 937 288 937 279 937 c 0,5,6
 242 937 242 937 223 912 c 0,7,8
 200 881 200 881 184 850 c 0,9,10
 179 841 179 841 179 833 c 0,11,12
 179 820 179 820 192 809 c 0,13,14
 220 786 220 786 264 786 c 0,15,16
 274 786 274 786 286 788 c 0,17,18
 344 794 344 794 380 819 c 0,19,20
 381 820 381 820 381 821 c 0,21,22
 381 825 381 825 377 834 c 0,23,24
 373 842 373 842 373 845 c 0,25,26
 373 847 373 847 374 847 c 1,0,1
601 278 m 1,27,-1
 483 0 l 1,28,29
 438 154 438 154 414 295.5 c 128,-1,30
 390 437 390 437 388 630 c 1,31,32
 352 576 352 576 278 536 c 0,33,34
 239 515 239 515 199 515 c 0,35,36
 160 515 160 515 119 534 c 0,37,38
 56 562 56 562 56 639 c 0,39,40
 56 646 56 646 57 654 c 0,41,42
 63 743 63 743 105 844 c 128,-1,43
 147 945 147 945 203.5 1035 c 128,-1,44
 260 1125 260 1125 291 1158 c 0,45,46
 312 1181 312 1181 352 1197 c 0,47,48
 369 1203 369 1203 386 1203 c 0,49,50
 409 1203 409 1203 433 1191 c 1,51,52
 517 1145 517 1145 521 1041 c 0,53,54
 528 819 528 819 534.5 639.5 c 128,-1,55
 541 460 541 460 594 289 c 1,56,-1
 601 278 l 1,27,-1
EndSplineSet
EndChar
StartChar: afii57381
Encoding: 1642 1642 136
Width: 903
GlyphClass: 2
Flags: W
LayerCount: 2
Fore
SplineSet
50 879 m 1,0,-1
 189 1111 l 1,1,-1
 358 1012 l 1,2,-1
 220 776 l 1,3,-1
 50 879 l 1,0,-1
545 20 m 1,4,-1
 684 252 l 1,5,-1
 853 152 l 1,6,-1
 715 -84 l 1,7,-1
 545 20 l 1,4,-1
128 -128 m 1,8,-1
 665 984 l 1,9,-1
 812 1052 l 1,10,-1
 271 -61 l 1,11,-1
 128 -128 l 1,8,-1
EndSplineSet
EndChar
StartChar: uni0670
Encoding: 1648 1648 221
Width: 0
GlyphClass: 4
Flags: W
AnchorPoint: "Anchor-18" 0 0 mark 0
AnchorPoint: "Anchor-14" 0 0 mark 0
LayerCount: 2
Fore
SplineSet
9 -139 m 0,0,1
 4 -145 4 -145 -1 -145 c 2,2,-1
 -2 -145 l 1,3,4
 -6 -144 -6 -144 -6 -140 c 0,5,6
 -6 -139 -6 -139 -5 -137 c 0,7,8
 2 -98 2 -98 2 -63 c 2,9,-1
 2 -47 l 1,10,11
 0 -6 0 -6 -9 31 c 128,-1,12
 -18 68 -18 68 -31.5 101.5 c 128,-1,13
 -45 135 -45 135 -59 168 c 0,14,15
 -66 185 -66 185 -72 201.5 c 128,-1,16
 -78 218 -78 218 -81 237 c 1,17,18
 -74 254 -74 254 -66 272 c 128,-1,19
 -58 290 -58 290 -50 307 c 1,20,21
 -50 312 -50 312 -47 314.5 c 128,-1,22
 -44 317 -44 317 -40 318 c 1,23,-1
 -39 318 l 2,24,25
 -36 318 -36 318 -34 317 c 0,26,27
 -32 315 -32 315 -31 312 c 0,28,29
 -19 279 -19 279 -3 242.5 c 128,-1,30
 13 206 13 206 27.5 167.5 c 128,-1,31
 42 129 42 129 52.5 90 c 128,-1,32
 63 51 63 51 64 12 c 1,33,-1
 64 9 l 2,34,35
 64 -29 64 -29 52 -65 c 0,36,37
 40 -104 40 -104 9 -139 c 0,0,1
EndSplineSet
EndChar
StartChar: uni0671
Encoding: 1649 1649 70
Width: 226
GlyphClass: 2
Flags: W
LayerCount: 2
Fore
SplineSet
7 870 m 1,0,-1
 158 1110 l 1,1,-1
 216 240 l 1,2,-1
 65 0 l 1,3,-1
 7 870 l 1,0,-1
264 1363 m 0,4,5
 253 1386 253 1386 234 1386 c 0,6,7
 222 1386 222 1386 207 1377 c 0,8,9
 181 1363 181 1363 161 1343.5 c 128,-1,10
 141 1324 141 1324 121 1304 c 1,11,12
 160 1311 160 1311 196 1320 c 128,-1,13
 232 1329 232 1329 263 1344 c 0,14,15
 267 1346 267 1346 267 1351 c 256,16,17
 267 1356 267 1356 264 1363 c 0,4,5
77 1297 m 1,18,19
 94 1300 94 1300 93 1300 c 1,20,21
 167 1385 167 1385 224 1438 c 0,22,23
 241 1453 241 1453 275 1460 c 0,24,25
 283 1461 283 1461 290 1461 c 0,26,27
 313 1461 313 1461 328 1445 c 1,28,29
 341 1429 341 1429 341 1412 c 0,30,31
 341 1400 341 1400 335 1388 c 0,32,33
 319 1357 319 1357 301 1333 c 0,34,35
 255 1272 255 1272 157 1235 c 1,36,37
 95 1209 95 1209 63 1209 c 0,38,39
 55 1209 55 1209 49 1211 c 0,40,41
 19 1219 19 1219 3 1231 c 0,42,43
 -9 1240 -9 1240 -23 1240 c 0,44,45
 -27 1240 -27 1240 -32 1239 c 0,46,47
 -51 1235 -51 1235 -108 1179 c 0,48,49
 -111 1175 -111 1175 -118 1171 c 0,50,51
 -122 1169 -122 1169 -124 1169 c 256,52,53
 -126 1169 -126 1169 -126 1172 c 0,54,55
 -111 1232 -111 1232 -44 1297 c 0,56,57
 -10 1329 -10 1329 20 1329 c 256,58,59
 50 1329 50 1329 77 1297 c 1,18,19
EndSplineSet
MultipleSubs2: "'fina' Terminal Forms in Arabic lookup 2 subtable" _.notdef_3 _.notdef_316
MultipleSubs2: "'isol' Isolated Forms in Arabic lookup 0 subtable" _.notdef_2 _.notdef_316
EndChar
StartChar: afii57511
Encoding: 1657 1657 166
AltUni2: 00fb66.ffffffff.0
Width: 1439
GlyphClass: 2
Flags: W
LayerCount: 2
Fore
SplineSet
1279 440 m 0,0,1
 1214 304 1214 304 1031 191.5 c 128,-1,2
 848 79 848 79 643 31 c 0,3,4
 522 2 522 2 411 2 c 0,5,6
 332 2 332 2 257 17 c 0,7,8
 77 51 77 51 18 211 c 0,9,10
 -2 265 -2 265 -2 324 c 0,11,12
 -2 407 -2 407 39 500 c 0,13,14
 109 656 109 656 184 774 c 1,15,16
 197 792 197 792 211 792 c 0,17,18
 216 792 216 792 221 790 c 0,19,20
 232 785 232 785 232 772 c 0,21,22
 232 763 232 763 226 749 c 1,23,24
 142 592 142 592 142 491 c 0,25,26
 142 472 142 472 145 456 c 0,27,28
 163 348 163 348 255 300 c 1,29,30
 342 253 342 253 474 253 c 0,31,32
 481 253 481 253 488 254 c 0,33,34
 629 256 629 256 776 292 c 0,35,36
 922 327 922 327 1051 390 c 2,37,-1
 1179 453 l 1,38,-1
 1179 457 l 2,39,40
 1179 495 1179 495 1159 566 c 1,41,42
 1137 639 1137 639 1116 701 c 1,43,-1
 1273 933 l 1,44,-1
 1322 783 l 2,45,46
 1339 730 1339 730 1339 673 c 0,47,48
 1339 565 1339 565 1279 440 c 0,0,1
836 884 m 1,49,50
 822 907 822 907 801 907 c 0,51,52
 788 907 788 907 772 899 c 0,53,54
 744 884 744 884 722 862 c 128,-1,55
 700 840 700 840 679 818 c 1,56,57
 721 826 721 826 760.5 836 c 128,-1,58
 800 846 800 846 834 863 c 0,59,60
 839 865 839 865 839 872 c 0,61,62
 839 877 839 877 836 884 c 1,49,50
874 866 m 0,63,64
 802 769 802 769 638 725 c 1,65,66
 599 716 599 716 562 716 c 2,67,-1
 554 716 l 1,68,69
 515 719 515 719 486.5 739.5 c 128,-1,70
 458 760 458 760 413 787 c 1,71,72
 409 791 409 791 409 793 c 0,73,74
 409 796 409 796 417 796 c 0,75,76
 440 795 440 795 462 795 c 0,77,78
 500 795 500 795 536 798 c 0,79,80
 593 803 593 803 646 812 c 1,81,82
 722 902 722 902 792 966 c 0,83,84
 810 983 810 983 848 990 c 0,85,86
 856 992 856 992 864 992 c 0,87,88
 890 992 890 992 905 973 c 1,89,90
 920 956 920 956 920 940 c 0,91,92
 920 928 920 928 912 918 c 0,93,94
 894 893 894 893 874 866 c 0,63,64
647 1097 m 1,95,-1
 706 1191 l 1,96,-1
 723 935 l 1,97,-1
 664 841 l 1,98,-1
 647 1097 l 1,95,-1
EndSplineSet
MultipleSubs2: "'medi' Medial Forms in Arabic lookup 3 subtable" _.notdef_7 _.notdef_315
MultipleSubs2: "'fina' Terminal Forms in Arabic lookup 2 subtable" _.notdef_5 _.notdef_315
MultipleSubs2: "'init' Initial Forms in Arabic lookup 1 subtable" _.notdef_6 _.notdef_315
MultipleSubs2: "'isol' Isolated Forms in Arabic lookup 0 subtable" _.notdef_4 _.notdef_315
EndChar
StartChar: uni06C1
Encoding: 1729 1729 201
AltUni2: 00fba7.ffffffff.0
Width: 362
GlyphClass: 2
Flags: W
LayerCount: 2
Fore
SplineSet
586 280 m 1,0,-1
 511 16 l 1,1,2
 408 -1 408 -1 341 -1 c 0,3,4
 306 -1 306 -1 280 4 c 0,5,6
 207 18 207 18 159 35 c 1,7,-1
 65 -188 l 1,8,-1
 0 -232 l 1,9,-1
 187 253 l 2,10,11
 202 291 202 291 229 291 c 2,12,-1
 234 291 l 1,13,14
 265 287 265 287 309 278 c 0,15,16
 345 270 345 270 416 269 c 0,17,18
 423 268 423 268 431 268 c 0,19,20
 497 268 497 268 586 280 c 1,0,-1
EndSplineSet
MultipleSubs2: "'medi' Medial Forms in Arabic lookup 3 subtable" __.notdef_56
MultipleSubs2: "'fina' Terminal Forms in Arabic lookup 2 subtable" _.notdef_67
MultipleSubs2: "'init' Initial Forms in Arabic lookup 1 subtable" _.notdef_68
MultipleSubs2: "'isol' Isolated Forms in Arabic lookup 0 subtable" __.notdef_52
EndChar
StartChar: uni06D3
Encoding: 1747 1747 210
Width: 2101
GlyphClass: 2
Flags: W
LayerCount: 2
Fore
SplineSet
867 1367 m 1,0,1
 805 1351 805 1351 771 1322 c 1,2,3
 798 1275 798 1275 858.5 1269.5 c 128,-1,4
 919 1264 919 1264 851 1170 c 0,5,6
 823 1131 823 1131 795 1093 c 128,-1,7
 767 1055 767 1055 725 1032 c 0,8,9
 699 1018 699 1018 651 1014.5 c 128,-1,10
 603 1011 603 1011 576 1015 c 1,11,12
 554 1017 554 1017 580 1033.5 c 128,-1,13
 606 1050 606 1050 647 1068.5 c 128,-1,14
 688 1087 688 1087 726 1103 c 128,-1,15
 764 1119 764 1119 767 1120 c 0,16,17
 781 1127 781 1127 782 1131 c 0,18,19
 784 1142 784 1142 762 1149 c 1,20,21
 725 1157 725 1157 704 1176 c 0,22,23
 672 1204 672 1204 679.5 1233 c 128,-1,24
 687 1262 687 1262 706 1293 c 0,25,26
 742 1350 742 1350 802 1404 c 128,-1,27
 862 1458 862 1458 911 1476 c 1,28,29
 953 1490 953 1490 914 1434.5 c 128,-1,30
 875 1379 875 1379 867 1367 c 1,0,1
742 846 m 1,31,32
 790 914 790 914 836 990 c 128,-1,33
 882 1066 882 1066 925.5 1109 c 128,-1,34
 969 1152 969 1152 1009.5 1142 c 128,-1,35
 1050 1132 1050 1132 1088 1029 c 1,36,37
 1103 968 1103 968 1086 867 c 128,-1,38
 1069 766 1069 766 1051 713 c 0,39,40
 1024 635 1024 635 1024 709 c 1,41,42
 1033 802 1033 802 1019.5 867.5 c 128,-1,43
 1006 933 1006 933 962 933 c 0,44,45
 916 933 916 933 870.5 879.5 c 128,-1,46
 825 826 825 826 778.5 758.5 c 128,-1,47
 732 691 732 691 685.5 628.5 c 128,-1,48
 639 566 639 566 592 548 c 0,49,50
 487 506 487 506 380.5 465.5 c 128,-1,51
 274 425 274 425 197 339 c 1,52,53
 243 306 243 306 333 291 c 1,54,55
 333 291 333 291 371 285.5 c 128,-1,56
 409 280 409 280 414 280 c 1,57,-1
 414 280 l 1,58,59
 418 279 418 279 422.5 278.5 c 128,-1,60
 427 278 427 278 432 278 c 0,61,62
 680 256 680 256 871.5 255.5 c 128,-1,63
 1063 255 1063 255 1242.5 261 c 128,-1,64
 1422 267 1422 267 1612.5 271.5 c 128,-1,65
 1803 276 1803 276 2051 264 c 1,66,67
 2045 264 2045 264 1968.5 227 c 128,-1,68
 1892 190 1892 190 1784 145 c 128,-1,69
 1676 100 1676 100 1556 61 c 128,-1,70
 1436 22 1436 22 1344 18 c 1,71,72
 1089 3 1089 3 921.5 1.5 c 128,-1,73
 754 0 754 0 499 4 c 0,74,75
 457 4 457 4 415 5.5 c 128,-1,76
 373 7 373 7 333 10 c 1,77,-1
 333 10 l 1,78,79
 201 20 201 20 126 51 c 0,80,81
 96 63 96 63 73 90 c 128,-1,82
 50 117 50 117 62 162 c 0,83,84
 110 347 110 347 185 461 c 128,-1,85
 260 575 260 575 416 646 c 0,86,87
 531 698 531 698 597 724 c 128,-1,88
 663 750 663 750 742 846 c 1,31,32
EndSplineSet
MultipleSubs2: "'fina' Terminal Forms in Arabic lookup 2 subtable" _.notdef_72 uni0654
MultipleSubs2: "'isol' Isolated Forms in Arabic lookup 0 subtable" _.notdef_71 uni0654
EndChar
StartChar: uni06F0
Encoding: 1776 1776 124
Width: 475
GlyphClass: 2
Flags: W
LayerCount: 2
Fore
SplineSet
61 539 m 2,0,-1
 214 727 l 2,1,2
 219 733 219 733 225 733 c 0,3,4
 232 733 232 733 239 727 c 2,5,-1
 410 583 l 2,6,7
 419 576 419 576 419 569 c 0,8,9
 419 564 419 564 414 558 c 2,10,-1
 261 370 l 2,11,12
 255 363 255 363 249 363 c 256,13,14
 243 363 243 363 236 369 c 2,15,-1
 65 513 l 2,16,17
 56 520 56 520 56 528 c 0,18,19
 56 533 56 533 61 539 c 2,0,-1
EndSplineSet
EndChar
StartChar: uni06F6
Encoding: 1782 1782 258
Width: 975
GlyphClass: 2
Flags: W
LayerCount: 2
Fore
SplineSet
773 691 m 1,0,1
 621 596 621 596 532.5 537 c 128,-1,2
 444 478 444 478 377.5 415 c 128,-1,3
 311 352 311 352 245.5 264 c 128,-1,4
 180 176 180 176 75 24 c 0,5,6
 59 0 59 0 52 0 c 1,7,-1
 50 2 l 1,8,9
 50 142 50 142 178 316 c 128,-1,10
 306 490 306 490 397 586 c 1,11,12
 254 643 254 643 248 745 c 0,13,14
 247 754 247 754 247 763 c 0,15,16
 247 856 247 856 303 948 c 0,17,18
 364 1048 364 1048 455.5 1123 c 128,-1,19
 547 1198 547 1198 598 1202 c 1,20,-1
 612 1202 l 2,21,22
 673 1202 673 1202 700 1172 c 1,23,24
 728 1139 728 1139 728 1103 c 2,25,-1
 728 1098 l 1,26,27
 726 1059 726 1059 699 1033 c 0,28,29
 683 1018 683 1018 664 1018 c 0,30,31
 648 1018 648 1018 629 1028 c 0,32,33
 566 1060 566 1060 519 1060 c 0,34,35
 464 1060 464 1060 432 1017 c 0,36,37
 386 955 386 955 386 921 c 0,38,39
 386 911 386 911 390 903 c 0,40,41
 425 834 425 834 518 801 c 0,42,43
 552 789 552 789 587 789 c 0,44,45
 648 789 648 789 714 826 c 0,46,47
 770 857 770 857 818 888.5 c 128,-1,48
 866 920 866 920 925 941 c 1,49,50
 907 863 907 863 866 805.5 c 128,-1,51
 825 748 825 748 773 691 c 1,0,1
EndSplineSet
EndChar
StartChar: uni08F1
Encoding: 2289 2289 69
Width: 0
GlyphClass: 4
Flags: W
AnchorPoint: "arMarkMark.above" 0 0 mark 0
AnchorPoint: "Anchor-14" 0 0 mark 0
LayerCount: 2
Fore
SplineSet
155 33 m 1,0,1
 132 45 132 45 114 58.5 c 128,-1,2
 96 72 96 72 88 91 c 0,3,4
 83 102 83 102 83 115 c 0,5,6
 83 123 83 123 85 132 c 0,7,8
 90 154 90 154 116 185 c 0,9,10
 140 214 140 214 166 225 c 0,11,12
 178 230 178 230 188 230 c 0,13,14
 200 230 200 230 209 224 c 0,15,16
 226 213 226 213 230 179 c 1,17,-1
 230 168 l 2,18,19
 230 136 230 136 213 84 c 1,20,21
 220 79 220 79 225.5 72.5 c 128,-1,22
 231 66 231 66 232 57 c 1,23,-1
 232 55 l 2,24,25
 232 46 232 46 228 33 c 0,26,27
 223 19 223 19 210 -1 c 1,28,29
 204 6 204 6 197.5 10 c 128,-1,30
 191 14 191 14 183 19 c 1,31,32
 155 -18 155 -18 127 -42.5 c 128,-1,33
 99 -67 99 -67 66.5 -85 c 128,-1,34
 34 -103 34 -103 -5 -116 c 128,-1,35
 -44 -129 -44 -129 -91 -142 c 1,36,-1
 -102 -143 l 1,37,38
 -102 -141 -102 -141 -87 -132 c 0,39,40
 -72 -122 -72 -122 -47.5 -106.5 c 128,-1,41
 -23 -91 -23 -91 6.5 -72 c 128,-1,42
 36 -53 36 -53 64.5 -34 c 128,-1,43
 93 -15 93 -15 118 2.5 c 128,-1,44
 143 20 143 20 155 33 c 1,0,1
184 99 m 1,45,46
 188 119 188 119 188 132 c 0,47,48
 188 148 188 148 183 155 c 0,49,50
 174 168 174 168 162 168 c 2,51,-1
 159 168 l 1,52,53
 145 166 145 166 135 155 c 0,54,55
 129 148 129 148 129 142 c 0,56,57
 129 137 129 137 132 132 c 1,58,59
 143 121 143 121 156.5 113.5 c 128,-1,60
 170 106 170 106 184 99 c 1,45,46
-20 33 m 1,61,62
 -42 45 -42 45 -60.5 58.5 c 128,-1,63
 -79 72 -79 72 -87 91 c 0,64,65
 -92 102 -92 102 -92 115 c 0,66,67
 -92 123 -92 123 -90 132 c 0,68,69
 -85 154 -85 154 -60 185 c 1,70,71
 -35 214 -35 214 -9 225 c 0,72,73
 4 230 4 230 14 230 c 0,74,75
 25 230 25 230 34 224 c 0,76,77
 51 213 51 213 55 179 c 0,78,79
 56 173 56 173 56 167 c 0,80,81
 56 135 56 135 39 84 c 1,82,83
 46 79 46 79 51.5 72.5 c 128,-1,84
 57 66 57 66 58 57 c 1,85,-1
 58 55 l 2,86,87
 58 46 58 46 53 33 c 0,88,89
 47 19 47 19 35 -1 c 1,90,91
 28 6 28 6 22 10 c 128,-1,92
 16 14 16 14 7 19 c 1,93,94
 -20 -18 -20 -18 -47.5 -42.5 c 128,-1,95
 -75 -67 -75 -67 -108.5 -85 c 128,-1,96
 -142 -103 -142 -103 -180 -116 c 128,-1,97
 -218 -129 -218 -129 -265 -142 c 1,98,-1
 -276 -143 l 1,99,100
 -276 -141 -276 -141 -262 -132 c 0,101,102
 -247 -122 -247 -122 -222.5 -106.5 c 128,-1,103
 -198 -91 -198 -91 -168 -72 c 128,-1,104
 -138 -53 -138 -53 -109.5 -34 c 128,-1,105
 -81 -15 -81 -15 -56.5 2.5 c 128,-1,106
 -32 20 -32 20 -20 33 c 1,61,62
10 99 m 1,107,108
 14 117 14 117 14 130 c 0,109,110
 14 136 14 136 13 141 c 0,111,112
 10 156 10 156 2 163 c 0,113,114
 -4 168 -4 168 -12 168 c 2,115,-1
 -16 168 l 1,116,117
 -26 166 -26 166 -34 160.5 c 128,-1,118
 -42 155 -42 155 -45 148 c 0,119,120
 -46 145 -46 145 -46 143 c 0,121,122
 -46 137 -46 137 -42 132 c 0,123,124
 -31 121 -31 121 -18 113.5 c 128,-1,125
 -5 106 -5 106 10 99 c 1,107,108
EndSplineSet
EndChar
StartChar: uniFB51
Encoding: 64337 64337 161
Width: 217
GlyphClass: 2
Flags: W
LayerCount: 2
Fore
SplineSet
137 1167 m 1,0,-1
 266 1407 l 1,1,-1
 344 282 l 1,2,-1
 217 0 l 1,3,-1
 137 1167 l 1,0,-1
390 1660 m 0,4,5
 379 1683 379 1683 360 1683 c 0,6,7
 348 1683 348 1683 333 1674 c 0,8,9
 307 1660 307 1660 287 1640.5 c 128,-1,10
 267 1621 267 1621 247 1601 c 1,11,12
 286 1608 286 1608 322 1617 c 128,-1,13
 358 1626 358 1626 389 1641 c 0,14,15
 393 1643 393 1643 393 1648 c 256,16,17
 393 1653 393 1653 390 1660 c 0,4,5
203 1594 m 1,18,19
 220 1597 220 1597 219 1597 c 1,20,21
 293 1682 293 1682 350 1735 c 0,22,23
 367 1750 367 1750 401 1757 c 0,24,25
 409 1758 409 1758 416 1758 c 0,26,27
 439 1758 439 1758 454 1742 c 1,28,29
 467 1726 467 1726 467 1709 c 0,30,31
 467 1697 467 1697 461 1685 c 0,32,33
 445 1654 445 1654 427 1630 c 0,34,35
 381 1569 381 1569 283 1532 c 1,36,37
 221 1506 221 1506 189 1506 c 0,38,39
 181 1506 181 1506 175 1508 c 0,40,41
 145 1516 145 1516 129 1528 c 0,42,43
 117 1537 117 1537 103 1537 c 0,44,45
 99 1537 99 1537 94 1536 c 0,46,47
 75 1532 75 1532 18 1476 c 0,48,49
 15 1472 15 1472 8 1468 c 0,50,51
 4 1466 4 1466 2 1466 c 256,52,53
 0 1466 0 1466 0 1469 c 0,54,55
 15 1529 15 1529 82 1594 c 0,56,57
 116 1626 116 1626 146 1626 c 256,58,59
 176 1626 176 1626 203 1594 c 1,18,19
EndSplineSet
EndChar
StartChar: uniFB57
Encoding: 64343 64343 163
Width: 1257
GlyphClass: 2
Flags: W
LayerCount: 2
Fore
SplineSet
18 213 m 0,0,1
 -2 267 -2 267 -2 326 c 0,2,3
 -2 409 -2 409 39 501 c 0,4,5
 109 657 109 657 184 776 c 1,6,7
 197 794 197 794 211 794 c 0,8,9
 216 794 216 794 221 792 c 0,10,11
 232 787 232 787 232 774 c 0,12,13
 232 765 232 765 226 751 c 1,14,15
 149 609 149 609 145 513 c 1,16,-1
 145 498 l 2,17,18
 145 413 145 413 189 360 c 0,19,20
 241 297 241 297 370 277 c 0,21,22
 469 261 469 261 578 261 c 0,23,24
 609 261 609 261 642 262 c 0,25,26
 786 268 786 268 916 293.5 c 128,-1,27
 1046 319 1046 319 1100 349 c 0,28,29
 1159 381 1159 381 1187 449 c 1,30,31
 1192 456 1192 456 1195 456 c 256,32,33
 1198 456 1198 456 1198 445 c 0,34,35
 1198 426 1198 426 1196 421 c 0,36,37
 1173 349 1173 349 1128 241.5 c 128,-1,38
 1083 134 1083 134 1006 53 c 1,39,-1
 1004 53 l 2,40,41
 997 53 997 53 997 64 c 0,42,43
 997 73 997 73 1001 88 c 1,44,45
 908 50 908 50 759 24 c 0,46,47
 631 1 631 1 502 1 c 0,48,49
 480 1 480 1 459 2 c 0,50,51
 308 6 308 6 183.5 53.5 c 128,-1,52
 59 101 59 101 18 213 c 0,0,1
781 -284 m 1,53,54
 751 -347 751 -347 711.5 -405.5 c 128,-1,55
 672 -464 672 -464 631 -517 c 0,56,57
 624 -526 624 -526 617 -526 c 0,58,59
 608 -526 608 -526 600 -506 c 0,60,61
 557 -400 557 -400 505 -400 c 2,62,-1
 499 -400 l 1,63,64
 443 -407 443 -407 390.5 -466.5 c 128,-1,65
 338 -526 338 -526 295.5 -603 c 128,-1,66
 253 -680 253 -680 234 -706 c 1,67,-1
 233 -617 l 1,68,-1
 235 -614 l 1,69,70
 261 -563 261 -563 313.5 -473 c 128,-1,71
 366 -383 366 -383 430 -298 c 0,72,73
 493 -214 493 -214 563 -165 c 1,74,75
 592 -146 592 -146 621 -146 c 0,76,77
 664 -146 664 -146 709 -187 c 1,78,79
 749 -226 749 -226 781 -284 c 1,53,54
EndSplineSet
EndChar
StartChar: uniFB58
Encoding: 64344 64344 164
Width: 604
GlyphClass: 2
Flags: W
LayerCount: 2
Fore
SplineSet
562 506 m 0,0,1
 550 406 550 406 494.5 296 c 128,-1,2
 439 186 439 186 364 121 c 0,3,4
 298 63 298 63 210.5 37.5 c 128,-1,5
 123 12 123 12 0 0 c 1,6,-1
 119 275 l 1,7,-1
 121 275 l 1,8,9
 208 285 208 285 281.5 299 c 128,-1,10
 355 313 355 313 412 352 c 1,11,12
 411 394 411 394 390 463.5 c 128,-1,13
 369 533 369 533 349 593 c 1,14,-1
 506 825 l 1,15,-1
 541 733 l 2,16,17
 566 667 566 667 566 580 c 0,18,19
 566 545 566 545 562 506 c 0,0,1
474 -227 m 1,20,21
 444 -290 444 -290 404.5 -348.5 c 128,-1,22
 365 -407 365 -407 324 -460 c 0,23,24
 317 -469 317 -469 310 -469 c 0,25,26
 301 -469 301 -469 293 -449 c 0,27,28
 250 -343 250 -343 198 -343 c 2,29,-1
 192 -343 l 1,30,31
 136 -350 136 -350 83.5 -409.5 c 128,-1,32
 31 -469 31 -469 -11.5 -546 c 128,-1,33
 -54 -623 -54 -623 -73 -649 c 1,34,-1
 -74 -560 l 1,35,-1
 -72 -557 l 1,36,37
 -46 -506 -46 -506 6.5 -416 c 128,-1,38
 59 -326 59 -326 123 -241 c 0,39,40
 186 -157 186 -157 256 -108 c 1,41,42
 285 -89 285 -89 314 -89 c 0,43,44
 357 -89 357 -89 402 -130 c 1,45,46
 442 -169 442 -169 474 -227 c 1,20,21
EndSplineSet
EndChar
StartChar: uniFB59
Encoding: 64345 64345 165
Width: 419
GlyphClass: 2
Flags: W
LayerCount: 2
Fore
SplineSet
423 50 m 1,0,-1
 421 50 l 2,1,2
 412 50 412 50 412 61 c 0,3,4
 412 69 412 69 418 85 c 1,5,6
 348 56 348 56 218.5 32 c 128,-1,7
 89 8 89 8 0 0 c 1,8,-1
 119 275 l 1,9,10
 157 278 157 278 292 287 c 128,-1,11
 427 296 427 296 517 346 c 0,12,13
 577 380 577 380 604 446 c 1,14,15
 609 453 609 453 612 453 c 256,16,17
 615 453 615 453 615 442 c 0,18,19
 615 423 615 423 613 418 c 0,20,21
 590 346 590 346 545 239 c 128,-1,22
 500 132 500 132 423 50 c 1,0,-1
474 -227 m 1,23,24
 444 -290 444 -290 404.5 -348.5 c 128,-1,25
 365 -407 365 -407 324 -460 c 0,26,27
 317 -469 317 -469 310 -469 c 0,28,29
 301 -469 301 -469 293 -449 c 0,30,31
 250 -343 250 -343 198 -343 c 2,32,-1
 192 -343 l 1,33,34
 136 -350 136 -350 83.5 -409.5 c 128,-1,35
 31 -469 31 -469 -11.5 -546 c 128,-1,36
 -54 -623 -54 -623 -73 -649 c 1,37,-1
 -74 -560 l 1,38,-1
 -72 -557 l 1,39,40
 -46 -506 -46 -506 6.5 -416 c 128,-1,41
 59 -326 59 -326 123 -241 c 0,42,43
 186 -157 186 -157 256 -108 c 1,44,45
 285 -89 285 -89 314 -89 c 0,46,47
 357 -89 357 -89 402 -130 c 1,48,49
 442 -169 442 -169 474 -227 c 1,23,24
EndSplineSet
EndChar
StartChar: uniFB67
Encoding: 64359 64359 167
Width: 1257
GlyphClass: 2
Flags: W
LayerCount: 2
Fore
SplineSet
18 213 m 0,0,1
 -2 267 -2 267 -2 326 c 0,2,3
 -2 409 -2 409 39 501 c 0,4,5
 109 657 109 657 184 776 c 1,6,7
 197 794 197 794 211 794 c 0,8,9
 216 794 216 794 221 792 c 0,10,11
 232 787 232 787 232 774 c 0,12,13
 232 765 232 765 226 751 c 1,14,15
 149 609 149 609 145 513 c 1,16,-1
 145 498 l 2,17,18
 145 413 145 413 189 360 c 0,19,20
 241 297 241 297 370 277 c 0,21,22
 469 261 469 261 578 261 c 0,23,24
 609 261 609 261 642 262 c 0,25,26
 786 268 786 268 916 293.5 c 128,-1,27
 1046 319 1046 319 1100 349 c 0,28,29
 1159 381 1159 381 1187 449 c 1,30,31
 1192 456 1192 456 1195 456 c 256,32,33
 1198 456 1198 456 1198 445 c 0,34,35
 1198 426 1198 426 1196 421 c 0,36,37
 1173 349 1173 349 1128 241.5 c 128,-1,38
 1083 134 1083 134 1006 53 c 1,39,-1
 1004 53 l 2,40,41
 997 53 997 53 997 64 c 0,42,43
 997 73 997 73 1001 88 c 1,44,45
 908 50 908 50 759 24 c 0,46,47
 631 1 631 1 502 1 c 0,48,49
 480 1 480 1 459 2 c 0,50,51
 308 6 308 6 183.5 53.5 c 128,-1,52
 59 101 59 101 18 213 c 0,0,1
836 884 m 1,53,54
 822 907 822 907 801 907 c 0,55,56
 788 907 788 907 772 899 c 0,57,58
 744 884 744 884 722 862 c 128,-1,59
 700 840 700 840 679 818 c 1,60,61
 721 826 721 826 760.5 836 c 128,-1,62
 800 846 800 846 834 863 c 0,63,64
 839 865 839 865 839 872 c 0,65,66
 839 877 839 877 836 884 c 1,53,54
874 866 m 0,67,68
 802 769 802 769 638 725 c 1,69,70
 599 716 599 716 562 716 c 2,71,-1
 554 716 l 1,72,73
 515 719 515 719 486.5 739.5 c 128,-1,74
 458 760 458 760 413 787 c 1,75,76
 409 791 409 791 409 793 c 0,77,78
 409 796 409 796 417 796 c 0,79,80
 440 795 440 795 462 795 c 0,81,82
 500 795 500 795 536 798 c 0,83,84
 593 803 593 803 646 812 c 1,85,86
 722 902 722 902 792 966 c 0,87,88
 810 983 810 983 848 990 c 0,89,90
 856 992 856 992 864 992 c 0,91,92
 890 992 890 992 905 973 c 1,93,94
 920 956 920 956 920 940 c 0,95,96
 920 928 920 928 912 918 c 0,97,98
 894 893 894 893 874 866 c 0,67,68
647 1097 m 1,99,-1
 706 1191 l 1,100,-1
 723 935 l 1,101,-1
 664 841 l 1,102,-1
 647 1097 l 1,99,-1
EndSplineSet
EndChar
StartChar: uniFB68
Encoding: 64360 64360 168
Width: 604
GlyphClass: 2
Flags: W
LayerCount: 2
Fore
SplineSet
562 506 m 0,0,1
 550 406 550 406 494.5 296 c 128,-1,2
 439 186 439 186 364 121 c 0,3,4
 298 63 298 63 210.5 37.5 c 128,-1,5
 123 12 123 12 0 0 c 1,6,-1
 119 275 l 1,7,-1
 121 275 l 1,8,9
 208 285 208 285 281.5 299 c 128,-1,10
 355 313 355 313 412 352 c 1,11,12
 411 394 411 394 390 463.5 c 128,-1,13
 369 533 369 533 349 593 c 1,14,-1
 506 825 l 1,15,-1
 541 733 l 2,16,17
 566 667 566 667 566 580 c 0,18,19
 566 545 566 545 562 506 c 0,0,1
488 985 m 1,20,21
 474 1008 474 1008 453 1008 c 0,22,23
 440 1008 440 1008 424 1000 c 0,24,25
 396 985 396 985 374 963 c 128,-1,26
 352 941 352 941 331 919 c 1,27,28
 373 927 373 927 412.5 937 c 128,-1,29
 452 947 452 947 486 964 c 0,30,31
 491 966 491 966 491 973 c 0,32,33
 491 978 491 978 488 985 c 1,20,21
526 967 m 0,34,35
 454 870 454 870 290 826 c 1,36,37
 251 817 251 817 214 817 c 2,38,-1
 206 817 l 1,39,40
 167 820 167 820 138.5 840.5 c 128,-1,41
 110 861 110 861 65 888 c 1,42,43
 61 892 61 892 61 894 c 0,44,45
 61 897 61 897 69 897 c 0,46,47
 92 896 92 896 114 896 c 0,48,49
 152 896 152 896 188 899 c 0,50,51
 245 904 245 904 298 913 c 1,52,53
 374 1003 374 1003 444 1067 c 0,54,55
 462 1084 462 1084 500 1091 c 0,56,57
 508 1093 508 1093 516 1093 c 0,58,59
 542 1093 542 1093 557 1074 c 1,60,61
 572 1057 572 1057 572 1041 c 0,62,63
 572 1029 572 1029 564 1019 c 0,64,65
 546 994 546 994 526 967 c 0,34,35
299 1198 m 1,66,-1
 358 1292 l 1,67,-1
 375 1036 l 1,68,-1
 316 942 l 1,69,-1
 299 1198 l 1,66,-1
EndSplineSet
EndChar
StartChar: uniFB69
Encoding: 64361 64361 169
Width: 419
GlyphClass: 2
Flags: W
LayerCount: 2
Fore
SplineSet
423 50 m 1,0,-1
 421 50 l 2,1,2
 412 50 412 50 412 61 c 0,3,4
 412 69 412 69 418 85 c 1,5,6
 348 56 348 56 218.5 32 c 128,-1,7
 89 8 89 8 0 0 c 1,8,-1
 119 275 l 1,9,10
 157 278 157 278 292 287 c 128,-1,11
 427 296 427 296 517 346 c 0,12,13
 577 380 577 380 604 446 c 1,14,15
 609 453 609 453 612 453 c 256,16,17
 615 453 615 453 615 442 c 0,18,19
 615 423 615 423 613 418 c 0,20,21
 590 346 590 346 545 239 c 128,-1,22
 500 132 500 132 423 50 c 1,0,-1
615 765 m 1,23,24
 601 788 601 788 580 788 c 0,25,26
 567 788 567 788 551 780 c 0,27,28
 523 765 523 765 501 743 c 128,-1,29
 479 721 479 721 458 699 c 1,30,31
 500 707 500 707 539.5 717 c 128,-1,32
 579 727 579 727 613 744 c 0,33,34
 618 746 618 746 618 753 c 0,35,36
 618 758 618 758 615 765 c 1,23,24
653 747 m 0,37,38
 581 650 581 650 417 606 c 1,39,40
 378 597 378 597 341 597 c 2,41,-1
 333 597 l 1,42,43
 294 600 294 600 265.5 620.5 c 128,-1,44
 237 641 237 641 192 668 c 1,45,46
 188 672 188 672 188 674 c 0,47,48
 188 677 188 677 196 677 c 0,49,50
 219 676 219 676 241 676 c 0,51,52
 279 676 279 676 315 679 c 0,53,54
 372 684 372 684 425 693 c 1,55,56
 501 783 501 783 571 847 c 0,57,58
 589 864 589 864 627 871 c 0,59,60
 635 873 635 873 643 873 c 0,61,62
 669 873 669 873 684 854 c 1,63,64
 699 837 699 837 699 821 c 0,65,66
 699 809 699 809 691 799 c 0,67,68
 673 774 673 774 653 747 c 0,37,38
426 978 m 1,69,-1
 485 1072 l 1,70,-1
 502 816 l 1,71,-1
 443 722 l 1,72,-1
 426 978 l 1,69,-1
EndSplineSet
EndChar
StartChar: uniFB6C
Encoding: 64364 64364 172
Width: 800
GlyphClass: 2
Flags: W
LayerCount: 2
Fore
SplineSet
590 266 m 1,0,1
 506 170 506 170 406 117 c 128,-1,2
 306 64 306 64 197 41 c 2,3,-1
 0 0 l 1,4,-1
 128 277 l 1,5,6
 239 294 239 294 378.5 329 c 128,-1,7
 518 364 518 364 616 442 c 1,8,-1
 591 516 l 2,9,10
 571 576 571 576 556 576 c 0,11,12
 552 576 552 576 549 572 c 1,13,14
 517 544 517 544 465 528 c 0,15,16
 445 522 445 522 425 522 c 0,17,18
 394 522 394 522 364 537 c 0,19,20
 335 551 335 551 334 593 c 0,21,22
 333 596 333 596 333 599 c 0,23,24
 333 636 333 636 349 664 c 0,25,26
 382 726 382 726 413.5 792.5 c 128,-1,27
 445 859 445 859 487 916 c 0,28,29
 518 958 518 958 553 958 c 0,30,31
 575 958 575 958 599 941 c 0,32,33
 660 897 660 897 699 822 c 0,34,35
 737 747 737 747 737 656 c 0,36,37
 737 597 737 597 721 532 c 0,38,39
 680 366 680 366 590 266 c 1,0,1
835 1423 m 1,40,41
 805 1360 805 1360 765.5 1301.5 c 128,-1,42
 726 1243 726 1243 685 1190 c 0,43,44
 678 1181 678 1181 671 1181 c 0,45,46
 662 1181 662 1181 654 1201 c 0,47,48
 611 1307 611 1307 559 1307 c 2,49,-1
 553 1307 l 1,50,51
 497 1300 497 1300 444.5 1240.5 c 128,-1,52
 392 1181 392 1181 349.5 1104 c 128,-1,53
 307 1027 307 1027 288 1001 c 1,54,-1
 287 1090 l 1,55,-1
 289 1093 l 1,56,57
 315 1144 315 1144 367.5 1234 c 128,-1,58
 420 1324 420 1324 484 1409 c 0,59,60
 547 1493 547 1493 617 1542 c 1,61,62
 646 1561 646 1561 675 1561 c 0,63,64
 718 1561 718 1561 763 1520 c 1,65,66
 803 1481 803 1481 835 1423 c 1,40,41
EndSplineSet
EndChar
StartChar: uniFB6D
Encoding: 64365 64365 173
Width: 569
GlyphClass: 2
Flags: W
LayerCount: 2
Fore
SplineSet
682 600 m 1,0,1
 633 584 633 584 604.5 546.5 c 128,-1,2
 576 509 576 509 549 472 c 0,3,4
 537 456 537 456 537 439 c 0,5,6
 537 427 537 427 544 415 c 0,7,8
 559 385 559 385 583 373 c 1,9,10
 647 378 647 378 728 415 c 0,11,12
 759 430 759 430 759 465 c 0,13,14
 759 484 759 484 749 511 c 0,15,16
 721 584 721 584 682 600 c 1,0,1
480 113 m 0,17,18
 408 93 408 93 338 74.5 c 128,-1,19
 268 56 268 56 199 42 c 2,20,-1
 0 0 l 1,21,-1
 128 276 l 1,22,23
 199 287 199 287 268.5 297 c 128,-1,24
 338 307 338 307 408 320 c 1,25,26
 461 439 461 439 525.5 549.5 c 128,-1,27
 590 660 590 660 669 752 c 0,28,29
 752 850 752 850 827 850 c 0,30,31
 855 850 855 850 882 836 c 0,32,33
 948 801 948 801 948 706 c 0,34,35
 948 659 948 659 932 598 c 1,36,37
 872 434 872 434 763 298 c 128,-1,38
 654 162 654 162 480 113 c 0,17,18
1073 1423 m 1,39,40
 1043 1360 1043 1360 1003.5 1301.5 c 128,-1,41
 964 1243 964 1243 923 1190 c 0,42,43
 916 1181 916 1181 909 1181 c 0,44,45
 900 1181 900 1181 892 1201 c 0,46,47
 849 1307 849 1307 797 1307 c 2,48,-1
 791 1307 l 1,49,50
 735 1300 735 1300 682.5 1240.5 c 128,-1,51
 630 1181 630 1181 587.5 1104 c 128,-1,52
 545 1027 545 1027 526 1001 c 1,53,-1
 525 1090 l 1,54,-1
 527 1093 l 1,55,56
 553 1144 553 1144 605.5 1234 c 128,-1,57
 658 1324 658 1324 722 1409 c 0,58,59
 785 1493 785 1493 855 1542 c 1,60,61
 884 1561 884 1561 913 1561 c 0,62,63
 956 1561 956 1561 1001 1520 c 1,64,65
 1041 1481 1041 1481 1073 1423 c 1,39,40
EndSplineSet
EndChar
StartChar: uniFB7B
Encoding: 64379 64379 175
Width: 1412
GlyphClass: 2
Flags: W
LayerCount: 2
Fore
SplineSet
143 -238 m 1,0,1
 247 -355 247 -355 392 -405 c 128,-1,2
 537 -455 537 -455 697 -460 c 0,3,4
 723 -461 723 -461 751 -461 c 0,5,6
 883 -461 883 -461 1016 -439 c 0,7,8
 1176 -412 1176 -412 1310 -378 c 0,9,10
 1328 -373 1328 -373 1335 -373 c 0,11,12
 1339 -373 1339 -373 1339 -375 c 0,13,14
 1339 -376 1339 -376 1338 -378 c 0,15,16
 1213 -529 1213 -529 1007.5 -624.5 c 128,-1,17
 802 -720 802 -720 597 -734 c 0,18,19
 566 -736 566 -736 537 -736 c 0,20,21
 367 -736 367 -736 227 -667 c 1,22,23
 62 -587 62 -587 20 -386 c 0,24,25
 -1 -284 -1 -284 -1 -193 c 0,26,27
 -1 -97 -1 -97 23 -12 c 0,28,29
 68 153 68 153 164 293.5 c 128,-1,30
 260 434 260 434 386.5 558 c 128,-1,31
 513 682 513 682 632 807 c 1,32,33
 612 822 612 822 451 872 c 128,-1,34
 290 922 290 922 245 939 c 0,35,36
 242 940 242 940 242 945 c 0,37,38
 242 967 242 967 293 1067 c 0,39,40
 355 1190 355 1190 361 1201 c 1,41,42
 479 1169 479 1169 588.5 1138.5 c 128,-1,43
 698 1108 698 1108 819 1034 c 1,44,45
 840 1019 840 1019 840 1000 c 0,46,47
 840 994 840 994 838 988 c 0,48,49
 805 893 805 893 752 813 c 0,50,51
 704 741 704 741 572.5 600 c 128,-1,52
 441 459 441 459 318 301.5 c 128,-1,53
 195 144 195 144 128 -3 c 0,54,55
 97 -70 97 -70 97 -124 c 0,56,57
 97 -190 97 -190 143 -238 c 1,0,1
937 202 m 1,58,59
 907 139 907 139 867.5 80.5 c 128,-1,60
 828 22 828 22 787 -31 c 0,61,62
 780 -40 780 -40 773 -40 c 0,63,64
 764 -40 764 -40 756 -20 c 0,65,66
 713 86 713 86 661 86 c 2,67,-1
 655 86 l 1,68,69
 599 79 599 79 546.5 19.5 c 128,-1,70
 494 -40 494 -40 451.5 -117 c 128,-1,71
 409 -194 409 -194 390 -220 c 1,72,-1
 389 -131 l 1,73,-1
 391 -128 l 1,74,75
 417 -77 417 -77 469.5 13 c 128,-1,76
 522 103 522 103 586 188 c 0,77,78
 649 272 649 272 719 321 c 1,79,80
 748 340 748 340 777 340 c 0,81,82
 820 340 820 340 865 299 c 1,83,84
 905 260 905 260 937 202 c 1,58,59
EndSplineSet
EndChar
StartChar: uniFB7C
Encoding: 64380 64380 176
Width: 1143
GlyphClass: 2
Flags: W
LayerCount: 2
Fore
SplineSet
765 405 m 0,0,1
 734 477 734 477 691 511 c 0,2,3
 660 535 660 535 631 535 c 0,4,5
 601 535 601 535 573 510 c 0,6,7
 531 473 531 473 508.5 424.5 c 128,-1,8
 486 376 486 376 465 324 c 1,9,-1
 755 381 l 2,10,11
 767 384 767 384 767 394 c 0,12,13
 767 399 767 399 765 405 c 0,0,1
128 277 m 1,14,-1
 130 277 l 1,15,-1
 134 278 l 1,16,-1
 414 320 l 1,17,18
 433 374 433 374 471 463.5 c 128,-1,19
 509 553 509 553 561.5 631 c 128,-1,20
 614 709 614 709 679 754 c 0,21,22
 715 778 715 778 754 778 c 0,23,24
 785 778 785 778 818 762 c 0,25,26
 878 733 878 733 913 669.5 c 128,-1,27
 948 606 948 606 971 529 c 1,28,29
 999 498 999 498 1036 498 c 0,30,31
 1061 498 1061 498 1089 512 c 1,32,-1
 958 230 l 1,33,34
 811 184 811 184 671 153.5 c 128,-1,35
 531 123 531 123 369 82 c 1,36,37
 359 62 359 62 351 23.5 c 128,-1,38
 343 -15 343 -15 317 -24 c 0,39,40
 313 -25 313 -25 310 -25 c 0,41,42
 297 -25 297 -25 297 -12 c 0,43,44
 297 -9 297 -9 298 -5 c 0,45,46
 300 7 300 7 305 28.5 c 128,-1,47
 310 50 310 50 313 66 c 1,48,49
 265 56 265 56 199 44 c 1,50,-1
 198 41 l 1,51,52
 132 29 132 29 67 16 c 0,53,54
 61 14 61 14 56 12.5 c 128,-1,55
 51 11 51 11 46 10 c 1,56,-1
 46 11 l 1,57,58
 34 8 34 8 23 5.5 c 128,-1,59
 12 3 12 3 0 1 c 1,60,-1
 128 277 l 1,14,-1
815 -149 m 1,61,62
 785 -212 785 -212 745.5 -270.5 c 128,-1,63
 706 -329 706 -329 665 -382 c 0,64,65
 658 -391 658 -391 651 -391 c 0,66,67
 642 -391 642 -391 634 -371 c 0,68,69
 591 -265 591 -265 539 -265 c 2,70,-1
 533 -265 l 1,71,72
 477 -272 477 -272 424.5 -331.5 c 128,-1,73
 372 -391 372 -391 329.5 -468 c 128,-1,74
 287 -545 287 -545 268 -571 c 1,75,-1
 267 -482 l 1,76,-1
 269 -479 l 1,77,78
 295 -428 295 -428 347.5 -338 c 128,-1,79
 400 -248 400 -248 464 -163 c 0,80,81
 527 -79 527 -79 597 -30 c 1,82,83
 626 -11 626 -11 655 -11 c 0,84,85
 698 -11 698 -11 743 -52 c 1,86,87
 783 -91 783 -91 815 -149 c 1,61,62
EndSplineSet
EndChar
StartChar: uniFB7D
Encoding: 64381 64381 177
Width: 1052
GlyphClass: 2
Flags: W
LayerCount: 2
Fore
SplineSet
805 488 m 0,0,1
 822 496 822 496 827 506 c 1,2,3
 823 524 823 524 799 535 c 1,4,5
 721 563 721 563 638 580 c 128,-1,6
 555 597 555 597 469 617 c 1,7,8
 460 618 460 618 460 629 c 0,9,10
 460 639 460 639 467 656 c 0,11,12
 491 714 491 714 519.5 769.5 c 128,-1,13
 548 825 548 825 577 885 c 1,14,-1
 579 885 l 1,15,16
 648 868 648 868 787 836 c 128,-1,17
 926 804 926 804 982 761 c 0,18,19
 998 748 998 748 1000 725 c 1,20,-1
 1000 715 l 2,21,22
 1000 678 1000 678 987 652 c 0,23,24
 972 622 972 622 957 593 c 0,25,26
 932 541 932 541 903.5 495.5 c 128,-1,27
 875 450 875 450 845 403 c 0,28,29
 695 175 695 175 477.5 115 c 128,-1,30
 260 55 260 55 47 11 c 0,31,32
 32 8 32 8 0 0 c 1,33,-1
 128 276 l 1,34,-1
 130 277 l 1,35,-1
 133 277 l 1,36,-1
 134 279 l 1,37,38
 332 308 332 308 462.5 341.5 c 128,-1,39
 593 375 593 375 805 488 c 0,0,1
784 -129 m 1,40,41
 754 -192 754 -192 714.5 -250.5 c 128,-1,42
 675 -309 675 -309 634 -362 c 0,43,44
 627 -371 627 -371 620 -371 c 0,45,46
 611 -371 611 -371 603 -351 c 0,47,48
 560 -245 560 -245 508 -245 c 2,49,-1
 502 -245 l 1,50,51
 446 -252 446 -252 393.5 -311.5 c 128,-1,52
 341 -371 341 -371 298.5 -448 c 128,-1,53
 256 -525 256 -525 237 -551 c 1,54,-1
 236 -462 l 1,55,-1
 238 -459 l 1,56,57
 264 -408 264 -408 316.5 -318 c 128,-1,58
 369 -228 369 -228 433 -143 c 0,59,60
 496 -59 496 -59 566 -10 c 1,61,62
 595 9 595 9 624 9 c 0,63,64
 667 9 667 9 712 -32 c 1,65,66
 752 -71 752 -71 784 -129 c 1,40,41
EndSplineSet
EndChar
StartChar: uniFB87
Encoding: 64391 64391 179
Width: 845
GlyphClass: 2
Flags: W
LayerCount: 2
Fore
SplineSet
767 249 m 1,0,1
 734 225 734 225 706.5 189.5 c 128,-1,2
 679 154 679 154 655 115 c 1,3,4
 590 16 590 16 502 3 c 0,5,6
 483 1 483 1 462 1 c 0,7,8
 397 1 397 1 319 25 c 0,9,10
 286 35 286 35 156.5 89 c 128,-1,11
 27 143 27 143 3 166 c 0,12,13
 -3 172 -3 172 -3 177 c 0,14,15
 -3 187 -3 187 17 192 c 0,16,17
 162 228 162 228 322 238.5 c 128,-1,18
 482 249 482 249 634 274 c 0,19,20
 690 284 690 284 734 323 c 1,21,22
 747 336 747 336 762 336 c 0,23,24
 766 336 766 336 770 335 c 0,25,26
 796 327 796 327 796 301 c 0,27,28
 796 292 796 292 793 281 c 0,29,30
 786 257 786 257 767 249 c 1,0,1
894 968 m 1,31,32
 864 905 864 905 824.5 846.5 c 128,-1,33
 785 788 785 788 744 735 c 0,34,35
 737 726 737 726 730 726 c 0,36,37
 721 726 721 726 713 746 c 0,38,39
 670 852 670 852 618 852 c 2,40,-1
 612 852 l 1,41,42
 556 845 556 845 503.5 785.5 c 128,-1,43
 451 726 451 726 408.5 649 c 128,-1,44
 366 572 366 572 347 546 c 1,45,-1
 346 635 l 1,46,-1
 348 638 l 1,47,48
 374 689 374 689 426.5 779 c 128,-1,49
 479 869 479 869 543 954 c 0,50,51
 606 1038 606 1038 676 1087 c 1,52,53
 705 1106 705 1106 734 1106 c 0,54,55
 777 1106 777 1106 822 1065 c 1,56,57
 862 1026 862 1026 894 968 c 1,31,32
EndSplineSet
EndChar
StartChar: uniFB88
Encoding: 64392 64392 180
Width: 752
GlyphClass: 2
Flags: W
LayerCount: 2
Fore
SplineSet
495 637 m 1,0,-1
 652 869 l 1,1,-1
 676 814 l 2,2,3
 699 759 699 759 708 671 c 0,4,5
 710 646 710 646 710 620 c 0,6,7
 710 551 710 551 694 472 c 1,8,9
 670 361 670 361 577 250 c 1,10,11
 508 170 508 170 424 126 c 0,12,13
 353 88 353 88 219 55 c 128,-1,14
 85 22 85 22 0 0 c 1,15,-1
 152 273 l 1,16,17
 243 289 243 289 362.5 322 c 128,-1,18
 482 355 482 355 559 389 c 1,19,-1
 558 388 l 1,20,-1
 558 395 l 2,21,22
 558 434 558 434 538 502 c 0,23,24
 516 575 516 575 495 637 c 1,0,-1
667 1134 m 1,25,26
 653 1157 653 1157 632 1157 c 0,27,28
 619 1157 619 1157 603 1149 c 0,29,30
 575 1134 575 1134 553 1112 c 128,-1,31
 531 1090 531 1090 510 1068 c 1,32,33
 552 1076 552 1076 591.5 1086 c 128,-1,34
 631 1096 631 1096 665 1113 c 0,35,36
 670 1115 670 1115 670 1122 c 0,37,38
 670 1127 670 1127 667 1134 c 1,25,26
705 1116 m 0,39,40
 633 1019 633 1019 469 975 c 1,41,42
 430 966 430 966 393 966 c 2,43,-1
 385 966 l 1,44,45
 346 969 346 969 317.5 989.5 c 128,-1,46
 289 1010 289 1010 244 1037 c 1,47,48
 240 1041 240 1041 240 1043 c 0,49,50
 240 1046 240 1046 248 1046 c 0,51,52
 271 1045 271 1045 293 1045 c 0,53,54
 331 1045 331 1045 367 1048 c 0,55,56
 424 1053 424 1053 477 1062 c 1,57,58
 553 1152 553 1152 623 1216 c 0,59,60
 641 1233 641 1233 679 1240 c 0,61,62
 687 1242 687 1242 695 1242 c 0,63,64
 721 1242 721 1242 736 1223 c 1,65,66
 751 1206 751 1206 751 1190 c 0,67,68
 751 1178 751 1178 743 1168 c 0,69,70
 725 1143 725 1143 705 1116 c 0,39,40
478 1347 m 1,71,-1
 537 1441 l 1,72,-1
 554 1185 l 1,73,-1
 495 1091 l 1,74,-1
 478 1347 l 1,71,-1
EndSplineSet
MultipleSubs2: "'fina' Terminal Forms in Arabic lookup 2 subtable" _.notdef_13 _.notdef_315
MultipleSubs2: "'isol' Isolated Forms in Arabic lookup 0 subtable" _.notdef_12 _.notdef_315
EndChar
StartChar: uniFB89
Encoding: 64393 64393 181
Width: 845
GlyphClass: 2
Flags: W
LayerCount: 2
Fore
SplineSet
767 249 m 1,0,1
 734 225 734 225 706.5 189.5 c 128,-1,2
 679 154 679 154 655 115 c 1,3,4
 590 16 590 16 502 3 c 0,5,6
 483 1 483 1 462 1 c 0,7,8
 397 1 397 1 319 25 c 0,9,10
 286 35 286 35 156.5 89 c 128,-1,11
 27 143 27 143 3 166 c 0,12,13
 -3 172 -3 172 -3 177 c 0,14,15
 -3 187 -3 187 17 192 c 0,16,17
 162 228 162 228 322 238.5 c 128,-1,18
 482 249 482 249 634 274 c 0,19,20
 690 284 690 284 734 323 c 1,21,22
 747 336 747 336 762 336 c 0,23,24
 766 336 766 336 770 335 c 0,25,26
 796 327 796 327 796 301 c 0,27,28
 796 292 796 292 793 281 c 0,29,30
 786 257 786 257 767 249 c 1,0,1
782 772 m 1,31,32
 768 795 768 795 747 795 c 0,33,34
 734 795 734 795 718 787 c 0,35,36
 690 772 690 772 668 750 c 128,-1,37
 646 728 646 728 625 706 c 1,38,39
 667 714 667 714 706.5 724 c 128,-1,40
 746 734 746 734 780 751 c 0,41,42
 785 753 785 753 785 760 c 0,43,44
 785 765 785 765 782 772 c 1,31,32
820 754 m 0,45,46
 748 657 748 657 584 613 c 1,47,48
 545 604 545 604 508 604 c 2,49,-1
 500 604 l 1,50,51
 461 607 461 607 432.5 627.5 c 128,-1,52
 404 648 404 648 359 675 c 1,53,54
 355 679 355 679 355 681 c 0,55,56
 355 684 355 684 363 684 c 0,57,58
 386 683 386 683 408 683 c 0,59,60
 446 683 446 683 482 686 c 0,61,62
 539 691 539 691 592 700 c 1,63,64
 668 790 668 790 738 854 c 0,65,66
 756 871 756 871 794 878 c 0,67,68
 802 880 802 880 810 880 c 0,69,70
 836 880 836 880 851 861 c 1,71,72
 866 844 866 844 866 828 c 0,73,74
 866 816 866 816 858 806 c 0,75,76
 840 781 840 781 820 754 c 0,45,46
593 985 m 1,77,-1
 652 1079 l 1,78,-1
 669 823 l 1,79,-1
 610 729 l 1,80,-1
 593 985 l 1,77,-1
EndSplineSet
EndChar
StartChar: uniFB8B
Encoding: 64395 64395 183
Width: 769
GlyphClass: 2
Flags: W
LayerCount: 2
Fore
SplineSet
717 339 m 1,0,1
 677 288 677 288 646 179 c 1,2,3
 611 66 611 66 529 29 c 0,4,5
 463 0 463 0 355 0 c 2,6,-1
 348 0 l 1,7,8
 313 1 313 1 173.5 17.5 c 128,-1,9
 34 34 34 34 6 49 c 0,10,11
 -3 54 -3 54 -3 60 c 0,12,13
 -3 68 -3 68 12 77 c 0,14,15
 141 152 141 152 292 206 c 128,-1,16
 443 260 443 260 582 326 c 0,17,18
 633 350 633 350 665 401 c 0,19,20
 677 422 677 422 697 422 c 0,21,22
 733 422 733 422 733 377 c 0,23,24
 733 351 733 351 717 339 c 1,0,1
917 1056 m 1,25,26
 887 993 887 993 847.5 934.5 c 128,-1,27
 808 876 808 876 767 823 c 0,28,29
 760 814 760 814 753 814 c 0,30,31
 744 814 744 814 736 834 c 0,32,33
 693 940 693 940 641 940 c 2,34,-1
 635 940 l 1,35,36
 579 933 579 933 526.5 873.5 c 128,-1,37
 474 814 474 814 431.5 737 c 128,-1,38
 389 660 389 660 370 634 c 1,39,-1
 369 723 l 1,40,-1
 371 726 l 1,41,42
 397 777 397 777 449.5 867 c 128,-1,43
 502 957 502 957 566 1042 c 0,44,45
 629 1126 629 1126 699 1175 c 1,46,47
 728 1194 728 1194 757 1194 c 0,48,49
 800 1194 800 1194 845 1153 c 1,50,51
 885 1114 885 1114 917 1056 c 1,25,26
EndSplineSet
EndChar
StartChar: uniFB8D
Encoding: 64397 64397 185
Width: 769
GlyphClass: 2
Flags: W
LayerCount: 2
Fore
SplineSet
717 339 m 1,0,1
 677 288 677 288 646 179 c 1,2,3
 611 66 611 66 529 29 c 0,4,5
 463 0 463 0 355 0 c 2,6,-1
 348 0 l 1,7,8
 313 1 313 1 173.5 17.5 c 128,-1,9
 34 34 34 34 6 49 c 0,10,11
 -3 54 -3 54 -3 60 c 0,12,13
 -3 68 -3 68 12 77 c 0,14,15
 141 152 141 152 292 206 c 128,-1,16
 443 260 443 260 582 326 c 0,17,18
 633 350 633 350 665 401 c 0,19,20
 677 422 677 422 697 422 c 0,21,22
 733 422 733 422 733 377 c 0,23,24
 733 351 733 351 717 339 c 1,0,1
791 884 m 1,25,26
 777 907 777 907 756 907 c 0,27,28
 743 907 743 907 727 899 c 0,29,30
 699 884 699 884 677 862 c 128,-1,31
 655 840 655 840 634 818 c 1,32,33
 676 826 676 826 715.5 836 c 128,-1,34
 755 846 755 846 789 863 c 0,35,36
 794 865 794 865 794 872 c 0,37,38
 794 877 794 877 791 884 c 1,25,26
829 866 m 0,39,40
 757 769 757 769 593 725 c 1,41,42
 554 716 554 716 517 716 c 2,43,-1
 509 716 l 1,44,45
 470 719 470 719 441.5 739.5 c 128,-1,46
 413 760 413 760 368 787 c 1,47,48
 364 791 364 791 364 793 c 0,49,50
 364 796 364 796 372 796 c 0,51,52
 395 795 395 795 417 795 c 0,53,54
 455 795 455 795 491 798 c 0,55,56
 548 803 548 803 601 812 c 1,57,58
 677 902 677 902 747 966 c 0,59,60
 765 983 765 983 803 990 c 0,61,62
 811 992 811 992 819 992 c 0,63,64
 845 992 845 992 860 973 c 1,65,66
 875 956 875 956 875 940 c 0,67,68
 875 928 875 928 867 918 c 0,69,70
 849 893 849 893 829 866 c 0,39,40
602 1097 m 1,71,-1
 661 1191 l 1,72,-1
 678 935 l 1,73,-1
 619 841 l 1,74,-1
 602 1097 l 1,71,-1
EndSplineSet
EndChar
StartChar: uniFB93
Encoding: 64403 64403 191
Width: 1941
GlyphClass: 2
Flags: W
LayerCount: 2
Fore
SplineSet
1012 465 m 1,0,-1
 971 1071 l 1,1,-1
 1099 1282 l 1,2,-1
 1161 1505 l 1,3,4
 1326 1602 1326 1602 1491.5 1699 c 128,-1,5
 1657 1796 1657 1796 1823 1893 c 1,6,7
 1831 1896 1831 1896 1836 1896 c 0,8,9
 1846 1896 1846 1896 1846 1885 c 0,10,11
 1846 1882 1846 1882 1845 1879 c 2,12,-1
 1778 1640 l 1,13,14
 1615 1544 1615 1544 1452 1449 c 128,-1,15
 1289 1354 1289 1354 1126 1259 c 1,16,-1
 1189 282 l 1,17,-1
 1048 0 l 1,18,-1
 1023 358 l 1,19,20
 946 243 946 243 800 149.5 c 128,-1,21
 654 56 654 56 499 20 c 0,22,23
 421 2 421 2 349 2 c 0,24,25
 276 2 276 2 208 21 c 0,26,27
 72 57 72 57 18 204 c 0,28,29
 -2 258 -2 258 -2 317 c 0,30,31
 -2 400 -2 400 39 492 c 0,32,33
 109 648 109 648 184 766 c 1,34,35
 197 784 197 784 211 784 c 0,36,37
 216 784 216 784 221 783 c 1,38,39
 232 778 232 778 232 765 c 0,40,41
 232 756 232 756 226 742 c 1,42,43
 167 634 167 634 127 536 c 0,44,45
 117 512 117 512 117 488 c 0,46,47
 117 413 117 413 212 339 c 0,48,49
 284 282 284 282 393 281 c 1,50,-1
 400 281 l 2,51,52
 505 281 505 281 616 309 c 0,53,54
 731 337 731 337 837.5 382.5 c 128,-1,55
 944 428 944 428 1012 465 c 1,0,-1
1181 1729 m 1,56,-1
 1795 2081 l 1,57,-1
 1732 1975 l 1,58,-1
 1118 1623 l 1,59,-1
 1181 1729 l 1,56,-1
EndSplineSet
EndChar
StartChar: uniFBA1
Encoding: 64417 64417 197
Width: 950
GlyphClass: 2
Flags: W
LayerCount: 2
Fore
SplineSet
716 258 m 1,0,1
 603 96 603 96 432 33 c 0,2,3
 343 1 343 1 268 1 c 0,4,5
 198 1 198 1 139 30 c 0,6,7
 17 89 17 89 0 285 c 0,8,9
 -1 301 -1 301 -1 317 c 0,10,11
 -1 509 -1 509 179 838 c 0,12,13
 189 857 189 857 198 857 c 0,14,15
 201 857 201 857 204 856 c 0,16,17
 210 853 210 853 210 843 c 0,18,19
 210 832 210 832 203 814 c 1,20,21
 179 761 179 761 141.5 688 c 128,-1,22
 104 615 104 615 85 542 c 0,23,24
 75 501 75 501 75 463 c 0,25,26
 75 433 75 433 82 404 c 0,27,28
 97 340 97 340 179 305 c 1,29,30
 245 293 245 293 306 293 c 0,31,32
 413 293 413 293 508 330 c 0,33,34
 656 387 656 387 754 477 c 1,35,-1
 754 495 l 2,36,37
 754 570 754 570 740 634 c 1,38,39
 723 706 723 706 702 775 c 1,40,-1
 814 1031 l 1,41,42
 879 895 879 895 879 751 c 0,43,44
 879 692 879 692 868 633 c 0,45,46
 831 425 831 425 716 258 c 1,0,1
646 1140 m 1,47,48
 632 1163 632 1163 611 1163 c 0,49,50
 598 1163 598 1163 582 1155 c 0,51,52
 554 1140 554 1140 532 1118 c 128,-1,53
 510 1096 510 1096 489 1074 c 1,54,55
 531 1082 531 1082 570.5 1092 c 128,-1,56
 610 1102 610 1102 644 1119 c 0,57,58
 649 1121 649 1121 649 1128 c 0,59,60
 649 1133 649 1133 646 1140 c 1,47,48
684 1122 m 0,61,62
 612 1025 612 1025 448 981 c 1,63,64
 409 972 409 972 372 972 c 2,65,-1
 364 972 l 1,66,67
 325 975 325 975 296.5 995.5 c 128,-1,68
 268 1016 268 1016 223 1043 c 1,69,70
 219 1047 219 1047 219 1049 c 0,71,72
 219 1052 219 1052 227 1052 c 0,73,74
 250 1051 250 1051 272 1051 c 0,75,76
 310 1051 310 1051 346 1054 c 0,77,78
 403 1059 403 1059 456 1068 c 1,79,80
 532 1158 532 1158 602 1222 c 0,81,82
 620 1239 620 1239 658 1246 c 0,83,84
 666 1248 666 1248 674 1248 c 0,85,86
 700 1248 700 1248 715 1229 c 1,87,88
 730 1212 730 1212 730 1196 c 0,89,90
 730 1184 730 1184 722 1174 c 0,91,92
 704 1149 704 1149 684 1122 c 0,61,62
457 1353 m 1,93,-1
 516 1447 l 1,94,-1
 533 1191 l 1,95,-1
 474 1097 l 1,96,-1
 457 1353 l 1,93,-1
EndSplineSet
EndChar
StartChar: uniFBA5
Encoding: 64421 64421 199
Width: 403
GlyphClass: 2
Flags: W
LayerCount: 2
Fore
SplineSet
519 825 m 1,0,-1
 556 285 l 1,1,-1
 403 3 l 1,2,-1
 377 391 l 1,3,4
 312 316 312 316 213 287 c 0,5,6
 186 279 186 279 160 279 c 0,7,8
 90 279 90 279 29 337 c 0,9,10
 1 364 1 364 1 411 c 0,11,12
 1 435 1 435 8 464 c 0,13,14
 29 551 29 551 77 645 c 128,-1,15
 125 739 125 739 181.5 819 c 128,-1,16
 238 899 238 899 266 925 c 0,17,18
 342 996 342 996 404 996 c 0,19,20
 424 996 424 996 442 989 c 0,21,22
 518 959 518 959 519 825 c 1,0,-1
293 742 m 0,23,24
 275 748 275 748 259 748 c 0,25,26
 229 748 229 748 205 728 c 0,27,28
 167 698 167 698 143 668 c 0,29,30
 132 654 132 654 132 639 c 0,31,32
 132 626 132 626 141 611 c 1,33,34
 163 567 163 567 223 550 c 0,35,36
 252 542 252 542 282 542 c 0,37,38
 314 542 314 542 347 551 c 1,39,40
 350 570 350 570 350 593 c 0,41,42
 350 624 350 624 345 662 c 0,43,44
 337 727 337 727 293 742 c 0,23,24
439 1425 m 2,45,46
 426 1397 426 1397 395 1384 c 128,-1,47
 364 1371 364 1371 341 1339 c 1,48,49
 359 1318 359 1318 390 1310 c 128,-1,50
 421 1302 421 1302 445 1287 c 0,51,52
 472 1269 472 1269 472 1240 c 0,53,54
 472 1223 472 1223 464 1204 c 0,55,56
 441 1149 441 1149 385 1109 c 0,57,58
 337 1074 337 1074 284.5 1066 c 128,-1,59
 232 1058 232 1058 177 1049 c 1,60,61
 224 1070 224 1070 273 1091 c 128,-1,62
 322 1112 322 1112 367 1137 c 1,63,64
 381 1146 381 1146 381 1153 c 0,65,66
 381 1156 381 1156 377 1159 c 0,67,68
 359 1169 359 1169 337.5 1178.5 c 128,-1,69
 316 1188 316 1188 299 1198 c 0,70,71
 261 1218 261 1218 261 1254 c 0,72,73
 261 1292 261 1292 305 1349 c 0,74,75
 389 1458 389 1458 430 1489 c 0,76,77
 447 1502 447 1502 483 1518 c 1,78,-1
 439 1425 l 2,45,46
EndSplineSet
EndChar
StartChar: uniFBAC
Encoding: 64428 64428 206
Width: 1200
GlyphClass: 2
Flags: W
LayerCount: 2
Fore
SplineSet
393 91 m 1,0,1
 383 90 383 90 371 88 c 1,2,-1
 370 87 l 1,3,-1
 370 88 l 1,4,5
 278 64 278 64 185.5 44 c 128,-1,6
 93 24 93 24 0 0 c 1,7,-1
 88 273 l 1,8,9
 145 281 145 281 219 293 c 0,10,11
 290 304 290 304 351 316 c 1,12,13
 453 564 453 564 596 730 c 0,14,15
 656 800 656 800 702 800 c 0,16,17
 741 800 741 800 770 750 c 0,18,19
 807 685 807 685 807 627 c 0,20,21
 807 588 807 588 789 552 c 0,22,23
 746 464 746 464 691 358 c 1,24,25
 845 387 845 387 945 451 c 1,26,27
 947 486 947 486 947 519 c 0,28,29
 947 766 947 766 862 944 c 1,30,31
 847 972 847 972 813 995 c 0,32,33
 795 1006 795 1006 775 1006 c 0,34,35
 756 1006 756 1006 735 996 c 0,36,37
 668 962 668 962 626.5 902 c 128,-1,38
 585 842 585 842 538 790 c 0,39,40
 529 780 529 780 507 780 c 1,41,42
 506 779 506 779 505 779 c 0,43,44
 488 779 488 779 488 788 c 0,45,46
 488 789 488 789 489 791 c 0,47,48
 511 856 511 856 552 908.5 c 128,-1,49
 593 961 593 961 632 1014 c 0,50,51
 682 1081 682 1081 752 1145.5 c 128,-1,52
 822 1210 822 1210 891 1233 c 0,53,54
 917 1242 917 1242 941 1242 c 0,55,56
 981 1242 981 1242 1017 1218 c 0,57,58
 1073 1180 1073 1180 1096 1042 c 0,59,60
 1111 946 1111 946 1125 861 c 0,61,62
 1134 808 1134 808 1134 757 c 0,63,64
 1134 724 1134 724 1130 691 c 0,65,66
 1118 574 1118 574 1026.5 434 c 128,-1,67
 935 294 935 294 843 223 c 0,68,69
 672 91 672 91 416 91 c 2,70,-1
 393 91 l 1,0,1
641 416 m 1,71,-1
 637 422 l 1,72,73
 608 503 608 503 567 503 c 0,74,75
 560 503 560 503 552 501 c 0,76,77
 501 483 501 483 467 408 c 0,78,79
 463 399 463 399 463 390 c 0,80,81
 463 376 463 376 474 363 c 0,82,83
 490 345 490 345 499 345 c 2,84,-1
 502 345 l 1,85,86
 588 371 588 371 641 416 c 1,71,-1
EndSplineSet
EndChar
StartChar: uniFBB1
Encoding: 64433 64433 211
Width: 2161
GlyphClass: 2
Flags: W
LayerCount: 2
Fore
SplineSet
447 2 m 0,0,1
 348 3 348 3 251.5 10.5 c 128,-1,2
 155 18 155 18 81 49 c 1,3,4
 10 77 10 77 2 157 c 0,5,6
 1 171 1 171 1 186 c 0,7,8
 1 253 1 253 31 329 c 0,9,10
 67 422 67 422 140.5 510 c 128,-1,11
 214 598 214 598 308 643 c 0,12,13
 521 745 521 745 892 826 c 128,-1,14
 1263 907 1263 907 1643 964 c 0,15,16
 1799 988 1799 988 1959.5 1009.5 c 128,-1,17
 2120 1031 2120 1031 2278 1055 c 1,18,-1
 2161 787 l 1,19,20
 2156 786 2156 786 2151.5 785 c 128,-1,21
 2147 784 2147 784 2143 784 c 0,22,23
 1979 754 1979 754 1677.5 709.5 c 128,-1,24
 1376 665 1376 665 1064 608 c 128,-1,25
 752 551 752 551 492 482.5 c 128,-1,26
 232 414 232 414 153 336 c 1,27,28
 195 306 195 306 256.5 294 c 128,-1,29
 318 282 318 282 380 276 c 0,30,31
 648 252 648 252 916 252 c 0,32,33
 1145 252 1145 252 1374 270 c 1,34,35
 1676 292 1676 292 1979 292 c 0,36,37
 2172 292 2172 292 2365 283 c 1,38,-1
 2367 281 l 2,39,40
 2368 279 2368 279 2372 276 c 1,41,42
 2333 222 2333 222 2291.5 168.5 c 128,-1,43
 2250 115 2250 115 2209 64 c 1,44,-1
 1469 26 l 1,45,46
 1052 1 1052 1 635 1 c 0,47,48
 541 1 541 1 447 2 c 0,0,1
1335 1364 m 1,49,50
 1273 1349 1273 1349 1238 1319 c 1,51,52
 1266 1272 1266 1272 1326 1267 c 0,53,54
 1354 1264 1354 1264 1354 1242 c 0,55,56
 1354 1217 1354 1217 1318 1167 c 0,57,58
 1290 1128 1290 1128 1262 1090 c 128,-1,59
 1234 1052 1234 1052 1192 1030 c 1,60,61
 1167 1015 1167 1015 1119 1012 c 0,62,63
 1097 1010 1097 1010 1079 1010 c 0,64,65
 1058 1010 1058 1010 1043 1012 c 0,66,67
 1033 1013 1033 1013 1033 1017 c 256,68,69
 1033 1021 1033 1021 1048 1031 c 0,70,71
 1074 1047 1074 1047 1115 1066 c 128,-1,72
 1156 1085 1156 1085 1194 1100.5 c 128,-1,73
 1232 1116 1232 1116 1235 1118 c 0,74,75
 1247 1122 1247 1122 1249 1128 c 1,76,-1
 1249 1131 l 2,77,78
 1249 1141 1249 1141 1230 1146 c 1,79,80
 1191 1154 1191 1154 1172 1173 c 1,81,82
 1145 1196 1145 1196 1145 1219 c 0,83,84
 1145 1225 1145 1225 1147 1230 c 0,85,86
 1154 1259 1154 1259 1174 1290 c 0,87,88
 1209 1347 1209 1347 1269 1401 c 128,-1,89
 1329 1455 1329 1455 1378 1473 c 0,90,91
 1387 1476 1387 1476 1392 1476 c 0,92,93
 1400 1476 1400 1476 1400 1469 c 0,94,95
 1400 1459 1400 1459 1382 1432 c 0,96,97
 1343 1376 1343 1376 1335 1364 c 1,49,50
EndSplineSet
EndChar
StartChar: uniFC5E
Encoding: 64606 64606 224
Width: 0
GlyphClass: 4
Flags: W
AnchorPoint: "Anchor-19" 0 0 mark 0
AnchorPoint: "Anchor-17" 0 0 mark 0
AnchorPoint: "Anchor-11" 0 0 mark 0
LayerCount: 2
Fore
SplineSet
-147 -141 m 1,0,1
 -197 -138 -197 -138 -215.5 -111 c 128,-1,2
 -234 -84 -234 -84 -236 -48 c 0,3,4
 -237 -40 -237 -40 -237 -32 c 0,5,6
 -237 -4 -237 -4 -230 26 c 0,7,8
 -221 63 -221 63 -213 89 c 0,9,10
 -213 92 -213 92 -212 93 c 1,11,12
 -212 98 -212 98 -210 99 c 1,13,14
 -207 107 -207 107 -199.5 123.5 c 128,-1,15
 -192 140 -192 140 -182 140 c 1,16,17
 -181 139 -181 139 -181 136 c 0,18,19
 -181 131 -181 131 -183 122 c 0,20,21
 -186 107 -186 107 -189 87 c 0,22,23
 -191 73 -191 73 -191 59 c 0,24,25
 -191 52 -191 52 -190 45 c 0,26,27
 -189 24 -189 24 -179.5 9 c 128,-1,28
 -170 -6 -170 -6 -147 -11 c 0,29,30
 -141 -12 -141 -12 -134 -12 c 0,31,32
 -114 -12 -114 -12 -86 -3 c 0,33,34
 -71 2 -71 2 -58 17 c 128,-1,35
 -45 32 -45 32 -37 51.5 c 128,-1,36
 -29 71 -29 71 -24.5 91 c 128,-1,37
 -20 111 -20 111 -18 126 c 1,38,-1
 13 156 l 1,39,-1
 13 155 l 1,40,41
 12 152 12 152 12 146 c 0,42,43
 11 134 11 134 11 121 c 0,44,45
 11 107 11 107 13 93 c 0,46,47
 16 66 16 66 33 50 c 1,48,49
 57 24 57 24 78 24 c 2,50,-1
 83 24 l 1,51,52
 105 27 105 27 119 46 c 128,-1,53
 133 65 133 65 141 93 c 0,54,55
 147 117 147 117 147 136 c 2,56,-1
 147 143 l 1,57,-1
 183 177 l 1,58,59
 181 143 181 143 176 89.5 c 128,-1,60
 171 36 171 36 156 -12 c 128,-1,61
 141 -60 141 -60 111 -88 c 0,62,63
 92 -106 92 -106 65 -106 c 0,64,65
 49 -106 49 -106 30 -100 c 1,66,67
 7 -88 7 -88 -5.5 -71.5 c 128,-1,68
 -18 -55 -18 -55 -26 -39 c 1,69,70
 -29 -57 -29 -57 -41.5 -75 c 128,-1,71
 -54 -93 -54 -93 -71.5 -107 c 128,-1,72
 -89 -121 -89 -121 -109 -130 c 128,-1,73
 -129 -139 -129 -139 -147 -141 c 1,0,1
139 371 m 1,74,75
 117 383 117 383 100 396 c 128,-1,76
 83 409 83 409 76 426 c 0,77,78
 71 436 71 436 71 448 c 0,79,80
 71 456 71 456 73 465 c 0,81,82
 78 486 78 486 101 514 c 256,83,84
 124 542 124 542 148 552 c 0,85,86
 160 557 160 557 170 557 c 256,87,88
 180 557 180 557 189 552 c 0,89,90
 205 541 205 541 209 509 c 1,91,-1
 209 498 l 2,92,93
 209 468 209 468 193 420 c 1,94,95
 200 415 200 415 205 409 c 128,-1,96
 210 403 210 403 211 394 c 1,97,-1
 211 392 l 2,98,99
 211 384 211 384 207 372 c 0,100,101
 202 358 202 358 190 340 c 1,102,103
 184 347 184 347 178 350 c 128,-1,104
 172 353 172 353 165 358 c 1,105,106
 139 324 139 324 112.5 300.5 c 128,-1,107
 86 277 86 277 55 260.5 c 128,-1,108
 24 244 24 244 -12.5 231.5 c 128,-1,109
 -49 219 -49 219 -93 207 c 1,110,-1
 -103 206 l 1,111,112
 -103 208 -103 208 -89 217 c 256,113,114
 -75 226 -75 226 -52 240.5 c 128,-1,115
 -29 255 -29 255 -1.5 272.5 c 128,-1,116
 26 290 26 290 53.5 308.5 c 128,-1,117
 81 327 81 327 104 343 c 128,-1,118
 127 359 127 359 139 371 c 1,74,75
166 433 m 1,119,120
 170 452 170 452 170 465 c 0,121,122
 170 479 170 479 165 487 c 0,123,124
 157 499 157 499 145 499 c 2,125,-1
 143 499 l 1,126,127
 129 497 129 497 119 486 c 0,128,129
 113 480 113 480 113 474 c 0,130,131
 113 469 113 469 117 465 c 0,132,133
 127 454 127 454 140 447 c 128,-1,134
 153 440 153 440 166 433 c 1,119,120
-26 371 m 1,135,136
 -47 383 -47 383 -64 396 c 128,-1,137
 -81 409 -81 409 -89 426 c 0,138,139
 -94 436 -94 436 -94 449 c 0,140,141
 -94 456 -94 456 -92 465 c 0,142,143
 -87 486 -87 486 -64 514 c 0,144,145
 -40 542 -40 542 -15 552 c 0,146,147
 -4 557 -4 557 6 557 c 0,148,149
 17 557 17 557 25 552 c 0,150,151
 41 541 41 541 45 509 c 1,152,-1
 45 498 l 2,153,154
 45 468 45 468 29 420 c 1,155,156
 36 415 36 415 41 409 c 128,-1,157
 46 403 46 403 47 394 c 1,158,-1
 47 392 l 2,159,160
 47 384 47 384 42 372 c 0,161,162
 37 358 37 358 25 340 c 1,163,164
 19 347 19 347 13.5 350 c 128,-1,165
 8 353 8 353 0 358 c 1,166,167
 -26 324 -26 324 -52 300.5 c 128,-1,168
 -78 277 -78 277 -109.5 260.5 c 128,-1,169
 -141 244 -141 244 -177 231.5 c 128,-1,170
 -213 219 -213 219 -257 207 c 1,171,-1
 -267 206 l 1,172,173
 -267 208 -267 208 -253 217 c 256,174,175
 -239 226 -239 226 -216.5 240.5 c 128,-1,176
 -194 255 -194 255 -166 272.5 c 128,-1,177
 -138 290 -138 290 -110.5 308.5 c 128,-1,178
 -83 327 -83 327 -60.5 343 c 128,-1,179
 -38 359 -38 359 -26 371 c 1,135,136
2 433 m 1,180,181
 6 450 6 450 6 463 c 0,182,183
 6 469 6 469 5 474 c 0,184,185
 2 488 2 488 -5 494 c 0,186,187
 -11 499 -11 499 -19 499 c 2,188,-1
 -22 499 l 1,189,190
 -32 497 -32 497 -39.5 492 c 128,-1,191
 -47 487 -47 487 -50 480 c 0,192,193
 -51 477 -51 477 -51 475 c 0,194,195
 -51 470 -51 470 -47 465 c 0,196,197
 -37 454 -37 454 -24.5 447 c 128,-1,198
 -12 440 -12 440 2 433 c 1,180,181
EndSplineSet
Ligature2: "'ccmp' Glyph Composition/Decomposition in Arabic lookup 4 subtable" afii57457 afii57452
EndChar
StartChar: uniFC5F
Encoding: 64607 64607 225
Width: 0
GlyphClass: 4
Flags: W
AnchorPoint: "Anchor-18" 0 0 mark 0
AnchorPoint: "Anchor-14" 0 0 mark 0
LayerCount: 2
Fore
SplineSet
-139 240 m 1,0,1
 -189 243 -189 243 -207.5 270 c 128,-1,2
 -226 297 -226 297 -228 333 c 0,3,4
 -229 341 -229 341 -229 349 c 0,5,6
 -229 377 -229 377 -222 407 c 0,7,8
 -213 444 -213 444 -205 470 c 0,9,10
 -205 471 -205 471 -204.5 472 c 128,-1,11
 -204 473 -204 473 -204 474 c 0,12,13
 -204 476 -204 476 -203 477.5 c 128,-1,14
 -202 479 -202 479 -202 480 c 0,15,16
 -199 488 -199 488 -191.5 504.5 c 128,-1,17
 -184 521 -184 521 -174 521 c 1,18,19
 -173 520 -173 520 -173 517 c 0,20,21
 -173 512 -173 512 -175 503 c 0,22,23
 -178 488 -178 488 -180 468 c 0,24,25
 -182 453 -182 453 -182 438 c 2,26,-1
 -182 426 l 1,27,28
 -181 405 -181 405 -170.5 390 c 128,-1,29
 -160 375 -160 375 -138 370 c 0,30,31
 -133 369 -133 369 -125 369 c 0,32,33
 -106 369 -106 369 -78 378 c 0,34,35
 -63 383 -63 383 -50 398 c 128,-1,36
 -37 413 -37 413 -29 432.5 c 128,-1,37
 -21 452 -21 452 -15.5 472 c 128,-1,38
 -10 492 -10 492 -9 507 c 1,39,-1
 21 537 l 1,40,-1
 21 536 l 2,41,42
 21 533 21 533 20.5 531.5 c 128,-1,43
 20 530 20 530 20 527 c 0,44,45
 19 515 19 515 19 502 c 0,46,47
 19 488 19 488 21 474 c 0,48,49
 24 447 24 447 41 431 c 1,50,51
 65 405 65 405 86 405 c 2,52,-1
 91 405 l 1,53,54
 113 408 113 408 127 427 c 128,-1,55
 141 446 141 446 149 474 c 0,56,57
 155 498 155 498 155 517 c 2,58,-1
 155 524 l 1,59,-1
 192 558 l 1,60,61
 189 524 189 524 184.5 470.5 c 128,-1,62
 180 417 180 417 164.5 369 c 128,-1,63
 149 321 149 321 119 293 c 0,64,65
 100 275 100 275 73 275 c 0,66,67
 57 275 57 275 38 281 c 1,68,69
 17 293 17 293 3.5 309.5 c 128,-1,70
 -10 326 -10 326 -18 342 c 1,71,72
 -21 324 -21 324 -33 306 c 128,-1,73
 -45 288 -45 288 -63 274 c 128,-1,74
 -81 260 -81 260 -101 251 c 128,-1,75
 -121 242 -121 242 -139 240 c 1,0,1
-204 93 m 1,76,-1
 -202 95 l 1,77,78
 -171 107 -171 107 -120.5 126 c 128,-1,79
 -70 145 -70 145 -12 165.5 c 128,-1,80
 46 186 46 186 107 208.5 c 128,-1,81
 168 231 168 231 223 250 c 1,82,-1
 164 155 l 1,83,84
 53 116 53 116 -62.5 74.5 c 128,-1,85
 -178 33 -178 33 -271 -13 c 1,86,-1
 -271 -15 l 1,87,-1
 -204 93 l 1,76,-1
-204 -40 m 1,88,-1
 -202 -40 l 1,89,90
 -171 -27 -171 -27 -120.5 -8.5 c 128,-1,91
 -70 10 -70 10 -12 31.5 c 128,-1,92
 46 53 46 53 107 75 c 128,-1,93
 168 97 168 97 223 116 c 1,94,-1
 164 21 l 1,95,96
 53 -17 53 -17 -62.5 -59.5 c 128,-1,97
 -178 -102 -178 -102 -271 -148 c 1,98,-1
 -204 -40 l 1,88,-1
EndSplineSet
Ligature2: "'ccmp' Glyph Composition/Decomposition in Arabic lookup 4 subtable" afii57457 afii57453
EndChar
StartChar: uniFC60
Encoding: 64608 64608 226
Width: 0
GlyphClass: 4
Flags: W
AnchorPoint: "Anchor-18" 0 0 mark 0
AnchorPoint: "Anchor-14" 0 0 mark 0
LayerCount: 2
Fore
SplineSet
-145 -148 m 1,0,1
 -195 -145 -195 -145 -214.5 -118 c 128,-1,2
 -234 -91 -234 -91 -236 -55 c 1,3,-1
 -236 -42 l 2,4,5
 -236 -12 -236 -12 -229 19 c 0,6,7
 -220 56 -220 56 -213 82 c 0,8,9
 -213 83 -213 83 -212 84 c 128,-1,10
 -211 85 -211 85 -211 86 c 0,11,12
 -211 88 -211 88 -210.5 89.5 c 128,-1,13
 -210 91 -210 91 -210 92 c 0,14,15
 -207 100 -207 100 -199.5 116.5 c 128,-1,16
 -192 133 -192 133 -180 133 c 1,17,18
 -179 132 -179 132 -179 130 c 0,19,20
 -179 125 -179 125 -182 115 c 0,21,22
 -186 100 -186 100 -188 80 c 0,23,24
 -190 63 -190 63 -190 46 c 0,25,26
 -190 42 -190 42 -189 38 c 1,27,28
 -189 17 -189 17 -178.5 2 c 128,-1,29
 -168 -13 -168 -13 -146 -18 c 0,30,31
 -140 -19 -140 -19 -132 -19 c 0,32,33
 -113 -19 -113 -19 -85 -10 c 0,34,35
 -69 -5 -69 -5 -57 10 c 128,-1,36
 -45 25 -45 25 -36.5 44.5 c 128,-1,37
 -28 64 -28 64 -23 84 c 128,-1,38
 -18 104 -18 104 -16 119 c 1,39,-1
 14 149 l 1,40,-1
 14 148 l 2,41,42
 14 145 14 145 13 143.5 c 128,-1,43
 12 142 12 142 12 139 c 0,44,45
 11 127 11 127 11 116 c 0,46,47
 11 101 11 101 13 86 c 0,48,49
 17 59 17 59 33 43 c 0,50,51
 59 17 59 17 79 17 c 2,52,-1
 84 17 l 1,53,54
 105 20 105 20 120 39 c 128,-1,55
 135 58 135 58 142 86 c 0,56,57
 147 107 147 107 147 124 c 2,58,-1
 147 136 l 1,59,-1
 185 170 l 1,60,61
 182 136 182 136 177.5 82.5 c 128,-1,62
 173 29 173 29 157 -19 c 128,-1,63
 141 -67 141 -67 112 -95 c 0,64,65
 94 -113 94 -113 67 -113 c 0,66,67
 51 -113 51 -113 32 -107 c 1,68,69
 9 -95 9 -95 -4.5 -78.5 c 128,-1,70
 -18 -62 -18 -62 -25 -46 c 1,71,72
 -28 -64 -28 -64 -40 -82 c 128,-1,73
 -52 -100 -52 -100 -69.5 -114 c 128,-1,74
 -87 -128 -87 -128 -107 -137 c 128,-1,75
 -127 -146 -127 -146 -145 -148 c 1,0,1
-191 272 m 1,76,-1
 -190 272 l 1,77,78
 -159 284 -159 284 -111 302 c 128,-1,79
 -63 320 -63 320 -7 340.5 c 128,-1,80
 49 361 49 361 107.5 382.5 c 128,-1,81
 166 404 166 404 219 422 c 1,82,-1
 162 331 l 1,83,84
 56 294 56 294 -55 253 c 128,-1,85
 -166 212 -166 212 -256 168 c 1,86,-1
 -191 272 l 1,76,-1
EndSplineSet
Ligature2: "'ccmp' Glyph Composition/Decomposition in Arabic lookup 4 subtable" afii57457 afii57454
EndChar
StartChar: uniFC62
Encoding: 64610 64610 228
Width: 0
GlyphClass: 4
Flags: W
AnchorPoint: "Anchor-19" 0 0 mark 0
AnchorPoint: "Anchor-17" 0 0 mark 0
AnchorPoint: "Anchor-11" 0 0 mark 0
LayerCount: 2
Fore
SplineSet
-140 110 m 1,0,1
 -189 113 -189 113 -208 140 c 128,-1,2
 -227 167 -227 167 -229 203 c 1,3,-1
 -229 216 l 2,4,5
 -229 246 -229 246 -222 277 c 0,6,7
 -213 314 -213 314 -206 340 c 0,8,9
 -206 341 -206 341 -205 342 c 128,-1,10
 -204 343 -204 343 -204 344 c 0,11,12
 -204 346 -204 346 -203.5 347.5 c 128,-1,13
 -203 349 -203 349 -203 350 c 0,14,15
 -200 358 -200 358 -192.5 374.5 c 128,-1,16
 -185 391 -185 391 -174 391 c 1,17,-1
 -174 389 l 2,18,19
 -174 384 -174 384 -176 373 c 0,20,21
 -179 358 -179 358 -181 338 c 0,22,23
 -183 321 -183 321 -183 304 c 0,24,25
 -183 300 -183 300 -182 296 c 1,26,27
 -182 275 -182 275 -171.5 260 c 128,-1,28
 -161 245 -161 245 -139 240 c 0,29,30
 -133 239 -133 239 -125 239 c 0,31,32
 -106 239 -106 239 -78 248 c 0,33,34
 -63 253 -63 253 -50.5 268 c 128,-1,35
 -38 283 -38 283 -29.5 302.5 c 128,-1,36
 -21 322 -21 322 -16 342 c 128,-1,37
 -11 362 -11 362 -9 377 c 1,38,-1
 21 407 l 1,39,-1
 21 406 l 2,40,41
 21 403 21 403 20 401.5 c 128,-1,42
 19 400 19 400 19 397 c 0,43,44
 18 385 18 385 18 374 c 0,45,46
 18 359 18 359 20 344 c 0,47,48
 24 317 24 317 40 301 c 0,49,50
 64 275 64 275 85 275 c 2,51,-1
 90 275 l 1,52,53
 112 278 112 278 126.5 297 c 128,-1,54
 141 316 141 316 149 344 c 0,55,56
 154 365 154 365 154 383 c 2,57,-1
 154 394 l 1,58,-1
 192 428 l 1,59,60
 189 394 189 394 184.5 340.5 c 128,-1,61
 180 287 180 287 164 239 c 128,-1,62
 148 191 148 191 118 163 c 0,63,64
 99 145 99 145 72 145 c 0,65,66
 56 145 56 145 37 151 c 1,67,68
 16 163 16 163 2.5 179.5 c 128,-1,69
 -11 196 -11 196 -18 212 c 1,70,71
 -21 194 -21 194 -33 176 c 128,-1,72
 -45 158 -45 158 -63 144 c 128,-1,73
 -81 130 -81 130 -101.5 121 c 128,-1,74
 -122 112 -122 112 -140 110 c 1,0,1
-203 -47 m 1,75,-1
 -202 -47 l 1,76,77
 -170 -34 -170 -34 -120 -15.5 c 128,-1,78
 -70 3 -70 3 -12.5 24.5 c 128,-1,79
 45 46 45 46 106 68 c 128,-1,80
 167 90 167 90 221 109 c 1,81,-1
 162 15 l 1,82,83
 52 -24 52 -24 -62.5 -66 c 128,-1,84
 -177 -108 -177 -108 -270 -154 c 1,85,-1
 -203 -47 l 1,75,-1
EndSplineSet
Ligature2: "'ccmp' Glyph Composition/Decomposition in Arabic lookup 4 subtable" afii57457 afii57456
EndChar
StartChar: uniFD3E
Encoding: 64830 64830 240
Width: 994
GlyphClass: 2
Flags: W
LayerCount: 2
Fore
SplineSet
444 697 m 1,1,-1
 460 689 l 1,2,3
 451 662 451 662 451 636 c 0,4,5
 451 568 451 568 532 545 c 0,6,7
 597 526 597 526 597 477 c 0,8,9
 597 459 597 459 587 446 c 1,10,-1
 595 443 l 1,11,12
 659 500 659 500 659 581 c 0,13,14
 659 648 659 648 616 691 c 0,15,16
 572 735 572 735 500 735 c 0,17,18
 452 735 452 735 405 706 c 256,19,20
 358 677 358 677 341 677 c 0,21,22
 319 677 319 677 306 688 c 1,23,-1
 315 705 l 1,24,25
 321 702 321 702 327 702 c 0,26,27
 349 702 349 702 368 726 c 0,28,29
 374 734 374 734 385 751 c 0,30,31
 397 770 397 770 404 779 c 0,32,33
 460 856 460 856 520 856 c 0,34,35
 590 856 590 856 619 785 c 1,36,-1
 623 788 l 1,37,38
 603 835 603 835 603 883 c 0,39,40
 603 964 603 964 707 1068 c 0,41,42
 728 1089 728 1089 765 1123 c 2,43,-1
 822 1175 l 2,44,45
 859 1210 859 1210 870 1234 c 1,46,47
 834 1243 834 1243 834 1274 c 0,48,49
 834 1311 834 1311 874 1311 c 256,50,51
 914 1311 914 1311 914 1272 c 0,52,53
 914 1245 914 1245 879 1193 c 1,54,55
 827 1121 827 1121 806 1081 c 0,56,57
 713 908 713 908 713 670 c 0,58,59
 713 437 713 437 569 402 c 1,60,-1
 569 400 l 1,61,62
 713 365 713 365 713 132 c 0,63,64
 713 -106 713 -106 806 -279 c 0,65,66
 827 -319 827 -319 879 -391 c 1,67,68
 914 -443 914 -443 914 -470 c 0,69,70
 914 -509 914 -509 874 -509 c 256,71,72
 834 -509 834 -509 834 -472 c 0,73,74
 834 -441 834 -441 870 -432 c 1,75,76
 859 -408 859 -408 822 -373 c 2,77,-1
 765 -321 l 2,78,79
 728 -287 728 -287 707 -266 c 0,80,81
 603 -162 603 -162 603 -81 c 0,82,83
 603 -33 603 -33 623 14 c 1,84,-1
 619 17 l 1,85,86
 590 -54 590 -54 520 -54 c 0,87,88
 460 -54 460 -54 404 23 c 0,89,90
 397 32 397 32 385 51 c 0,91,92
 374 68 374 68 368 76 c 0,93,94
 349 100 349 100 327 100 c 0,95,96
 321 100 321 100 315 97 c 1,97,-1
 306 114 l 1,98,99
 319 125 319 125 341 125 c 0,100,101
 358 125 358 125 405 96 c 256,102,103
 452 67 452 67 500 67 c 0,104,105
 572 67 572 67 616 111 c 0,106,107
 659 154 659 154 659 221 c 0,108,109
 659 302 659 302 595 359 c 1,110,-1
 587 356 l 1,111,112
 597 343 597 343 597 325 c 0,113,114
 597 276 597 276 532 257 c 0,115,116
 451 234 451 234 451 166 c 0,117,118
 451 140 451 140 460 113 c 1,119,-1
 444 105 l 1,120,121
 353 191 353 191 353 294 c 1,122,123
 331 270 331 270 288 270 c 0,124,125
 238 270 238 270 196 312 c 2,126,-1
 197 311 l 2,127,128
 197 312 197 312 158 355 c 0,129,130
 139 376 139 376 120 376 c 0,131,132
 98 376 98 376 88 371 c 1,133,-1
 80 392 l 1,134,135
 110 407 110 407 140 441 c 1,136,137
 177 485 177 485 190 496 c 0,138,139
 240 537 240 537 288 537 c 0,140,141
 326 537 326 537 353 508 c 1,142,0
 353 611 353 611 444 697 c 1,1,-1
440 403 m 1,143,144
 395 427 395 427 376 465 c 1,145,146
 303 451 303 451 303 401 c 256,147,148
 303 351 303 351 376 337 c 1,149,150
 395 375 395 375 440 399 c 1,151,-1
 440 403 l 1,143,144
EndSplineSet
EndChar
StartChar: uniFDF2
Encoding: 65010 65010 159
Width: 2008
GlyphClass: 3
Flags: W
AnchorPoint: "Anchor-19" 117 -72 baselig 3
AnchorPoint: "Anchor-18" 297 963 baselig 3
AnchorPoint: "Anchor-19" 711 -135 baselig 2
AnchorPoint: "Anchor-18" 819 1152 baselig 2
AnchorPoint: "Anchor-19" 1314 -198 baselig 1
AnchorPoint: "Anchor-18" 1359 1368 baselig 1
AnchorPoint: "Anchor-19" 1854 54 baselig 0
AnchorPoint: "Anchor-18" 1890 1575 baselig 0
LayerCount: 2
Fore
SplineSet
352 739 m 0,0,1
 334 745 334 745 318 745 c 0,2,3
 288 745 288 745 264 725 c 0,4,5
 226 695 226 695 202 665 c 0,6,7
 191 651 191 651 191 636 c 0,8,9
 191 623 191 623 200 608 c 1,10,11
 222 564 222 564 282 547 c 0,12,13
 311 539 311 539 341 539 c 0,14,15
 373 539 373 539 406 548 c 1,16,17
 409 567 409 567 409 590 c 0,18,19
 409 621 409 621 404 659 c 0,20,21
 396 724 396 724 352 739 c 0,0,1
615 283 m 1,22,23
 694 294 694 294 755 302 c 0,24,25
 840 312 840 312 939 363 c 1,26,-1
 896 986 l 1,27,-1
 1047 1236 l 1,28,-1
 1109 282 l 1,29,-1
 1109 281 l 1,30,31
 1177 293 1177 293 1242 307 c 0,32,33
 1331 327 1331 327 1423 367 c 1,34,35
 1423 523 1423 523 1407.5 742.5 c 128,-1,36
 1392 962 1392 962 1382 1117 c 1,37,-1
 1533 1357 l 1,38,-1
 1576 668 l 2,39,40
 1577 650 1577 650 1577 632 c 0,41,42
 1577 588 1577 588 1572 547 c 0,43,44
 1564 490 1564 490 1553 447 c 0,45,46
 1494 214 1494 214 1288 104 c 0,47,48
 1217 66 1217 66 1131 43 c 128,-1,49
 1045 20 1045 20 967 0 c 1,50,-1
 948 256 l 1,51,52
 840 97 840 97 737 70 c 128,-1,53
 634 43 634 43 462 0 c 1,54,-1
 436 388 l 1,55,56
 371 313 371 313 272 284 c 0,57,58
 245 276 245 276 219 276 c 0,59,60
 149 276 149 276 88 334 c 0,61,62
 60 361 60 361 60 408 c 0,63,64
 60 432 60 432 67 461 c 0,65,66
 88 548 88 548 136 642 c 128,-1,67
 184 736 184 736 240.5 816 c 128,-1,68
 297 896 297 896 325 922 c 0,69,70
 401 993 401 993 463 993 c 0,71,72
 483 993 483 993 501 986 c 0,73,74
 577 956 577 956 578 822 c 1,75,-1
 615 283 l 1,22,23
1739 1192 m 1,76,-1
 1890 1432 l 1,77,-1
 1948 562 l 1,78,-1
 1797 322 l 1,79,-1
 1739 1192 l 1,76,-1
EndSplineSet
Ligature2: "'calt' Contextual Alternates in Arabic lookup 25 subtable" _.notdef_2 __.notdef_44 __.notdef_45 __.notdef_53
EndChar
StartChar: uniFE82
Encoding: 65154 65154 70
Width: 217
GlyphClass: 2
Flags: W
LayerCount: 2
Fore
SplineSet
137 1167 m 1,0,-1
 266 1407 l 1,1,-1
 344 282 l 1,2,-1
 217 0 l 1,3,-1
 137 1167 l 1,0,-1
558 1641 m 1,4,-1
 468 1526 l 1,5,6
 393 1477 393 1477 268 1452 c 0,7,8
 229 1444 229 1444 192 1444 c 0,9,10
 108 1444 108 1444 32 1484 c 0,11,12
 23 1489 23 1489 14 1489 c 256,13,14
 5 1489 5 1489 -3 1483 c 0,15,16
 -20 1472 -20 1472 -34 1464 c 0,17,18
 -64 1447 -64 1447 -114 1394 c 0,19,20
 -131 1376 -131 1376 -135 1376 c 0,21,22
 -137 1376 -137 1376 -137 1378 c 0,23,24
 -137 1388 -137 1388 -104 1446 c 0,25,26
 -51 1540 -51 1540 57 1595 c 0,27,28
 60 1597 60 1597 65 1597 c 0,29,30
 76 1597 76 1597 94 1589 c 0,31,32
 175 1548 175 1548 263 1548 c 0,33,34
 303 1548 303 1548 345 1556 c 0,35,36
 479 1583 479 1583 550 1646 c 0,37,38
 553 1649 553 1649 555 1649 c 0,39,40
 558 1649 558 1649 558 1641 c 1,4,-1
EndSplineSet
EndChar
StartChar: uniFE84
Encoding: 65156 65156 71
Width: 217
GlyphClass: 2
Flags: W
LayerCount: 2
Fore
SplineSet
137 1167 m 1,0,-1
 266 1407 l 1,1,-1
 344 282 l 1,2,-1
 217 0 l 1,3,-1
 137 1167 l 1,0,-1
281 1759 m 2,4,5
 268 1732 268 1732 236.5 1718.5 c 128,-1,6
 205 1705 205 1705 182 1674 c 1,7,8
 200 1652 200 1652 231 1644 c 128,-1,9
 262 1636 262 1636 286 1621 c 0,10,11
 313 1603 313 1603 313 1574 c 0,12,13
 313 1557 313 1557 305 1538 c 0,14,15
 282 1483 282 1483 226 1444 c 1,16,17
 178 1409 178 1409 125.5 1400.5 c 128,-1,18
 73 1392 73 1392 18 1383 c 1,19,20
 65 1404 65 1404 114.5 1425 c 128,-1,21
 164 1446 164 1446 208 1471 c 0,22,23
 222 1480 222 1480 222 1487 c 0,24,25
 222 1490 222 1490 218 1493 c 0,26,27
 201 1503 201 1503 179 1512.5 c 128,-1,28
 157 1522 157 1522 140 1532 c 0,29,30
 103 1552 103 1552 103 1588 c 0,31,32
 103 1626 103 1626 147 1683 c 0,33,34
 231 1792 231 1792 271 1823 c 0,35,36
 288 1836 288 1836 324 1852 c 1,37,-1
 281 1759 l 2,4,5
EndSplineSet
EndChar
StartChar: uniFE86
Encoding: 65158 65158 72
Width: 1001
GlyphClass: 2
Flags: W
LayerCount: 2
Fore
SplineSet
470 17 m 1,0,1
 377 0 377 0 281 0 c 0,2,3
 261 0 261 0 240 1 c 0,4,5
 123 5 123 5 11 17 c 1,6,7
 0 17 0 17 0 29 c 0,8,9
 0 40 0 40 9 46 c 0,10,11
 168 134 168 134 347 202.5 c 128,-1,12
 526 271 526 271 703 343 c 0,13,14
 794 379 794 379 859 452 c 0,15,16
 864 459 864 459 864 470 c 0,17,18
 864 478 864 478 862 488 c 0,19,20
 856 513 856 513 845 529 c 1,21,22
 809 520 809 520 769 520 c 0,23,24
 754 520 754 520 739 522 c 0,25,26
 682 526 682 526 656 556 c 1,27,28
 633 581 633 581 633 614 c 0,29,30
 633 644 633 644 652 681 c 0,31,32
 686 747 686 747 717 818 c 128,-1,33
 748 889 748 889 797 944 c 0,34,35
 813 962 813 962 834 962 c 0,36,37
 844 962 844 962 855 958 c 0,38,39
 890 945 890 945 908 927 c 0,40,41
 1003 830 1003 830 1003 694 c 2,42,-1
 1003 681 l 1,43,44
 998 536 998 536 925.5 397.5 c 128,-1,45
 853 259 853 259 730.5 151.5 c 128,-1,46
 608 44 608 44 470 17 c 1,0,1
933 1437 m 2,47,48
 920 1410 920 1410 888.5 1396.5 c 128,-1,49
 857 1383 857 1383 834 1352 c 1,50,51
 852 1330 852 1330 883 1322 c 128,-1,52
 914 1314 914 1314 938 1299 c 0,53,54
 965 1281 965 1281 965 1252 c 0,55,56
 965 1235 965 1235 957 1216 c 0,57,58
 934 1161 934 1161 878 1122 c 1,59,60
 830 1087 830 1087 777.5 1078.5 c 128,-1,61
 725 1070 725 1070 670 1061 c 1,62,63
 717 1082 717 1082 766.5 1103 c 128,-1,64
 816 1124 816 1124 860 1149 c 0,65,66
 874 1158 874 1158 874 1165 c 0,67,68
 874 1168 874 1168 870 1171 c 0,69,70
 853 1181 853 1181 831 1190.5 c 128,-1,71
 809 1200 809 1200 792 1210 c 0,72,73
 755 1230 755 1230 755 1266 c 0,74,75
 755 1304 755 1304 799 1361 c 0,76,77
 883 1470 883 1470 923 1501 c 0,78,79
 940 1514 940 1514 976 1530 c 1,80,-1
 933 1437 l 2,47,48
EndSplineSet
EndChar
StartChar: uniFE88
Encoding: 65160 65160 73
Width: 217
GlyphClass: 2
Flags: W
LayerCount: 2
Fore
SplineSet
137 1167 m 1,0,-1
 266 1407 l 1,1,-1
 344 282 l 1,2,-1
 217 0 l 1,3,-1
 137 1167 l 1,0,-1
310 -166 m 2,4,5
 297 -193 297 -193 265.5 -206.5 c 128,-1,6
 234 -220 234 -220 211 -251 c 1,7,8
 229 -273 229 -273 260 -281 c 128,-1,9
 291 -289 291 -289 315 -304 c 0,10,11
 342 -322 342 -322 342 -351 c 0,12,13
 342 -368 342 -368 334 -387 c 0,14,15
 311 -442 311 -442 255 -481 c 1,16,17
 207 -516 207 -516 154.5 -524.5 c 128,-1,18
 102 -533 102 -533 47 -542 c 1,19,20
 94 -521 94 -521 143.5 -500 c 128,-1,21
 193 -479 193 -479 237 -454 c 0,22,23
 251 -445 251 -445 251 -438 c 0,24,25
 251 -435 251 -435 247 -432 c 0,26,27
 230 -422 230 -422 208 -412.5 c 128,-1,28
 186 -403 186 -403 169 -393 c 0,29,30
 132 -373 132 -373 132 -337 c 0,31,32
 132 -299 132 -299 176 -242 c 0,33,34
 260 -133 260 -133 300 -102 c 0,35,36
 317 -89 317 -89 353 -73 c 1,37,-1
 310 -166 l 2,4,5
EndSplineSet
EndChar
StartChar: uniFE8A
Encoding: 65162 65162 74
Width: 848
GlyphClass: 2
Flags: W
LayerCount: 2
Fore
SplineSet
160 48 m 0,0,1
 27 121 27 121 9 251 c 0,2,3
 3 291 3 291 3 333 c 0,4,5
 3 424 3 424 31 521 c 0,6,7
 71 662 71 662 144.5 791.5 c 128,-1,8
 218 921 218 921 270 993 c 0,9,10
 274 998 274 998 279 998 c 0,11,12
 281 998 281 998 284 997 c 0,13,14
 288 996 288 996 288 991 c 0,15,16
 288 988 288 988 286 983 c 0,17,18
 256 920 256 920 210 835.5 c 128,-1,19
 164 751 164 751 136 663 c 0,20,21
 115 595 115 595 115 529 c 0,22,23
 115 509 115 509 117 490 c 0,24,25
 125 405 125 405 204 344 c 0,26,27
 273 290 273 290 394 282 c 0,28,29
 427 280 427 280 460 280 c 0,30,31
 544 280 544 280 621 295 c 1,32,33
 860 338 860 338 1056 465 c 1,34,35
 952 475 952 475 866.5 511.5 c 128,-1,36
 781 548 781 548 757 631 c 0,37,38
 752 648 752 648 752 668 c 0,39,40
 752 708 752 708 772 763 c 0,41,42
 802 845 802 845 848 925 c 1,43,44
 872 853 872 853 934 811 c 128,-1,45
 996 769 996 769 1065 751 c 1,46,47
 1107 739 1107 739 1153 732.5 c 128,-1,48
 1199 726 1199 726 1226 697 c 0,49,50
 1259 662 1259 662 1259 615 c 0,51,52
 1259 559 1259 559 1211 485 c 0,53,54
 1146 384 1146 384 1018.5 279 c 128,-1,55
 891 174 891 174 740 100.5 c 128,-1,56
 589 27 589 27 435 5 c 0,57,58
 395 -1 395 -1 359 -1 c 0,59,60
 250 -1 250 -1 160 48 c 0,0,1
432 1437 m 2,61,62
 419 1410 419 1410 387.5 1396.5 c 128,-1,63
 356 1383 356 1383 333 1352 c 1,64,65
 351 1330 351 1330 382 1322 c 128,-1,66
 413 1314 413 1314 437 1299 c 0,67,68
 464 1281 464 1281 464 1252 c 0,69,70
 464 1235 464 1235 456 1216 c 0,71,72
 433 1161 433 1161 377 1122 c 1,73,74
 329 1087 329 1087 276.5 1078.5 c 128,-1,75
 224 1070 224 1070 169 1061 c 1,76,77
 216 1082 216 1082 265.5 1103 c 128,-1,78
 315 1124 315 1124 359 1149 c 0,79,80
 373 1158 373 1158 373 1165 c 0,81,82
 373 1168 373 1168 369 1171 c 0,83,84
 352 1181 352 1181 330 1190.5 c 128,-1,85
 308 1200 308 1200 291 1210 c 0,86,87
 254 1230 254 1230 254 1266 c 0,88,89
 254 1304 254 1304 298 1361 c 0,90,91
 382 1470 382 1470 422 1501 c 0,92,93
 439 1514 439 1514 475 1530 c 1,94,-1
 432 1437 l 2,61,62
EndSplineSet
EndChar
StartChar: uniFE8B
Encoding: 65163 65163 75
Width: 604
GlyphClass: 2
Flags: W
LayerCount: 2
Fore
SplineSet
562 506 m 0,0,1
 550 406 550 406 494.5 296 c 128,-1,2
 439 186 439 186 364 121 c 0,3,4
 298 63 298 63 210.5 37.5 c 128,-1,5
 123 12 123 12 0 0 c 1,6,-1
 119 275 l 1,7,-1
 121 275 l 1,8,9
 208 285 208 285 281.5 299 c 128,-1,10
 355 313 355 313 412 352 c 1,11,12
 411 394 411 394 390 463.5 c 128,-1,13
 369 533 369 533 349 593 c 1,14,-1
 506 825 l 1,15,-1
 541 733 l 2,16,17
 566 667 566 667 566 580 c 0,18,19
 566 545 566 545 562 506 c 0,0,1
542 1267 m 2,20,21
 529 1240 529 1240 497.5 1226.5 c 128,-1,22
 466 1213 466 1213 443 1182 c 1,23,24
 461 1160 461 1160 492 1152 c 128,-1,25
 523 1144 523 1144 547 1129 c 0,26,27
 574 1111 574 1111 574 1082 c 0,28,29
 574 1065 574 1065 566 1046 c 0,30,31
 543 991 543 991 487 952 c 1,32,33
 439 917 439 917 386.5 908.5 c 128,-1,34
 334 900 334 900 279 891 c 1,35,36
 326 912 326 912 375.5 933 c 128,-1,37
 425 954 425 954 469 979 c 0,38,39
 483 988 483 988 483 995 c 0,40,41
 483 998 483 998 479 1001 c 0,42,43
 462 1011 462 1011 440 1020.5 c 128,-1,44
 418 1030 418 1030 401 1040 c 0,45,46
 364 1060 364 1060 364 1096 c 0,47,48
 364 1134 364 1134 408 1191 c 0,49,50
 492 1300 492 1300 532 1331 c 0,51,52
 549 1344 549 1344 585 1360 c 1,53,-1
 542 1267 l 2,20,21
EndSplineSet
EndChar
StartChar: uniFE8C
Encoding: 65164 65164 76
Width: 419
GlyphClass: 2
Flags: W
LayerCount: 2
Fore
SplineSet
423 50 m 1,0,-1
 421 50 l 2,1,2
 412 50 412 50 412 61 c 0,3,4
 412 69 412 69 418 85 c 1,5,6
 348 56 348 56 218.5 32 c 128,-1,7
 89 8 89 8 0 0 c 1,8,-1
 119 275 l 1,9,10
 157 278 157 278 292 287 c 128,-1,11
 427 296 427 296 517 346 c 0,12,13
 577 380 577 380 604 446 c 1,14,15
 609 453 609 453 612 453 c 256,16,17
 615 453 615 453 615 442 c 0,18,19
 615 423 615 423 613 418 c 0,20,21
 590 346 590 346 545 239 c 128,-1,22
 500 132 500 132 423 50 c 1,0,-1
560 918 m 2,23,24
 547 891 547 891 515.5 877.5 c 128,-1,25
 484 864 484 864 461 833 c 1,26,27
 479 811 479 811 510 803 c 128,-1,28
 541 795 541 795 565 780 c 0,29,30
 592 762 592 762 592 733 c 0,31,32
 592 716 592 716 584 697 c 0,33,34
 561 642 561 642 505 603 c 1,35,36
 457 568 457 568 404.5 559.5 c 128,-1,37
 352 551 352 551 297 542 c 1,38,39
 344 563 344 563 393.5 584 c 128,-1,40
 443 605 443 605 487 630 c 0,41,42
 501 639 501 639 501 646 c 0,43,44
 501 649 501 649 497 652 c 0,45,46
 480 662 480 662 458 671.5 c 128,-1,47
 436 681 436 681 419 691 c 0,48,49
 382 711 382 711 382 747 c 0,50,51
 382 785 382 785 426 842 c 0,52,53
 510 951 510 951 550 982 c 0,54,55
 567 995 567 995 603 1011 c 1,56,-1
 560 918 l 2,23,24
EndSplineSet
EndChar
StartChar: uniFE8E
Encoding: 65166 65166 77
Width: 217
GlyphClass: 2
Flags: W
LayerCount: 2
Fore
SplineSet
137 1167 m 1,0,-1
 266 1407 l 1,1,-1
 344 282 l 1,2,-1
 217 0 l 1,3,-1
 137 1167 l 1,0,-1
EndSplineSet
EndChar
StartChar: uniFE91
Encoding: 65169 65169 79
Width: 604
GlyphClass: 2
Flags: W
LayerCount: 2
Fore
SplineSet
562 506 m 0,0,1
 550 406 550 406 494.5 296 c 128,-1,2
 439 186 439 186 364 121 c 0,3,4
 298 63 298 63 210.5 37.5 c 128,-1,5
 123 12 123 12 0 0 c 1,6,-1
 119 275 l 1,7,-1
 121 275 l 1,8,9
 208 285 208 285 281.5 299 c 128,-1,10
 355 313 355 313 412 352 c 1,11,12
 411 394 411 394 390 463.5 c 128,-1,13
 369 533 369 533 349 593 c 1,14,-1
 506 825 l 1,15,-1
 541 733 l 2,16,17
 566 667 566 667 566 580 c 0,18,19
 566 545 566 545 562 506 c 0,0,1
468 -194 m 1,20,21
 426 -248 426 -248 384 -300 c 128,-1,22
 342 -352 342 -352 300 -404 c 1,23,-1
 156 -269 l 1,24,25
 197 -216 197 -216 239.5 -164 c 128,-1,26
 282 -112 282 -112 324 -59 c 1,27,-1
 468 -194 l 1,20,21
EndSplineSet
EndChar
StartChar: uniFE94
Encoding: 65172 65172 81
Width: 403
GlyphClass: 2
Flags: W
LayerCount: 2
Fore
SplineSet
519 825 m 1,0,-1
 556 285 l 1,1,-1
 403 3 l 1,2,-1
 377 391 l 1,3,4
 312 316 312 316 213 287 c 0,5,6
 186 279 186 279 160 279 c 0,7,8
 90 279 90 279 29 337 c 0,9,10
 1 364 1 364 1 411 c 0,11,12
 1 435 1 435 8 464 c 0,13,14
 29 551 29 551 77 645 c 128,-1,15
 125 739 125 739 181.5 819 c 128,-1,16
 238 899 238 899 266 925 c 0,17,18
 342 996 342 996 404 996 c 0,19,20
 424 996 424 996 442 989 c 0,21,22
 518 959 518 959 519 825 c 1,0,-1
293 742 m 0,23,24
 275 748 275 748 259 748 c 0,25,26
 229 748 229 748 205 728 c 0,27,28
 167 698 167 698 143 668 c 0,29,30
 132 654 132 654 132 639 c 0,31,32
 132 626 132 626 141 611 c 1,33,34
 163 567 163 567 223 550 c 0,35,36
 252 542 252 542 282 542 c 0,37,38
 314 542 314 542 347 551 c 1,39,40
 350 570 350 570 350 593 c 0,41,42
 350 624 350 624 345 662 c 0,43,44
 337 727 337 727 293 742 c 0,23,24
471 1147 m 1,45,46
 372 1129 372 1129 274 1110.5 c 128,-1,47
 176 1092 176 1092 78 1074 c 1,48,-1
 200 1318 l 1,49,50
 414 1356 414 1356 594 1391 c 1,51,-1
 471 1147 l 1,45,46
EndSplineSet
EndChar
StartChar: uniFE9B
Encoding: 65179 65179 86
Width: 604
GlyphClass: 2
Flags: W
LayerCount: 2
Fore
SplineSet
562 506 m 0,0,1
 550 406 550 406 494.5 296 c 128,-1,2
 439 186 439 186 364 121 c 0,3,4
 298 63 298 63 210.5 37.5 c 128,-1,5
 123 12 123 12 0 0 c 1,6,-1
 119 275 l 1,7,-1
 121 275 l 1,8,9
 208 285 208 285 281.5 299 c 128,-1,10
 355 313 355 313 412 352 c 1,11,12
 411 394 411 394 390 463.5 c 128,-1,13
 369 533 369 533 349 593 c 1,14,-1
 506 825 l 1,15,-1
 541 733 l 2,16,17
 566 667 566 667 566 580 c 0,18,19
 566 545 566 545 562 506 c 0,0,1
622 1230 m 1,20,21
 592 1167 592 1167 552.5 1108.5 c 128,-1,22
 513 1050 513 1050 472 997 c 0,23,24
 465 988 465 988 458 988 c 0,25,26
 449 988 449 988 441 1008 c 0,27,28
 398 1114 398 1114 346 1114 c 2,29,-1
 340 1114 l 1,30,31
 284 1107 284 1107 231.5 1047.5 c 128,-1,32
 179 988 179 988 136.5 911 c 128,-1,33
 94 834 94 834 75 808 c 1,34,-1
 74 897 l 1,35,-1
 76 900 l 1,36,37
 102 951 102 951 154.5 1041 c 128,-1,38
 207 1131 207 1131 271 1216 c 0,39,40
 334 1300 334 1300 404 1349 c 1,41,42
 433 1368 433 1368 462 1368 c 0,43,44
 505 1368 505 1368 550 1327 c 1,45,46
 590 1288 590 1288 622 1230 c 1,20,21
EndSplineSet
EndChar
StartChar: uniFE9C
Encoding: 65180 65180 87
Width: 419
GlyphClass: 2
Flags: W
LayerCount: 2
Fore
SplineSet
423 50 m 1,0,-1
 421 50 l 2,1,2
 412 50 412 50 412 61 c 0,3,4
 412 69 412 69 418 85 c 1,5,6
 348 56 348 56 218.5 32 c 128,-1,7
 89 8 89 8 0 0 c 1,8,-1
 119 275 l 1,9,10
 157 278 157 278 292 287 c 128,-1,11
 427 296 427 296 517 346 c 0,12,13
 577 380 577 380 604 446 c 1,14,15
 609 453 609 453 612 453 c 256,16,17
 615 453 615 453 615 442 c 0,18,19
 615 423 615 423 613 418 c 0,20,21
 590 346 590 346 545 239 c 128,-1,22
 500 132 500 132 423 50 c 1,0,-1
755 904 m 1,23,24
 725 841 725 841 685.5 782.5 c 128,-1,25
 646 724 646 724 605 671 c 0,26,27
 598 662 598 662 591 662 c 0,28,29
 582 662 582 662 574 682 c 0,30,31
 531 788 531 788 479 788 c 2,32,-1
 473 788 l 1,33,34
 417 781 417 781 364.5 721.5 c 128,-1,35
 312 662 312 662 269.5 585 c 128,-1,36
 227 508 227 508 208 482 c 1,37,-1
 207 571 l 1,38,-1
 209 574 l 1,39,40
 235 625 235 625 287.5 715 c 128,-1,41
 340 805 340 805 404 890 c 0,42,43
 467 974 467 974 537 1023 c 1,44,45
 566 1042 566 1042 595 1042 c 0,46,47
 638 1042 638 1042 683 1001 c 1,48,49
 723 962 723 962 755 904 c 1,23,24
EndSplineSet
EndChar
StartChar: uniFEA0
Encoding: 65184 65184 90
Width: 1052
GlyphClass: 2
Flags: W
LayerCount: 2
Fore
SplineSet
805 488 m 0,0,1
 822 496 822 496 827 506 c 1,2,3
 823 524 823 524 799 535 c 1,4,5
 721 563 721 563 638 580 c 128,-1,6
 555 597 555 597 469 617 c 1,7,8
 460 618 460 618 460 629 c 0,9,10
 460 639 460 639 467 656 c 0,11,12
 491 714 491 714 519.5 769.5 c 128,-1,13
 548 825 548 825 577 885 c 1,14,-1
 579 885 l 1,15,16
 648 868 648 868 787 836 c 128,-1,17
 926 804 926 804 982 761 c 0,18,19
 998 748 998 748 1000 725 c 1,20,-1
 1000 715 l 2,21,22
 1000 678 1000 678 987 652 c 0,23,24
 972 622 972 622 957 593 c 0,25,26
 932 541 932 541 903.5 495.5 c 128,-1,27
 875 450 875 450 845 403 c 0,28,29
 695 175 695 175 477.5 115 c 128,-1,30
 260 55 260 55 47 11 c 0,31,32
 32 8 32 8 0 0 c 1,33,-1
 128 276 l 1,34,-1
 130 277 l 1,35,-1
 133 277 l 1,36,-1
 134 279 l 1,37,38
 332 308 332 308 462.5 341.5 c 128,-1,39
 593 375 593 375 805 488 c 0,0,1
775 -106 m 1,40,41
 733 -160 733 -160 691 -212 c 128,-1,42
 649 -264 649 -264 607 -316 c 1,43,-1
 463 -181 l 1,44,45
 504 -128 504 -128 546.5 -76 c 128,-1,46
 589 -24 589 -24 631 29 c 1,47,-1
 775 -106 l 1,40,41
EndSplineSet
EndChar
StartChar: uniFEAA
Encoding: 65194 65194 97
Width: 845
GlyphClass: 2
Flags: W
LayerCount: 2
Fore
SplineSet
767 249 m 1,0,1
 734 225 734 225 706.5 189.5 c 128,-1,2
 679 154 679 154 655 115 c 1,3,4
 590 16 590 16 502 3 c 0,5,6
 483 1 483 1 462 1 c 0,7,8
 397 1 397 1 319 25 c 0,9,10
 286 35 286 35 156.5 89 c 128,-1,11
 27 143 27 143 3 166 c 0,12,13
 -3 172 -3 172 -3 177 c 0,14,15
 -3 187 -3 187 17 192 c 0,16,17
 162 228 162 228 322 238.5 c 128,-1,18
 482 249 482 249 634 274 c 0,19,20
 690 284 690 284 734 323 c 1,21,22
 747 336 747 336 762 336 c 0,23,24
 766 336 766 336 770 335 c 0,25,26
 796 327 796 327 796 301 c 0,27,28
 796 292 796 292 793 281 c 0,29,30
 786 257 786 257 767 249 c 1,0,1
EndSplineSet
EndChar
StartChar: uniFEAC
Encoding: 65196 65196 98
Width: 845
GlyphClass: 2
Flags: W
LayerCount: 2
Fore
SplineSet
767 249 m 1,0,1
 734 225 734 225 706.5 189.5 c 128,-1,2
 679 154 679 154 655 115 c 1,3,4
 590 16 590 16 502 3 c 0,5,6
 483 1 483 1 462 1 c 0,7,8
 397 1 397 1 319 25 c 0,9,10
 286 35 286 35 156.5 89 c 128,-1,11
 27 143 27 143 3 166 c 0,12,13
 -3 172 -3 172 -3 177 c 0,14,15
 -3 187 -3 187 17 192 c 0,16,17
 162 228 162 228 322 238.5 c 128,-1,18
 482 249 482 249 634 274 c 0,19,20
 690 284 690 284 734 323 c 1,21,22
 747 336 747 336 762 336 c 0,23,24
 766 336 766 336 770 335 c 0,25,26
 796 327 796 327 796 301 c 0,27,28
 796 292 796 292 793 281 c 0,29,30
 786 257 786 257 767 249 c 1,0,1
936 881 m 1,31,32
 894 827 894 827 852 775 c 128,-1,33
 810 723 810 723 768 671 c 1,34,-1
 624 806 l 1,35,36
 665 859 665 859 707.5 911 c 128,-1,37
 750 963 750 963 792 1016 c 1,38,-1
 936 881 l 1,31,32
EndSplineSet
EndChar
StartChar: uniFEAE
Encoding: 65198 65198 99
Width: 769
GlyphClass: 2
Flags: W
LayerCount: 2
Fore
SplineSet
717 339 m 1,0,1
 677 288 677 288 646 179 c 1,2,3
 611 66 611 66 529 29 c 0,4,5
 463 0 463 0 355 0 c 2,6,-1
 348 0 l 1,7,8
 313 1 313 1 173.5 17.5 c 128,-1,9
 34 34 34 34 6 49 c 0,10,11
 -3 54 -3 54 -3 60 c 0,12,13
 -3 68 -3 68 12 77 c 0,14,15
 141 152 141 152 292 206 c 128,-1,16
 443 260 443 260 582 326 c 0,17,18
 633 350 633 350 665 401 c 0,19,20
 677 422 677 422 697 422 c 0,21,22
 733 422 733 422 733 377 c 0,23,24
 733 351 733 351 717 339 c 1,0,1
EndSplineSet
EndChar
StartChar: uniFEB3
Encoding: 65203 65203 102
Width: 1120
GlyphClass: 2
Flags: W
LayerCount: 2
Fore
SplineSet
1067 578 m 0,0,1
 990 342 990 342 873 96 c 0,2,3
 862 73 862 73 847 73 c 0,4,5
 838 73 838 73 828 81 c 0,6,7
 820 87 820 87 820 102 c 0,8,9
 820 116 820 116 827 138 c 0,10,11
 836 168 836 168 851.5 197 c 128,-1,12
 867 226 867 226 879 257 c 1,13,14
 729 189 729 189 548 146.5 c 128,-1,15
 367 104 367 104 205 58 c 2,16,-1
 0 0 l 1,17,-1
 109 287 l 1,18,19
 319 332 319 332 529.5 376.5 c 128,-1,20
 740 421 740 421 921 493 c 1,21,22
 1018 530 1018 530 1053 585 c 0,23,24
 1054 587 1054 587 1056 587 c 256,25,26
 1058 587 1058 587 1061 585 c 0,27,28
 1067 581 1067 581 1067 578 c 0,0,1
EndSplineSet
EndChar
StartChar: uniFEB7
Encoding: 65207 65207 105
Width: 1120
GlyphClass: 2
Flags: W
LayerCount: 2
Fore
SplineSet
1067 578 m 0,0,1
 990 342 990 342 873 96 c 0,2,3
 862 73 862 73 847 73 c 0,4,5
 838 73 838 73 828 81 c 0,6,7
 820 87 820 87 820 102 c 0,8,9
 820 116 820 116 827 138 c 0,10,11
 836 168 836 168 851.5 197 c 128,-1,12
 867 226 867 226 879 257 c 1,13,14
 729 189 729 189 548 146.5 c 128,-1,15
 367 104 367 104 205 58 c 2,16,-1
 0 0 l 1,17,-1
 109 287 l 1,18,19
 319 332 319 332 529.5 376.5 c 128,-1,20
 740 421 740 421 921 493 c 1,21,22
 1018 530 1018 530 1053 585 c 0,23,24
 1054 587 1054 587 1056 587 c 256,25,26
 1058 587 1058 587 1061 585 c 0,27,28
 1067 581 1067 581 1067 578 c 0,0,1
937 1171 m 1,29,30
 907 1108 907 1108 867.5 1049.5 c 128,-1,31
 828 991 828 991 787 938 c 0,32,33
 780 929 780 929 773 929 c 0,34,35
 764 929 764 929 756 949 c 0,36,37
 713 1055 713 1055 661 1055 c 2,38,-1
 655 1055 l 1,39,40
 599 1048 599 1048 546.5 988.5 c 128,-1,41
 494 929 494 929 451.5 852 c 128,-1,42
 409 775 409 775 390 749 c 1,43,-1
 389 838 l 1,44,-1
 391 841 l 1,45,46
 417 892 417 892 469.5 982 c 128,-1,47
 522 1072 522 1072 586 1157 c 0,48,49
 649 1241 649 1241 719 1290 c 1,50,51
 748 1309 748 1309 777 1309 c 0,52,53
 820 1309 820 1309 865 1268 c 1,54,55
 905 1229 905 1229 937 1171 c 1,29,30
EndSplineSet
EndChar
StartChar: uniFEBF
Encoding: 65215 65215 111
Width: 1477
GlyphClass: 2
Flags: W
LayerCount: 2
Fore
SplineSet
1164 469 m 0,0,1
 1146 502 1146 502 1095 517 c 0,2,3
 1075 523 1075 523 1056 523 c 0,4,5
 1027 523 1027 523 1001 509 c 0,6,7
 929 470 929 470 873 413.5 c 128,-1,8
 817 357 817 357 762 301 c 1,9,10
 870 322 870 322 971.5 347 c 128,-1,11
 1073 372 1073 372 1161 415 c 0,12,13
 1174 421 1174 421 1174 436 c 0,14,15
 1174 449 1174 449 1164 469 c 0,0,1
613 418 m 0,16,17
 597 369 597 369 553 272 c 1,18,-1
 555 270 l 1,19,20
 625 276 625 276 682 289 c 1,21,22
 769 391 769 391 861 489 c 128,-1,23
 953 587 953 587 1051 680 c 1,24,25
 1099 724 1099 724 1195 743 c 0,26,27
 1217 747 1217 747 1237 747 c 0,28,29
 1303 747 1303 747 1343 699 c 0,30,31
 1381 653 1381 653 1381 604 c 0,32,33
 1381 571 1381 571 1363 537 c 0,34,35
 1319 452 1319 452 1268 383 c 0,36,37
 1196 287 1196 287 1090.5 219.5 c 128,-1,38
 985 152 985 152 863 107 c 1,39,-1
 862 106 l 1,40,41
 820 94 820 94 740.5 73 c 128,-1,42
 661 52 661 52 585 40 c 0,43,44
 535 32 535 32 496 32 c 0,45,46
 474 32 474 32 456 35 c 0,47,48
 415 40 415 40 415 68 c 0,49,50
 415 76 415 76 418 85 c 1,51,52
 348 56 348 56 218.5 32 c 128,-1,53
 89 8 89 8 0 0 c 1,54,-1
 119 275 l 1,55,56
 157 278 157 278 292 287 c 128,-1,57
 427 296 427 296 517 346 c 0,58,59
 577 380 577 380 604 446 c 1,60,61
 609 453 609 453 612 453 c 256,62,63
 615 453 615 453 615 442 c 0,64,65
 615 423 615 423 613 418 c 0,16,17
1348 1096 m 1,66,67
 1306 1042 1306 1042 1264 990 c 128,-1,68
 1222 938 1222 938 1180 886 c 1,69,-1
 1036 1021 l 1,70,71
 1077 1074 1077 1074 1119.5 1126 c 128,-1,72
 1162 1178 1162 1178 1204 1231 c 1,73,-1
 1348 1096 l 1,66,67
EndSplineSet
EndChar
StartChar: uniFEC3
Encoding: 65219 65219 114
Width: 1176
GlyphClass: 2
Flags: W
LayerCount: 2
Fore
SplineSet
403 1033 m 1,0,-1
 554 1273 l 1,1,-1
 598 616 l 1,2,-1
 447 376 l 1,3,-1
 403 1033 l 1,0,-1
128 276 m 1,4,-1
 129 276 l 1,5,-1
 129 277 l 1,6,7
 156 279 156 279 238 283 c 128,-1,8
 320 287 320 287 404 306 c 1,9,10
 492 407 492 407 584 505 c 128,-1,11
 676 603 676 603 775 696 c 0,12,13
 822 740 822 740 918 759 c 0,14,15
 940 763 940 763 960 763 c 0,16,17
 1026 763 1026 763 1066 715 c 0,18,19
 1104 669 1104 669 1104 621 c 0,20,21
 1104 588 1104 588 1086 553 c 0,22,23
 1042 468 1042 468 991 399 c 0,24,25
 838 194 838 194 548.5 109.5 c 128,-1,26
 259 25 259 25 10 1 c 1,27,-1
 11 3 l 1,28,29
 8 2 8 2 5.5 1 c 128,-1,30
 3 0 3 0 0 0 c 1,31,-1
 128 276 l 1,4,-1
887 485 m 0,32,33
 869 518 869 518 818 533 c 0,34,35
 798 539 798 539 779 539 c 0,36,37
 750 539 750 539 724 525 c 0,38,39
 652 486 652 486 596 430 c 128,-1,40
 540 374 540 374 485 317 c 1,41,42
 593 338 593 338 694.5 363.5 c 128,-1,43
 796 389 796 389 884 431 c 0,44,45
 897 437 897 437 897 452 c 0,46,47
 897 465 897 465 887 485 c 0,32,33
EndSplineSet
EndChar
StartChar: uniFECC
Encoding: 65228 65228 121
Width: 969
GlyphClass: 2
Flags: W
LayerCount: 2
Fore
SplineSet
496 120 m 1,0,1
 428 93 428 93 281.5 57.5 c 128,-1,2
 135 22 135 22 0 0 c 1,3,-1
 70 148 l 1,4,-1
 130 277 l 1,5,-1
 132 278 l 1,6,-1
 427 315 l 1,7,-1
 486 325 l 1,8,-1
 446 460 l 2,9,10
 445 463 445 463 445 466 c 0,11,12
 445 500 445 500 522 591 c 0,13,14
 607 691 607 691 625 705 c 1,15,16
 670 718 670 718 742 718 c 2,17,-1
 762 718 l 1,18,19
 848 716 848 716 881 685 c 0,20,21
 910 657 910 657 910 621 c 0,22,23
 910 604 910 604 904 585 c 0,24,25
 884 526 884 526 860 490 c 2,26,-1
 756 328 l 2,27,28
 699 238 699 238 620.5 186 c 128,-1,29
 542 134 542 134 496 120 c 1,0,1
EndSplineSet
EndChar
StartChar: uniFED3
Encoding: 65235 65235 126
Width: 800
GlyphClass: 2
Flags: W
LayerCount: 2
Fore
SplineSet
590 266 m 1,0,1
 506 170 506 170 406 117 c 128,-1,2
 306 64 306 64 197 41 c 2,3,-1
 0 0 l 1,4,-1
 128 277 l 1,5,6
 239 294 239 294 378.5 329 c 128,-1,7
 518 364 518 364 616 442 c 1,8,-1
 591 516 l 2,9,10
 571 576 571 576 556 576 c 0,11,12
 552 576 552 576 549 572 c 1,13,14
 517 544 517 544 465 528 c 0,15,16
 445 522 445 522 425 522 c 0,17,18
 394 522 394 522 364 537 c 0,19,20
 335 551 335 551 334 593 c 0,21,22
 333 596 333 596 333 599 c 0,23,24
 333 636 333 636 349 664 c 0,25,26
 382 726 382 726 413.5 792.5 c 128,-1,27
 445 859 445 859 487 916 c 0,28,29
 518 958 518 958 553 958 c 0,30,31
 575 958 575 958 599 941 c 0,32,33
 660 897 660 897 699 822 c 0,34,35
 737 747 737 747 737 656 c 0,36,37
 737 597 737 597 721 532 c 0,38,39
 680 366 680 366 590 266 c 1,0,1
675 1276 m 1,40,41
 633 1222 633 1222 591 1170 c 128,-1,42
 549 1118 549 1118 507 1066 c 1,43,-1
 363 1201 l 1,44,45
 404 1254 404 1254 446.5 1306 c 128,-1,46
 489 1358 489 1358 531 1411 c 1,47,-1
 675 1276 l 1,40,41
EndSplineSet
EndChar
StartChar: uniFED4
Encoding: 65236 65236 127
Width: 578
GlyphClass: 2
Flags: W
LayerCount: 2
Fore
SplineSet
682 600 m 1,0,1
 633 584 633 584 604.5 546.5 c 128,-1,2
 576 509 576 509 549 472 c 0,3,4
 537 456 537 456 537 439 c 0,5,6
 537 427 537 427 544 415 c 0,7,8
 559 385 559 385 583 373 c 1,9,10
 647 378 647 378 728 415 c 0,11,12
 759 430 759 430 759 465 c 0,13,14
 759 484 759 484 749 511 c 0,15,16
 721 584 721 584 682 600 c 1,0,1
480 113 m 0,17,18
 408 93 408 93 338 74.5 c 128,-1,19
 268 56 268 56 199 42 c 2,20,-1
 0 0 l 1,21,-1
 128 276 l 1,22,23
 199 287 199 287 268.5 297 c 128,-1,24
 338 307 338 307 408 320 c 1,25,26
 461 439 461 439 525.5 549.5 c 128,-1,27
 590 660 590 660 669 752 c 0,28,29
 752 850 752 850 827 850 c 0,30,31
 855 850 855 850 882 836 c 0,32,33
 948 801 948 801 948 706 c 0,34,35
 948 659 948 659 932 598 c 1,36,37
 872 434 872 434 763 298 c 128,-1,38
 654 162 654 162 480 113 c 0,17,18
997 1230 m 1,39,40
 955 1176 955 1176 913 1124 c 128,-1,41
 871 1072 871 1072 829 1020 c 1,42,-1
 685 1155 l 1,43,44
 726 1208 726 1208 768.5 1260 c 128,-1,45
 811 1312 811 1312 853 1365 c 1,46,-1
 997 1230 l 1,39,40
EndSplineSet
EndChar
StartChar: uniFED7
Encoding: 65239 65239 129
Width: 800
GlyphClass: 2
Flags: W
LayerCount: 2
Fore
SplineSet
590 266 m 1,0,1
 506 170 506 170 406 117 c 128,-1,2
 306 64 306 64 197 41 c 2,3,-1
 0 0 l 1,4,-1
 128 277 l 1,5,6
 239 294 239 294 378.5 329 c 128,-1,7
 518 364 518 364 616 442 c 1,8,-1
 591 516 l 2,9,10
 571 576 571 576 556 576 c 0,11,12
 552 576 552 576 549 572 c 1,13,14
 517 544 517 544 465 528 c 0,15,16
 445 522 445 522 425 522 c 0,17,18
 394 522 394 522 364 537 c 0,19,20
 335 551 335 551 334 593 c 0,21,22
 333 596 333 596 333 599 c 0,23,24
 333 636 333 636 349 664 c 0,25,26
 382 726 382 726 413.5 792.5 c 128,-1,27
 445 859 445 859 487 916 c 0,28,29
 518 958 518 958 553 958 c 0,30,31
 575 958 575 958 599 941 c 0,32,33
 660 897 660 897 699 822 c 0,34,35
 737 747 737 747 737 656 c 0,36,37
 737 597 737 597 721 532 c 0,38,39
 680 366 680 366 590 266 c 1,0,1
645 1175 m 1,40,41
 546 1157 546 1157 448 1138.5 c 128,-1,42
 350 1120 350 1120 252 1102 c 1,43,-1
 374 1346 l 1,44,45
 588 1384 588 1384 768 1419 c 1,46,-1
 645 1175 l 1,40,41
EndSplineSet
EndChar
StartChar: uniFEDF
Encoding: 65247 65247 135
Width: 642
GlyphClass: 2
Flags: W
LayerCount: 2
Fore
SplineSet
586 447 m 0,0,1
 527 214 527 214 321 104 c 0,2,3
 250 66 250 66 164 43 c 128,-1,4
 78 20 78 20 0 0 c 1,5,-1
 0 1 l 1,6,-1
 3 8 l 1,7,-1
 89 273 l 1,8,9
 185 287 185 287 274.5 307 c 128,-1,10
 364 327 364 327 456 367 c 1,11,12
 456 523 456 523 440.5 812.5 c 128,-1,13
 425 1102 425 1102 415 1257 c 1,14,-1
 566 1497 l 1,15,-1
 609 668 l 2,16,17
 610 650 610 650 610 632 c 0,18,19
 610 588 610 588 605 547 c 0,20,21
 597 490 597 490 586 447 c 0,0,1
EndSplineSet
EndChar
StartChar: uniFEE0
Encoding: 65248 65248 136
Width: 505
GlyphClass: 2
Flags: W
LayerCount: 2
Fore
SplineSet
414 1160 m 1,0,-1
 565 1410 l 1,1,-1
 647 282 l 1,2,-1
 505 0 l 1,3,-1
 486 256 l 1,4,5
 378 97 378 97 275 70 c 128,-1,6
 172 43 172 43 0 0 c 1,7,-1
 88 273 l 1,8,9
 208 291 208 291 293 301.5 c 128,-1,10
 378 312 378 312 477 363 c 1,11,-1
 414 1160 l 1,0,-1
EndSplineSet
EndChar
StartChar: uniFEE2
Encoding: 65250 65250 137
Width: 1056
GlyphClass: 2
Flags: W
LayerCount: 2
Fore
SplineSet
991 1031 m 0,0,1
 917 662 917 662 626 515 c 0,2,3
 526 464 526 464 400 438 c 128,-1,4
 274 412 274 412 175 358 c 0,5,6
 135 337 135 337 98.5 303.5 c 128,-1,7
 62 270 62 270 73 204 c 2,8,-1
 157 -330 l 1,9,10
 184 -547 184 -547 130 -737 c 1,11,12
 101 -521 101 -521 51 -321.5 c 128,-1,13
 1 -122 1 -122 0 101 c 0,14,15
 0 212 0 212 23 318 c 128,-1,16
 46 424 46 424 85 511 c 1,17,18
 136 590 136 590 224.5 627 c 128,-1,19
 313 664 313 664 426 696 c 2,20,-1
 575 738 l 1,21,22
 602 797 602 797 663 950.5 c 128,-1,23
 724 1104 724 1104 779 1104 c 1,24,25
 816 1116 816 1116 911 1112 c 128,-1,26
 1006 1108 1006 1108 991 1031 c 0,0,1
EndSplineSet
EndChar
StartChar: uniFEE3
Encoding: 65251 65251 138
Width: 851
GlyphClass: 2
Flags: W
LayerCount: 2
Fore
SplineSet
796 616 m 0,0,1
 762 448 762 448 687 341 c 128,-1,2
 612 234 612 234 483 158 c 1,3,-1
 483 158 l 1,4,5
 382 103 382 103 260 69 c 128,-1,6
 138 35 138 35 0 0 c 1,7,-1
 87 270 l 1,8,-1
 150 280 l 2,9,10
 213 289 213 289 271.5 303 c 128,-1,11
 330 317 330 317 391 335 c 1,12,-1
 391 334 l 1,13,-1
 395 336 l 1,14,15
 422 395 422 395 476 542 c 128,-1,16
 530 689 530 689 584 689 c 1,17,18
 621 701 621 701 716 697 c 128,-1,19
 811 693 811 693 796 616 c 0,0,1
EndSplineSet
EndChar
StartChar: uniFEE7
Encoding: 65255 65255 141
Width: 604
GlyphClass: 2
Flags: W
LayerCount: 2
Fore
SplineSet
562 506 m 0,0,1
 550 406 550 406 494.5 296 c 128,-1,2
 439 186 439 186 364 121 c 0,3,4
 298 63 298 63 210.5 37.5 c 128,-1,5
 123 12 123 12 0 0 c 1,6,-1
 119 275 l 1,7,-1
 121 275 l 1,8,9
 208 285 208 285 281.5 299 c 128,-1,10
 355 313 355 313 412 352 c 1,11,12
 411 394 411 394 390 463.5 c 128,-1,13
 369 533 369 533 349 593 c 1,14,-1
 506 825 l 1,15,-1
 541 733 l 2,16,17
 566 667 566 667 566 580 c 0,18,19
 566 545 566 545 562 506 c 0,0,1
555 1083 m 1,20,21
 513 1029 513 1029 471 977 c 128,-1,22
 429 925 429 925 387 873 c 1,23,-1
 243 1008 l 1,24,25
 284 1061 284 1061 326.5 1113 c 128,-1,26
 369 1165 369 1165 411 1218 c 1,27,-1
 555 1083 l 1,20,21
EndSplineSet
EndChar
StartChar: uniFEE8
Encoding: 65256 65256 142
Width: 419
GlyphClass: 2
Flags: W
LayerCount: 2
Fore
SplineSet
423 50 m 1,0,-1
 421 50 l 2,1,2
 412 50 412 50 412 61 c 0,3,4
 412 69 412 69 418 85 c 1,5,6
 348 56 348 56 218.5 32 c 128,-1,7
 89 8 89 8 0 0 c 1,8,-1
 119 275 l 1,9,10
 157 278 157 278 292 287 c 128,-1,11
 427 296 427 296 517 346 c 0,12,13
 577 380 577 380 604 446 c 1,14,15
 609 453 609 453 612 453 c 256,16,17
 615 453 615 453 615 442 c 0,18,19
 615 423 615 423 613 418 c 0,20,21
 590 346 590 346 545 239 c 128,-1,22
 500 132 500 132 423 50 c 1,0,-1
570 757 m 1,23,24
 528 703 528 703 486 651 c 128,-1,25
 444 599 444 599 402 547 c 1,26,-1
 258 682 l 1,27,28
 299 735 299 735 341.5 787 c 128,-1,29
 384 839 384 839 426 892 c 1,30,-1
 570 757 l 1,23,24
EndSplineSet
EndChar
StartChar: uniFEEC
Encoding: 65260 65260 145
Width: 1286
GlyphClass: 2
Flags: W
LayerCount: 2
Fore
SplineSet
365 86 m 1,0,-1
 28 7 l 2,1,2
 21 5 21 5 13.5 3 c 128,-1,3
 6 1 6 1 0 0 c 1,4,-1
 93 271 l 1,5,-1
 161 282 l 1,6,-1
 287 303 l 1,7,8
 338 418 338 418 403.5 528.5 c 128,-1,9
 469 639 469 639 544 729 c 1,10,-1
 544 730 l 2,11,12
 544 739 544 739 589 805 c 0,13,14
 639 877 639 877 693 904 c 0,15,16
 723 918 723 918 758 918 c 0,17,18
 820 918 820 918 899 874 c 0,19,20
 1023 805 1023 805 1107 775 c 1,21,22
 1219 721 1219 721 1219 624 c 2,23,-1
 1219 614 l 1,24,25
 1213 509 1213 509 1141 400 c 0,26,27
 1022 220 1022 220 844 116 c 0,28,29
 740 55 740 55 595 55 c 0,30,31
 491 55 491 55 365 86 c 1,0,-1
566 588 m 1,32,33
 518 571 518 571 489.5 533.5 c 128,-1,34
 461 496 461 496 434 460 c 0,35,36
 422 443 422 443 422 427 c 0,37,38
 422 414 422 414 429 402 c 0,39,40
 444 373 444 373 468 361 c 1,41,42
 533 365 533 365 613 403 c 0,43,44
 643 418 643 418 643 452 c 0,45,46
 643 472 643 472 633 499 c 0,47,48
 605 572 605 572 566 588 c 1,32,33
1013 494 m 0,49,50
 950 533 950 533 920.5 544.5 c 128,-1,51
 891 556 891 556 817 586 c 1,52,53
 789 509 789 509 750.5 442 c 128,-1,54
 712 375 712 375 667 314 c 1,55,-1
 675 314 l 2,56,57
 709 314 709 314 779 328 c 0,58,59
 857 343 857 343 927.5 368.5 c 128,-1,60
 998 394 998 394 1033 427 c 0,61,62
 1046 440 1046 440 1046 453 c 0,63,64
 1046 473 1046 473 1013 494 c 0,49,50
EndSplineSet
EndChar
StartChar: uniFEF3
Encoding: 65267 65267 149
Width: 604
GlyphClass: 2
Flags: W
LayerCount: 2
Fore
SplineSet
562 506 m 0,0,1
 550 406 550 406 494.5 296 c 128,-1,2
 439 186 439 186 364 121 c 0,3,4
 298 63 298 63 210.5 37.5 c 128,-1,5
 123 12 123 12 0 0 c 1,6,-1
 119 275 l 1,7,-1
 121 275 l 1,8,9
 208 285 208 285 281.5 299 c 128,-1,10
 355 313 355 313 412 352 c 1,11,12
 411 394 411 394 390 463.5 c 128,-1,13
 369 533 369 533 349 593 c 1,14,-1
 506 825 l 1,15,-1
 541 733 l 2,16,17
 566 667 566 667 566 580 c 0,18,19
 566 545 566 545 562 506 c 0,0,1
452 -322 m 1,20,21
 353 -340 353 -340 255 -358.5 c 128,-1,22
 157 -377 157 -377 59 -395 c 1,23,-1
 181 -151 l 1,24,25
 395 -113 395 -113 575 -78 c 1,26,-1
 452 -322 l 1,20,21
EndSplineSet
EndChar
StartChar: uniFEF5
Encoding: 65269 65269 151
Width: 1412
GlyphClass: 3
Flags: W
LayerCount: 2
Fore
SplineSet
1345 911 m 1,0,1
 1337 623 1337 623 1174.5 405 c 128,-1,2
 1012 187 1012 187 748 87 c 0,3,4
 612 35 612 35 439.5 21 c 128,-1,5
 267 7 267 7 89 4 c 0,6,7
 70 3 70 3 26 1 c 0,8,9
 22 0 22 0 18 0 c 0,10,11
 -2 0 -2 0 -2 7 c 0,12,13
 -2 12 -2 12 8 20 c 1,14,15
 71 50 71 50 143.5 76 c 128,-1,16
 216 102 216 102 283 129 c 1,17,-1
 724 321 l 1,18,-1
 653 934 l 1,19,-1
 786 1180 l 1,20,21
 804 1021 804 1021 826 867.5 c 128,-1,22
 848 714 848 714 860 550 c 1,23,-1
 768 343 l 1,24,25
 883 393 883 393 992 450 c 128,-1,26
 1101 507 1101 507 1189 585 c 0,27,28
 1218 611 1218 611 1218 622 c 2,29,-1
 1218 623 l 1,30,31
 1206 712 1206 712 1193 802.5 c 128,-1,32
 1180 893 1180 893 1164 981 c 1,33,34
 1193 1044 1193 1044 1224 1104 c 128,-1,35
 1255 1164 1255 1164 1282 1228 c 1,36,37
 1301 1152 1301 1152 1317.5 1073.5 c 128,-1,38
 1334 995 1334 995 1345 911 c 1,0,1
1173 1440 m 1,39,-1
 1083 1325 l 1,40,41
 1008 1277 1008 1277 883 1252 c 0,42,43
 845 1244 845 1244 808 1244 c 0,44,45
 724 1244 724 1244 648 1284 c 0,46,47
 639 1288 639 1288 631 1288 c 0,48,49
 621 1288 621 1288 613 1283 c 0,50,51
 596 1272 596 1272 582 1264 c 0,52,53
 552 1246 552 1246 501 1192 c 0,54,55
 484 1174 484 1174 479 1174 c 0,56,57
 478 1174 478 1174 478 1176 c 0,58,59
 478 1187 478 1187 512 1246 c 0,60,61
 566 1340 566 1340 673 1394 c 0,62,63
 678 1396 678 1396 683 1396 c 0,64,65
 694 1396 694 1396 709 1389 c 0,66,67
 790 1348 790 1348 879 1348 c 0,68,69
 919 1348 919 1348 961 1356 c 0,70,71
 1095 1383 1095 1383 1165 1445 c 0,72,73
 1168 1448 1168 1448 1170 1448 c 0,74,75
 1173 1448 1173 1448 1173 1440 c 1,39,-1
EndSplineSet
EndChar
StartChar: uniFEF6
Encoding: 65270 65270 152
Width: 1497
GlyphClass: 3
Flags: W
LayerCount: 2
Fore
SplineSet
1454 871 m 2,0,1
 1454 882 1454 882 1442 892 c 0,2,3
 1439 894 1439 894 1435 894 c 0,4,5
 1426 894 1426 894 1415 875 c 0,6,7
 1330 741 1330 741 1288 616.5 c 128,-1,8
 1246 492 1246 492 1147 370 c 1,9,10
 989 178 989 178 748 87 c 0,11,12
 612 35 612 35 439.5 21 c 128,-1,13
 267 7 267 7 89 4 c 0,14,15
 70 3 70 3 26 1 c 0,16,17
 22 0 22 0 18 0 c 0,18,19
 -2 0 -2 0 -2 7 c 0,20,21
 -2 12 -2 12 8 20 c 1,22,23
 71 50 71 50 143.5 76 c 128,-1,24
 216 102 216 102 283 129 c 1,25,-1
 724 321 l 1,26,-1
 653 934 l 1,27,-1
 786 1180 l 1,28,29
 804 1021 804 1021 826 867.5 c 128,-1,30
 848 714 848 714 860 550 c 1,31,-1
 768 343 l 1,32,33
 831 370 831 370 893 399.5 c 128,-1,34
 955 429 955 429 1013 462 c 0,35,36
 1178 555 1178 555 1238.5 681 c 128,-1,37
 1299 807 1299 807 1386 982 c 0,38,39
 1411 1033 1411 1033 1453 1080.5 c 128,-1,40
 1495 1128 1495 1128 1548 1155 c 0,41,42
 1554 1158 1554 1158 1562 1158 c 0,43,44
 1568 1158 1568 1158 1576 1157 c 0,45,46
 1593 1153 1593 1153 1593 1141 c 2,47,-1
 1623 282 l 1,48,-1
 1497 0 l 1,49,-1
 1454 871 l 2,0,1
1173 1440 m 1,50,-1
 1083 1325 l 1,51,52
 1008 1277 1008 1277 883 1252 c 0,53,54
 845 1244 845 1244 808 1244 c 0,55,56
 724 1244 724 1244 648 1284 c 0,57,58
 639 1288 639 1288 631 1288 c 0,59,60
 621 1288 621 1288 613 1283 c 0,61,62
 596 1272 596 1272 582 1264 c 0,63,64
 552 1246 552 1246 501 1192 c 0,65,66
 484 1174 484 1174 479 1174 c 0,67,68
 478 1174 478 1174 478 1176 c 0,69,70
 478 1187 478 1187 512 1246 c 0,71,72
 566 1340 566 1340 673 1394 c 0,73,74
 678 1396 678 1396 683 1396 c 0,75,76
 694 1396 694 1396 709 1389 c 0,77,78
 790 1348 790 1348 879 1348 c 0,79,80
 919 1348 919 1348 961 1356 c 0,81,82
 1095 1383 1095 1383 1165 1445 c 0,83,84
 1168 1448 1168 1448 1170 1448 c 0,85,86
 1173 1448 1173 1448 1173 1440 c 1,50,-1
EndSplineSet
EndChar
StartChar: uniFEF7
Encoding: 65271 65271 153
Width: 1412
GlyphClass: 3
Flags: W
LayerCount: 2
Fore
SplineSet
1345 911 m 1,0,1
 1337 623 1337 623 1174.5 405 c 128,-1,2
 1012 187 1012 187 748 87 c 0,3,4
 612 35 612 35 439.5 21 c 128,-1,5
 267 7 267 7 89 4 c 0,6,7
 70 3 70 3 26 1 c 0,8,9
 22 0 22 0 18 0 c 0,10,11
 -2 0 -2 0 -2 7 c 0,12,13
 -2 12 -2 12 8 20 c 1,14,15
 71 50 71 50 143.5 76 c 128,-1,16
 216 102 216 102 283 129 c 1,17,-1
 724 321 l 1,18,-1
 653 934 l 1,19,-1
 786 1180 l 1,20,21
 804 1021 804 1021 826 867.5 c 128,-1,22
 848 714 848 714 860 550 c 1,23,-1
 768 343 l 1,24,25
 883 393 883 393 992 450 c 128,-1,26
 1101 507 1101 507 1189 585 c 0,27,28
 1218 611 1218 611 1218 622 c 2,29,-1
 1218 623 l 1,30,31
 1206 712 1206 712 1193 802.5 c 128,-1,32
 1180 893 1180 893 1164 981 c 1,33,34
 1193 1044 1193 1044 1224 1104 c 128,-1,35
 1255 1164 1255 1164 1282 1228 c 1,36,37
 1301 1152 1301 1152 1317.5 1073.5 c 128,-1,38
 1334 995 1334 995 1345 911 c 1,0,1
814 1575 m 2,39,40
 801 1547 801 1547 770 1534 c 128,-1,41
 739 1521 739 1521 716 1489 c 1,42,43
 734 1468 734 1468 765 1460 c 128,-1,44
 796 1452 796 1452 820 1437 c 0,45,46
 847 1419 847 1419 847 1390 c 0,47,48
 847 1373 847 1373 839 1354 c 0,49,50
 816 1299 816 1299 760 1259 c 0,51,52
 712 1224 712 1224 659.5 1216 c 128,-1,53
 607 1208 607 1208 552 1199 c 1,54,55
 599 1220 599 1220 648 1241 c 128,-1,56
 697 1262 697 1262 742 1287 c 1,57,58
 756 1296 756 1296 756 1303 c 0,59,60
 756 1306 756 1306 752 1309 c 0,61,62
 734 1319 734 1319 712.5 1328.5 c 128,-1,63
 691 1338 691 1338 674 1348 c 0,64,65
 636 1368 636 1368 636 1404 c 0,66,67
 636 1442 636 1442 680 1499 c 0,68,69
 764 1608 764 1608 805 1639 c 0,70,71
 822 1652 822 1652 858 1668 c 1,72,-1
 814 1575 l 2,39,40
EndSplineSet
EndChar
StartChar: uniFEF8
Encoding: 65272 65272 154
Width: 1497
GlyphClass: 3
Flags: W
LayerCount: 2
Fore
SplineSet
1454 871 m 2,0,1
 1454 882 1454 882 1442 892 c 0,2,3
 1439 894 1439 894 1435 894 c 0,4,5
 1426 894 1426 894 1415 875 c 0,6,7
 1330 741 1330 741 1288 616.5 c 128,-1,8
 1246 492 1246 492 1147 370 c 1,9,10
 989 178 989 178 748 87 c 0,11,12
 612 35 612 35 439.5 21 c 128,-1,13
 267 7 267 7 89 4 c 0,14,15
 70 3 70 3 26 1 c 0,16,17
 22 0 22 0 18 0 c 0,18,19
 -2 0 -2 0 -2 7 c 0,20,21
 -2 12 -2 12 8 20 c 1,22,23
 71 50 71 50 143.5 76 c 128,-1,24
 216 102 216 102 283 129 c 1,25,-1
 724 321 l 1,26,-1
 653 934 l 1,27,-1
 786 1180 l 1,28,29
 804 1021 804 1021 826 867.5 c 128,-1,30
 848 714 848 714 860 550 c 1,31,-1
 768 343 l 1,32,33
 831 370 831 370 893 399.5 c 128,-1,34
 955 429 955 429 1013 462 c 0,35,36
 1178 555 1178 555 1238.5 681 c 128,-1,37
 1299 807 1299 807 1386 982 c 0,38,39
 1411 1033 1411 1033 1453 1080.5 c 128,-1,40
 1495 1128 1495 1128 1548 1155 c 0,41,42
 1554 1158 1554 1158 1562 1158 c 0,43,44
 1568 1158 1568 1158 1576 1157 c 0,45,46
 1593 1153 1593 1153 1593 1141 c 2,47,-1
 1623 282 l 1,48,-1
 1497 0 l 1,49,-1
 1454 871 l 2,0,1
814 1575 m 2,50,51
 801 1547 801 1547 770 1534 c 128,-1,52
 739 1521 739 1521 716 1489 c 1,53,54
 734 1468 734 1468 765 1460 c 128,-1,55
 796 1452 796 1452 820 1437 c 0,56,57
 847 1419 847 1419 847 1390 c 0,58,59
 847 1373 847 1373 839 1354 c 0,60,61
 816 1299 816 1299 760 1259 c 0,62,63
 712 1224 712 1224 659.5 1216 c 128,-1,64
 607 1208 607 1208 552 1199 c 1,65,66
 599 1220 599 1220 648 1241 c 128,-1,67
 697 1262 697 1262 742 1287 c 1,68,69
 756 1296 756 1296 756 1303 c 0,70,71
 756 1306 756 1306 752 1309 c 0,72,73
 734 1319 734 1319 712.5 1328.5 c 128,-1,74
 691 1338 691 1338 674 1348 c 0,75,76
 636 1368 636 1368 636 1404 c 0,77,78
 636 1442 636 1442 680 1499 c 0,79,80
 764 1608 764 1608 805 1639 c 0,81,82
 822 1652 822 1652 858 1668 c 1,83,-1
 814 1575 l 2,50,51
EndSplineSet
EndChar
StartChar: uniFEF9
Encoding: 65273 65273 155
Width: 1412
GlyphClass: 3
Flags: W
LayerCount: 2
Fore
SplineSet
1345 911 m 1,0,1
 1337 623 1337 623 1174.5 405 c 128,-1,2
 1012 187 1012 187 748 87 c 0,3,4
 612 35 612 35 439.5 21 c 128,-1,5
 267 7 267 7 89 4 c 0,6,7
 70 3 70 3 26 1 c 0,8,9
 22 0 22 0 18 0 c 0,10,11
 -2 0 -2 0 -2 7 c 0,12,13
 -2 12 -2 12 8 20 c 1,14,15
 71 50 71 50 143.5 76 c 128,-1,16
 216 102 216 102 283 129 c 1,17,-1
 724 321 l 1,18,-1
 653 934 l 1,19,-1
 786 1180 l 1,20,21
 804 1021 804 1021 826 867.5 c 128,-1,22
 848 714 848 714 860 550 c 1,23,-1
 768 343 l 1,24,25
 883 393 883 393 992 450 c 128,-1,26
 1101 507 1101 507 1189 585 c 0,27,28
 1218 611 1218 611 1218 622 c 2,29,-1
 1218 623 l 1,30,31
 1206 712 1206 712 1193 802.5 c 128,-1,32
 1180 893 1180 893 1164 981 c 1,33,34
 1193 1044 1193 1044 1224 1104 c 128,-1,35
 1255 1164 1255 1164 1282 1228 c 1,36,37
 1301 1152 1301 1152 1317.5 1073.5 c 128,-1,38
 1334 995 1334 995 1345 911 c 1,0,1
814 -104 m 2,39,40
 801 -132 801 -132 770 -145 c 128,-1,41
 739 -158 739 -158 716 -190 c 1,42,43
 734 -211 734 -211 765 -219 c 128,-1,44
 796 -227 796 -227 820 -242 c 0,45,46
 847 -260 847 -260 847 -289 c 0,47,48
 847 -306 847 -306 839 -325 c 0,49,50
 816 -380 816 -380 760 -420 c 0,51,52
 712 -455 712 -455 659.5 -463 c 128,-1,53
 607 -471 607 -471 552 -480 c 1,54,55
 599 -459 599 -459 648 -438 c 128,-1,56
 697 -417 697 -417 742 -392 c 1,57,58
 756 -383 756 -383 756 -376 c 0,59,60
 756 -373 756 -373 752 -370 c 0,61,62
 734 -360 734 -360 712.5 -350.5 c 128,-1,63
 691 -341 691 -341 674 -331 c 0,64,65
 636 -311 636 -311 636 -275 c 0,66,67
 636 -237 636 -237 680 -180 c 0,68,69
 764 -71 764 -71 805 -40 c 0,70,71
 822 -27 822 -27 858 -11 c 1,72,-1
 814 -104 l 2,39,40
EndSplineSet
EndChar
StartChar: uniFEFA
Encoding: 65274 65274 156
Width: 1497
GlyphClass: 3
Flags: W
LayerCount: 2
Fore
SplineSet
1454 871 m 2,0,1
 1454 882 1454 882 1442 892 c 0,2,3
 1439 894 1439 894 1435 894 c 0,4,5
 1426 894 1426 894 1415 875 c 0,6,7
 1330 741 1330 741 1288 616.5 c 128,-1,8
 1246 492 1246 492 1147 370 c 1,9,10
 989 178 989 178 748 87 c 0,11,12
 612 35 612 35 439.5 21 c 128,-1,13
 267 7 267 7 89 4 c 0,14,15
 70 3 70 3 26 1 c 0,16,17
 22 0 22 0 18 0 c 0,18,19
 -2 0 -2 0 -2 7 c 0,20,21
 -2 12 -2 12 8 20 c 1,22,23
 71 50 71 50 143.5 76 c 128,-1,24
 216 102 216 102 283 129 c 1,25,-1
 724 321 l 1,26,-1
 653 934 l 1,27,-1
 786 1180 l 1,28,29
 804 1021 804 1021 826 867.5 c 128,-1,30
 848 714 848 714 860 550 c 1,31,-1
 768 343 l 1,32,33
 831 370 831 370 893 399.5 c 128,-1,34
 955 429 955 429 1013 462 c 0,35,36
 1178 555 1178 555 1238.5 681 c 128,-1,37
 1299 807 1299 807 1386 982 c 0,38,39
 1411 1033 1411 1033 1453 1080.5 c 128,-1,40
 1495 1128 1495 1128 1548 1155 c 0,41,42
 1554 1158 1554 1158 1562 1158 c 0,43,44
 1568 1158 1568 1158 1576 1157 c 0,45,46
 1593 1153 1593 1153 1593 1141 c 2,47,-1
 1623 282 l 1,48,-1
 1497 0 l 1,49,-1
 1454 871 l 2,0,1
814 -104 m 2,50,51
 801 -132 801 -132 770 -145 c 128,-1,52
 739 -158 739 -158 716 -190 c 1,53,54
 734 -211 734 -211 765 -219 c 128,-1,55
 796 -227 796 -227 820 -242 c 0,56,57
 847 -260 847 -260 847 -289 c 0,58,59
 847 -306 847 -306 839 -325 c 0,60,61
 816 -380 816 -380 760 -420 c 0,62,63
 712 -455 712 -455 659.5 -463 c 128,-1,64
 607 -471 607 -471 552 -480 c 1,65,66
 599 -459 599 -459 648 -438 c 128,-1,67
 697 -417 697 -417 742 -392 c 1,68,69
 756 -383 756 -383 756 -376 c 0,70,71
 756 -373 756 -373 752 -370 c 0,72,73
 734 -360 734 -360 712.5 -350.5 c 128,-1,74
 691 -341 691 -341 674 -331 c 0,75,76
 636 -311 636 -311 636 -275 c 0,77,78
 636 -237 636 -237 680 -180 c 0,79,80
 764 -71 764 -71 805 -40 c 0,81,82
 822 -27 822 -27 858 -11 c 1,83,-1
 814 -104 l 2,50,51
EndSplineSet
EndChar
StartChar: _.notdef_1
Encoding: 65574 -1 287
Width: 720
GlyphClass: 2
Flags: W
AnchorPoint: "Anchor-14" 243 -387 basechar 0
AnchorPoint: "Anchor-13" 306 -387 basechar 0
AnchorPoint: "Anchor-12" 558 1197 basechar 0
AnchorPoint: "Anchor-11" 603 1179 basechar 0
LayerCount: 2
Fore
SplineSet
565 667 m 1,0,1
 513 653 513 653 470.5 637 c 128,-1,2
 428 621 428 621 383 582 c 1,3,4
 409 538 409 538 460 521 c 128,-1,5
 511 504 511 504 548.5 483.5 c 128,-1,6
 586 463 586 463 592 424 c 0,7,8
 593 420 593 420 593 416 c 0,9,10
 593 376 593 376 534 296 c 0,11,12
 481 224 481 224 428.5 152 c 128,-1,13
 376 80 376 80 297 37 c 0,14,15
 249 10 249 10 159 4 c 0,16,17
 110 1 110 1 72 1 c 0,18,19
 41 1 41 1 17 3 c 0,20,21
 -1 5 -1 5 -1 12 c 0,22,23
 -1 21 -1 21 26 38 c 0,24,25
 75 69 75 69 151.5 104.5 c 128,-1,26
 228 140 228 140 300 170 c 128,-1,27
 372 200 372 200 377 202 c 0,28,29
 402 213 402 213 405 223 c 1,30,-1
 405 227 l 2,31,32
 405 246 405 246 367 255 c 0,33,34
 298 271 298 271 259 307 c 1,35,36
 209 350 209 350 209 394 c 0,37,38
 209 404 209 404 212 415 c 0,39,40
 226 469 226 469 262 527 c 0,41,42
 329 635 329 635 441.5 737 c 128,-1,43
 554 839 554 839 647 871 c 0,44,45
 661 876 661 876 669 876 c 0,46,47
 682 876 682 876 682 865 c 0,48,49
 682 862 682 862 681 860 c 0,50,51
 676 834 676 834 653 795 c 128,-1,52
 630 756 630 756 601 717.5 c 128,-1,53
 572 679 572 679 565 667 c 1,0,1
EndSplineSet
EndChar
StartChar: _.notdef_10
Encoding: 65583 -1 296
Width: 1143
GlyphClass: 2
Flags: W
AnchorPoint: "Cursive-0" 0 0 exit 0
AnchorPoint: "Anchor-14" 540 -288 basechar 0
AnchorPoint: "Anchor-13" 621 -378 basechar 0
AnchorPoint: "Anchor-12" 684 1116 basechar 0
AnchorPoint: "Anchor-11" 711 1134 basechar 0
LayerCount: 2
Fore
SplineSet
765 405 m 0,0,1
 734 477 734 477 691 511 c 0,2,3
 660 535 660 535 631 535 c 0,4,5
 601 535 601 535 573 510 c 0,6,7
 531 473 531 473 508.5 424.5 c 128,-1,8
 486 376 486 376 465 324 c 1,9,-1
 755 381 l 2,10,11
 767 384 767 384 767 394 c 0,12,13
 767 399 767 399 765 405 c 0,0,1
43 254 m 1,14,-1
 45 254 l 1,15,-1
 49 255 l 1,16,-1
 414 320 l 1,17,18
 433 374 433 374 471 463.5 c 128,-1,19
 509 553 509 553 561.5 631 c 128,-1,20
 614 709 614 709 679 754 c 0,21,22
 715 778 715 778 754 778 c 0,23,24
 785 778 785 778 818 762 c 0,25,26
 878 733 878 733 913 669.5 c 128,-1,27
 948 606 948 606 971 529 c 1,28,29
 999 498 999 498 1036 498 c 0,30,31
 1061 498 1061 498 1089 512 c 1,32,-1
 958 230 l 1,33,34
 811 184 811 184 671 153.5 c 128,-1,35
 531 123 531 123 369 82 c 1,36,37
 359 62 359 62 351 23.5 c 128,-1,38
 343 -15 343 -15 317 -24 c 0,39,40
 313 -25 313 -25 310 -25 c 0,41,42
 297 -25 297 -25 297 -12 c 0,43,44
 297 -9 297 -9 298 -5 c 0,45,46
 300 7 300 7 305 28.5 c 128,-1,47
 310 50 310 50 313 66 c 1,48,49
 265 56 265 56 199 44 c 1,50,-1
 198 41 l 1,51,52
 132 29 132 29 67 16 c 0,53,54
 61 14 61 14 56 12.5 c 128,-1,55
 51 11 51 11 46 10 c 1,56,-1
 46 11 l 1,57,58
 34 8 34 8 23 5.5 c 128,-1,59
 12 3 12 3 0 1 c 1,60,-1
 43 254 l 1,14,-1
EndSplineSet
Substitution2: "Single Substitution lookup 33 subtable" _.notdef_266
Substitution2: "Single Substitution lookup 32 subtable" _.notdef_242
Substitution2: "Single Substitution lookup 31 subtable" _.notdef_218
Substitution2: "Single Substitution lookup 30 subtable" _.notdef_194
Substitution2: "Single Substitution lookup 29 subtable" _.notdef_170
Substitution2: "Single Substitution lookup 28 subtable" _.notdef_146
Substitution2: "Single Substitution lookup 27 subtable" _.notdef_122
Substitution2: "Single Substitution lookup 26 subtable" _.notdef_98
Substitution2: "Single Substitution lookup 25 subtable" _.notdef_74
EndChar
StartChar: _.notdef_101
Encoding: 65654 -1 237
Width: 1302
GlyphClass: 2
Flags: W
AnchorPoint: "Anchor-17" 0 0 basechar 0
AnchorPoint: "Cursive-7" 0 0 exit 0
AnchorPoint: "Anchor-14" 612 1494 basechar 0
AnchorPoint: "Anchor-16" 828 -207 basechar 0
AnchorPoint: "Anchor-15" 909 1017 basechar 0
LayerCount: 2
Fore
SplineSet
513 1022 m 1,0,-1
 665 1263 l 1,1,-1
 709 606 l 1,2,-1
 557 366 l 1,3,-1
 513 1022 l 1,0,-1
1097 429 m 0,4,5
 958 243 958 243 705 140 c 128,-1,6
 452 37 452 37 215 3 c 1,7,-1
 214 3 l 1,8,-1
 214 4 l 1,9,10
 188 1 188 1 166 1 c 0,11,12
 114 1 114 1 78 17 c 1,13,14
 -3 57 -3 57 -3 149 c 0,15,16
 -3 173 -3 173 3 202 c 0,17,18
 30 336 30 336 96 423 c 1,19,20
 102 433 102 433 104 433 c 1,21,-1
 104 431 l 2,22,23
 104 429 104 429 103 423 c 0,24,25
 100 408 100 408 100 392 c 0,26,27
 100 361 100 361 113 330 c 0,28,29
 132 285 132 285 173 276 c 1,30,31
 209 267 209 267 254 267 c 0,32,33
 271 267 271 267 290 268 c 1,34,-1
 290 270 l 1,35,-1
 292 270 l 1,36,37
 334 272 334 272 394.5 277 c 128,-1,38
 455 282 455 282 515 295 c 1,39,40
 602 397 602 397 694.5 495 c 128,-1,41
 787 593 787 593 885 686 c 1,42,43
 933 730 933 730 1029 749 c 0,44,45
 1051 753 1051 753 1071 753 c 0,46,47
 1137 753 1137 753 1177 705 c 1,48,49
 1213 660 1213 660 1213 620 c 0,50,51
 1213 590 1213 590 1194 563 c 0,52,53
 1148 498 1148 498 1097 429 c 0,4,5
998 475 m 1,54,55
 979 508 979 508 928 523 c 0,56,57
 908 529 908 529 889 529 c 0,58,59
 860 529 860 529 835 515 c 0,60,61
 763 476 763 476 707 420 c 128,-1,62
 651 364 651 364 595 307 c 1,63,64
 703 328 703 328 805 353.5 c 128,-1,65
 907 379 907 379 995 421 c 0,66,67
 1008 427 1008 427 1008 442 c 0,68,69
 1008 455 1008 455 998 475 c 1,54,55
EndSplineSet
EndChar
StartChar: _.notdef_104
Encoding: 65677 -1 255
Width: 1063
GlyphClass: 2
Flags: W
AnchorPoint: "Anchor-17" 0 0 basechar 0
AnchorPoint: "Cursive-7" 0 0 exit 0
AnchorPoint: "Anchor-16" 585 -297 basechar 0
AnchorPoint: "Anchor-14" 846 1899 basechar 0
AnchorPoint: "Anchor-15" 1071 1890 basechar 0
LayerCount: 2
Fore
SplineSet
461 102 m 0,0,1
 414 77 414 77 283 27 c 0,2,3
 205 -2 205 -2 148 -2 c 0,4,5
 108 -2 108 -2 78 12 c 0,6,7
 -2 51 -2 51 -2 143 c 0,8,9
 -2 164 -2 164 2 189 c 0,10,11
 25 317 25 317 87 407 c 0,12,13
 94 418 94 418 98 418 c 0,14,15
 101 418 101 418 101 407 c 1,16,17
 97 385 97 385 97 368 c 0,18,19
 97 304 97 304 147 286 c 0,20,21
 188 271 188 271 239 271 c 0,22,23
 268 271 268 271 301 276 c 0,24,25
 391 289 391 289 478.5 320.5 c 128,-1,26
 566 352 566 352 596 365 c 1,27,28
 596 521 596 521 583.5 685.5 c 128,-1,29
 571 850 571 850 561 1004 c 1,30,-1
 685 1200 l 1,31,-1
 751 1439 l 1,32,33
 916 1535 916 1535 1081.5 1632 c 128,-1,34
 1247 1729 1247 1729 1413 1826 c 0,35,36
 1422 1831 1422 1831 1427 1831 c 0,37,38
 1436 1831 1436 1831 1436 1819 c 0,39,40
 1436 1816 1436 1816 1435 1812 c 2,41,-1
 1368 1573 l 1,42,43
 1205 1477 1205 1477 1041.5 1382 c 128,-1,44
 878 1287 878 1287 716 1192 c 1,45,-1
 749 666 l 2,46,47
 750 645 750 645 750 624 c 0,48,49
 750 475 750 475 688 340 c 0,50,51
 617 185 617 185 461 102 c 0,0,1
EndSplineSet
EndChar
StartChar: _.notdef_11
Encoding: 65584 -1 297
Width: 577
GlyphClass: 2
Flags: W
AnchorPoint: "Cursive-0" 0 0 exit 0
AnchorPoint: "Anchor-11" 360 1188 basechar 0
AnchorPoint: "Anchor-12" 369 1269 basechar 0
AnchorPoint: "Cursive-3" 468 594 entry 0
AnchorPoint: "Anchor-13" 639 -297 basechar 0
AnchorPoint: "Anchor-14" 648 -180 basechar 0
LayerCount: 2
Fore
SplineSet
805 488 m 1,0,1
 822 496 822 496 827 506 c 1,2,3
 820 531 820 531 761 545 c 0,4,5
 694 560 694 560 601 563 c 128,-1,6
 508 566 508 566 469 575 c 1,7,8
 451 578 451 578 466 614 c 0,9,10
 491 672 491 672 519.5 727.5 c 128,-1,11
 548 783 548 783 577 843 c 1,12,-1
 578 843 l 1,13,14
 642 846 642 846 784 825 c 128,-1,15
 926 804 926 804 982 761 c 1,16,17
 1018 732 1018 732 994.5 677 c 128,-1,18
 971 622 971 622 957 592 c 0,19,20
 932 541 932 541 903.5 495.5 c 128,-1,21
 875 450 875 450 845 403 c 0,22,23
 695 175 695 175 47 10 c 1,24,-1
 47 10 l 1,25,26
 12 3 12 3 0 0 c 1,27,-1
 0 0 l 1,28,-1
 50 264 l 1,29,-1
 52 264 l 1,30,-1
 55 265 l 1,31,-1
 56 266 l 1,32,33
 530 327 530 327 805 488 c 1,0,1
EndSplineSet
Substitution2: "Single Substitution lookup 33 subtable" _.notdef_278
Substitution2: "Single Substitution lookup 32 subtable" _.notdef_254
Substitution2: "Single Substitution lookup 31 subtable" _.notdef_230
Substitution2: "Single Substitution lookup 30 subtable" _.notdef_206
Substitution2: "Single Substitution lookup 29 subtable" _.notdef_182
Substitution2: "Single Substitution lookup 28 subtable" _.notdef_158
Substitution2: "Single Substitution lookup 27 subtable" _.notdef_134
Substitution2: "Single Substitution lookup 26 subtable" _.notdef_110
Substitution2: "Single Substitution lookup 25 subtable" _.notdef_86
EndChar
StartChar: _.notdef_115
Encoding: 65668 -1 251
Width: 593
GlyphClass: 2
Flags: W
AnchorPoint: "Anchor-17" 0 0 basechar 0
AnchorPoint: "Cursive-7" 0 0 exit 0
AnchorPoint: "Cursive-3" 450 18 entry 0
AnchorPoint: "Anchor-16" 612 -243 basechar 0
AnchorPoint: "Anchor-14" 738 1179 basechar 0
AnchorPoint: "Anchor-15" 783 1179 basechar 0
LayerCount: 2
Fore
SplineSet
494 78 m 1,0,1
 430 63 430 63 289 21 c 0,2,3
 209 -3 209 -3 153 -3 c 0,4,5
 108 -3 108 -3 78 12 c 0,6,7
 -2 51 -2 51 -2 143 c 0,8,9
 -2 166 -2 166 3 192 c 0,10,11
 27 322 27 322 90 411 c 0,12,13
 97 422 97 422 100 422 c 0,14,15
 102 422 102 422 102 416 c 2,16,-1
 102 411 l 1,17,18
 101 400 101 400 101 389 c 0,19,20
 101 355 101 355 115 323 c 0,21,22
 134 280 134 280 173 271 c 0,23,24
 208 262 208 262 243 262 c 0,25,26
 271 262 271 262 298 268 c 0,27,28
 360 280 360 280 421 292 c 1,29,30
 537 548 537 548 682 717 c 0,31,32
 765 815 765 815 840 815 c 0,33,34
 868 815 868 815 895 801 c 0,35,36
 961 767 961 767 961 672 c 0,37,38
 961 625 961 625 945 564 c 1,39,40
 885 399 885 399 776.5 263 c 128,-1,41
 668 127 668 127 494 78 c 1,0,1
695 565 m 1,42,43
 646 549 646 549 618 511.5 c 128,-1,44
 590 474 590 474 563 437 c 0,45,46
 551 421 551 421 551 405 c 0,47,48
 551 392 551 392 558 380 c 0,49,50
 573 351 573 351 596 339 c 1,51,52
 661 342 661 342 741 380 c 0,53,54
 772 395 772 395 772 430 c 0,55,56
 772 449 772 449 762 476 c 0,57,58
 734 549 734 549 695 565 c 1,42,43
EndSplineSet
EndChar
StartChar: _.notdef_116
Encoding: 65689 -1 402
Width: 586
GlyphClass: 2
Flags: W
AnchorPoint: "Anchor-17" 0 0 basechar 0
AnchorPoint: "Cursive-7" 0 0 exit 0
AnchorPoint: "Cursive-4" 576 0 entry 0
AnchorPoint: "Cursive-0" 576 0 entry 0
AnchorPoint: "Anchor-16" 585 -360 basechar 0
AnchorPoint: "Anchor-14" 729 1881 basechar 0
AnchorPoint: "Anchor-15" 936 1782 basechar 0
LayerCount: 2
Fore
SplineSet
494 1026 m 1,0,-1
 627 1247 l 1,1,-1
 673 1413 l 1,2,3
 838 1509 838 1509 986.5 1592 c 128,-1,4
 1135 1675 1135 1675 1300 1772 c 1,5,6
 1309 1776 1309 1776 1314 1776 c 0,7,8
 1323 1776 1323 1776 1323 1765 c 0,9,10
 1323 1762 1323 1762 1322 1759 c 2,11,-1
 1256 1520 l 1,12,13
 1096 1427 1096 1427 953 1346.5 c 128,-1,14
 810 1266 810 1266 653 1175 c 1,15,-1
 734 218 l 1,16,-1
 586 0 l 1,17,-1
 566 256 l 1,18,19
 506 168 506 168 340 70 c 1,20,21
 227 2 227 2 146 2 c 0,22,23
 109 2 109 2 78 17 c 0,24,25
 -3 57 -3 57 -3 149 c 0,26,27
 -3 175 -3 175 4 204 c 1,28,29
 32 340 32 340 98 426 c 0,30,31
 101 430 101 430 103 430 c 0,32,33
 104 430 104 430 104 426 c 0,34,35
 97 396 97 396 97 372 c 0,36,37
 97 316 97 316 137 296 c 0,38,39
 179 275 179 275 236 275 c 0,40,41
 255 275 255 275 277 278 c 0,42,43
 360 287 360 287 443.5 317 c 128,-1,44
 527 347 527 347 558 363 c 1,45,-1
 494 1026 l 1,0,-1
EndSplineSet
EndChar
StartChar: _.notdef_117
Encoding: 65685 -1 253
Width: 585
GlyphClass: 2
Flags: W
AnchorPoint: "Anchor-17" 0 0 basechar 0
AnchorPoint: "Anchor-15" 0 0 basechar 0
AnchorPoint: "Cursive-7" 0 0 exit 0
AnchorPoint: "Anchor-14" 567 1737 basechar 0
AnchorPoint: "Cursive-4" 576 0 entry 0
AnchorPoint: "Cursive-0" 576 0 entry 0
AnchorPoint: "Anchor-16" 657 -333 basechar 0
LayerCount: 2
Fore
SplineSet
511 991 m 1,0,-1
 663 1241 l 1,1,-1
 731 213 l 1,2,-1
 585 0 l 1,3,-1
 565 256 l 1,4,5
 508 171 508 171 352 74 c 0,6,7
 254 13 254 13 171 13 c 0,8,9
 122 13 122 13 78 34 c 0,10,11
 -3 73 -3 73 -3 166 c 0,12,13
 -3 193 -3 193 4 225 c 0,14,15
 35 364 35 364 103 449 c 1,16,17
 102 448 102 448 102 447 c 1,18,-1
 103 447 l 1,19,-1
 105 449 l 1,20,21
 100 430 100 430 100 411 c 0,22,23
 100 381 100 381 112 352 c 0,24,25
 131 303 131 303 173 292 c 0,26,27
 206 283 206 283 246 283 c 0,28,29
 303 283 303 283 375 302 c 1,30,31
 496 332 496 332 557 363 c 1,32,-1
 511 991 l 1,0,-1
EndSplineSet
EndChar
StartChar: _.notdef_118
Encoding: 65691 -1 269
Width: 739
GlyphClass: 2
Flags: W
AnchorPoint: "Anchor-17" 0 0 basechar 0
AnchorPoint: "Anchor-15" 0 0 basechar 0
AnchorPoint: "Cursive-7" 0 0 exit 0
AnchorPoint: "Cursive-6" 648 432 entry 0
AnchorPoint: "Anchor-16" 720 -315 basechar 0
AnchorPoint: "Anchor-14" 756 981 basechar 0
LayerCount: 2
Fore
SplineSet
71 19 m 1,0,1
 -24 72 -24 72 3.5 197.5 c 128,-1,2
 31 323 31 323 97 410 c 0,3,4
 116 434 116 434 113 409 c 0,5,6
 107 364 107 364 124.5 324 c 128,-1,7
 142 284 142 284 179 273 c 0,8,9
 227 258 227 258 296.5 261 c 128,-1,10
 366 264 366 264 435 278 c 0,11,12
 541 300 541 300 602 332 c 1,13,14
 614 358 614 358 631 400 c 128,-1,15
 648 442 648 442 669 484 c 0,16,17
 695 537 695 537 725 578.5 c 128,-1,18
 755 620 755 620 785 620 c 1,19,20
 822 631 822 631 917 627.5 c 128,-1,21
 1012 624 1012 624 997 547 c 0,22,23
 983 478 983 478 964.5 421 c 128,-1,24
 946 364 946 364 901 309 c 0,25,26
 858 256 858 256 800.5 216 c 128,-1,27
 743 176 743 176 682 146 c 0,28,29
 509 59 509 59 322 19 c 1,30,31
 140 -17 140 -17 71 19 c 1,0,1
EndSplineSet
EndChar
StartChar: _.notdef_119
Encoding: 65687 -1 255
Width: 790
GlyphClass: 2
Flags: W
AnchorPoint: "Anchor-17" 0 0 basechar 0
AnchorPoint: "Anchor-15" 0 0 basechar 0
AnchorPoint: "Cursive-7" 0 0 exit 0
AnchorPoint: "Anchor-14" 630 1359 basechar 0
AnchorPoint: "Cursive-6" 684 684 entry 0
AnchorPoint: "Anchor-16" 756 -315 basechar 0
LayerCount: 2
Fore
SplineSet
509 75 m 1,0,1
 449 61 449 61 300 20 c 0,2,3
 218 -2 218 -2 159 -2 c 0,4,5
 111 -2 111 -2 78 13 c 0,6,7
 -3 52 -3 52 -3 145 c 0,8,9
 -3 172 -3 172 4 204 c 0,10,11
 35 344 35 344 103 429 c 0,12,13
 103 430 103 430 104 430 c 256,14,15
 105 430 105 430 105 429 c 0,16,17
 100 410 100 410 100 391 c 0,18,19
 100 361 100 361 112 331 c 0,20,21
 131 282 131 282 173 272 c 1,22,23
 202 264 202 264 237 264 c 0,24,25
 268 264 268 264 304 271 c 0,26,27
 380 284 380 284 431 292 c 1,28,29
 483 407 483 407 548 517.5 c 128,-1,30
 613 628 613 628 689 718 c 1,31,32
 688 718 688 718 688 719 c 0,33,34
 688 729 688 729 734 794 c 0,35,36
 784 866 784 866 838 893 c 0,37,38
 867 907 867 907 902 907 c 0,39,40
 964 907 964 907 1043 863 c 0,41,42
 1167 794 1167 794 1251 764 c 1,43,44
 1364 711 1364 711 1364 613 c 2,45,-1
 1364 603 l 1,46,47
 1358 498 1358 498 1286 389 c 0,48,49
 1167 209 1167 209 989 105 c 0,50,51
 885 44 885 44 739 44 c 0,52,53
 635 44 635 44 509 75 c 1,0,1
711 577 m 1,54,55
 662 560 662 560 633.5 522.5 c 128,-1,56
 605 485 605 485 578 449 c 0,57,58
 566 433 566 433 566 416 c 0,59,60
 566 404 566 404 573 392 c 0,61,62
 588 362 588 362 612 350 c 1,63,64
 677 353 677 353 757 392 c 0,65,66
 788 407 788 407 788 442 c 0,67,68
 788 461 788 461 778 488 c 0,69,70
 750 561 750 561 711 577 c 1,54,55
1157 483 m 0,71,72
 1094 522 1094 522 1064.5 533.5 c 128,-1,73
 1035 545 1035 545 961 575 c 1,74,75
 933 498 933 498 894.5 431.5 c 128,-1,76
 856 365 856 365 811 303 c 1,77,-1
 819 303 l 2,78,79
 853 303 853 303 923 317 c 0,80,81
 1001 332 1001 332 1071.5 357.5 c 128,-1,82
 1142 383 1142 383 1177 416 c 0,83,84
 1190 429 1190 429 1190 442 c 0,85,86
 1190 462 1190 462 1157 483 c 0,71,72
EndSplineSet
EndChar
StartChar: _.notdef_120
Encoding: 65693 -1 396
Width: 527
GlyphClass: 2
Flags: W
AnchorPoint: "Anchor-17" 0 0 basechar 0
AnchorPoint: "Anchor-15" 0 0 basechar 0
AnchorPoint: "Cursive-7" 0 0 exit 0
AnchorPoint: "Cursive-11" 432 0 entry 0
AnchorPoint: "Anchor-16" 477 -900 basechar 0
AnchorPoint: "Anchor-14" 594 792 basechar 0
LayerCount: 2
Fore
SplineSet
527 -497 m 1,0,1
 525 -500 525 -500 523.5 -503 c 128,-1,2
 522 -506 522 -506 521 -509 c 0,3,4
 480 -596 480 -596 458 -596 c 0,5,6
 449 -596 449 -596 443 -580 c 0,7,8
 431 -548 431 -548 431 -487 c 0,9,10
 431 -449 431 -449 436 -400 c 1,11,-1
 474 75 l 1,12,13
 414 59 414 59 281 19 c 0,14,15
 207 -3 207 -3 154 -3 c 0,16,17
 109 -3 109 -3 78 12 c 0,18,19
 -2 52 -2 52 -2 144 c 0,20,21
 -2 168 -2 168 3 196 c 0,22,23
 29 329 29 329 94 416 c 0,24,25
 100 423 100 423 102 423 c 0,26,27
 103 423 103 423 103 420 c 2,28,-1
 103 416 l 1,29,30
 101 402 101 402 101 388 c 0,31,32
 101 356 101 356 114 325 c 0,33,34
 133 280 133 280 173 271 c 0,35,36
 196 265 196 265 235 265 c 0,37,38
 266 265 266 265 308 269 c 1,39,40
 386 283 386 283 458 305.5 c 128,-1,41
 530 328 530 328 605 358 c 1,42,43
 614 363 614 363 619 363 c 0,44,45
 627 363 627 363 627 353 c 0,46,47
 627 349 627 349 626 345 c 2,48,-1
 542 -249 l 1,49,-1
 558 -218 l 1,50,-1
 527 -497 l 1,0,1
EndSplineSet
Substitution2: "'ss01' Style Set 1 in Arabic lookup 48 subtable" _.notdef_119
EndChar
StartChar: _.notdef_127
Encoding: 65700 -1 413
Width: 783
GlyphClass: 2
Flags: W
AnchorPoint: "Anchor-14" 0 0 basechar 0
AnchorPoint: "Cursive-5" 0 0 exit 0
AnchorPoint: "Anchor-12" 504 1323 basechar 0
AnchorPoint: "Anchor-11" 513 1368 basechar 0
AnchorPoint: "Anchor-13" 567 -171 basechar 0
LayerCount: 2
Fore
SplineSet
583 306 m 0,0,1
 535 252 535 252 472 223.5 c 128,-1,2
 409 195 409 195 342 173 c 0,3,4
 305 160 305 160 268 146.5 c 128,-1,5
 231 133 231 133 195 117 c 1,6,7
 119 80 119 80 71 35 c 1,8,-1
 70 35 l 1,9,10
 35 -17 35 -17 8 22.5 c 128,-1,11
 -19 62 -19 62 28 118 c 1,12,-1
 28 120 l 1,13,14
 51 215 51 215 78 264 c 1,15,16
 120 335 120 335 206 366 c 128,-1,17
 292 397 292 397 477 442 c 1,18,19
 507 448 507 448 542 457 c 128,-1,20
 577 466 577 466 605 484 c 1,21,22
 602 493 602 493 578 561.5 c 128,-1,23
 554 630 554 630 539 612 c 1,24,25
 506 584 506 584 454 568 c 128,-1,26
 402 552 402 552 353 577 c 0,27,28
 325 591 325 591 323.5 633 c 128,-1,29
 322 675 322 675 338 704 c 0,30,31
 371 766 371 766 402.5 833 c 128,-1,32
 434 900 434 900 476 957 c 0,33,34
 527 1026 527 1026 588 982 c 128,-1,35
 649 938 649 938 688 863 c 1,36,37
 746 746 746 746 705 570.5 c 128,-1,38
 664 395 664 395 583 306 c 0,0,1
EndSplineSet
EndChar
StartChar: _.notdef_13
Encoding: 65581 -1 149
Width: 799
GlyphClass: 2
Flags: W
AnchorPoint: "Cursive-0" 0 0 exit 0
AnchorPoint: "Anchor-16" 423 -360 basechar 0
AnchorPoint: "Anchor-17" 432 -423 basechar 0
AnchorPoint: "Anchor-14" 630 936 basechar 0
AnchorPoint: "Cursive-7" 693 99 entry 0
AnchorPoint: "Anchor-15" 711 855 basechar 0
LayerCount: 2
Fore
SplineSet
770 249 m 1,0,1
 737 225 737 225 709.5 189.5 c 128,-1,2
 682 154 682 154 658 115 c 1,3,4
 593 16 593 16 505 3 c 0,5,6
 486 1 486 1 465 1 c 0,7,8
 400 1 400 1 322 25 c 0,9,10
 289 35 289 35 159.5 89 c 128,-1,11
 30 143 30 143 6 166 c 0,12,13
 0 172 0 172 0 177 c 0,14,15
 0 187 0 187 20 192 c 0,16,17
 165 228 165 228 325 238.5 c 128,-1,18
 485 249 485 249 637 274 c 0,19,20
 693 284 693 284 737 323 c 1,21,22
 750 336 750 336 765 336 c 0,23,24
 769 336 769 336 773 335 c 0,25,26
 799 327 799 327 799 301 c 0,27,28
 799 292 799 292 796 281 c 0,29,30
 789 257 789 257 770 249 c 1,0,1
EndSplineSet
PairPos2: "'kern' Horizontal Kerning in Arabic lookup 14 subtable" __.notdef_52 dx=0 dy=0 dh=0 dv=0 dx=100 dy=300 dh=0 dv=0
EndChar
StartChar: _.notdef_131
Encoding: 65699 -1 282
Width: 1206
GlyphClass: 2
Flags: W
AnchorPoint: "Anchor-17" 0 0 basechar 0
AnchorPoint: "Anchor-15" 0 0 basechar 0
AnchorPoint: "Cursive-10" 0 0 exit 0
AnchorPoint: "Anchor-16" 684 -153 basechar 0
AnchorPoint: "Anchor-14" 837 1674 basechar 0
LayerCount: 2
Fore
SplineSet
662 496 m 1,0,-1
 658 503 l 1,1,2
 629 584 629 584 588 584 c 0,3,4
 581 584 581 584 573 582 c 0,5,6
 522 564 522 564 488 489 c 0,7,8
 484 480 484 480 484 471 c 0,9,10
 484 457 484 457 495 444 c 0,11,12
 510 425 510 425 520 425 c 0,13,14
 521 425 521 425 523 426 c 0,15,16
 608 452 608 452 662 496 c 1,0,-1
393 162 m 1,17,18
 385 161 385 161 376 160 c 1,19,20
 330 148 330 148 318 146 c 1,21,22
 254 126 254 126 193 105.5 c 128,-1,23
 132 85 132 85 71 28 c 1,24,-1
 70 27 l 1,25,26
 50 -2 50 -2 33 -2 c 0,27,28
 20 -2 20 -2 8 15 c 0,29,30
 -2 29 -2 29 -2 46 c 0,31,32
 -2 74 -2 74 28 110 c 1,33,-1
 28 112 l 1,34,35
 46 153 46 153 67 186 c 0,36,37
 102 243 102 243 140.5 284 c 128,-1,38
 179 325 179 325 239 351 c 0,39,40
 276 367 276 367 332 384 c 1,41,-1
 334 384 l 1,42,43
 340 385 340 385 347 386 c 128,-1,44
 354 387 354 387 361 389 c 1,45,-1
 361 388 l 1,46,-1
 362 388 l 1,47,48
 364 393 364 393 366 399 c 1,49,-1
 367 397 l 1,50,51
 468 638 468 638 608 801 c 0,52,53
 667 871 667 871 713 871 c 0,54,55
 752 871 752 871 781 821 c 0,56,57
 818 755 818 755 818 697 c 0,58,59
 818 658 818 658 801 623 c 0,60,61
 758 535 758 535 703 429 c 1,62,63
 857 458 857 458 957 522 c 1,64,65
 959 557 959 557 959 590 c 0,66,67
 959 838 959 838 873 1015 c 0,68,69
 859 1043 859 1043 825 1066 c 0,70,71
 807 1077 807 1077 787 1077 c 0,72,73
 768 1077 768 1077 747 1067 c 0,74,75
 680 1033 680 1033 638.5 973 c 128,-1,76
 597 913 597 913 550 861 c 0,77,78
 541 851 541 851 519 851 c 1,79,80
 518 850 518 850 517 850 c 0,81,82
 500 850 500 850 500 859 c 0,83,84
 500 860 500 860 501 862 c 0,85,86
 522 927 522 927 563.5 979.5 c 128,-1,87
 605 1032 605 1032 644 1085 c 0,88,89
 694 1152 694 1152 764 1216.5 c 128,-1,90
 834 1281 834 1281 903 1304 c 0,91,92
 928 1313 928 1313 952 1313 c 0,93,94
 992 1313 992 1313 1028 1289 c 0,95,96
 1084 1251 1084 1251 1107 1113 c 0,97,98
 1122 1017 1122 1017 1136 932 c 0,99,100
 1145 877 1145 877 1145 824 c 0,101,102
 1145 793 1145 793 1142 763 c 0,103,104
 1130 646 1130 646 1038.5 505.5 c 128,-1,105
 947 365 947 365 855 295 c 1,106,107
 685 163 685 163 431 163 c 2,108,-1
 420 163 l 2,109,110
 409 163 409 163 393 161 c 1,111,-1
 393 162 l 1,17,18
EndSplineSet
EndChar
StartChar: _.notdef_132
Encoding: 65705 -1 408
Width: 889
GlyphClass: 2
Flags: W
AnchorPoint: "Anchor-17" 0 0 basechar 0
AnchorPoint: "Anchor-15" 0 0 basechar 0
AnchorPoint: "Cursive-10" 0 0 exit 0
AnchorPoint: "Anchor-16" 648 -594 basechar 0
AnchorPoint: "Anchor-14" 675 1215 basechar 0
LayerCount: 2
Fore
SplineSet
621 715 m 1,0,-1
 777 947 l 1,1,-1
 801 892 l 2,2,3
 824 837 824 837 833 749 c 0,4,5
 835 724 835 724 835 698 c 0,6,7
 835 629 835 629 819 550 c 1,8,9
 795 439 795 439 702 328 c 0,10,11
 682 305 682 305 662 285 c 1,12,13
 656 261 656 261 645 238.5 c 128,-1,14
 634 216 634 216 628 195 c 1,15,16
 610 144 610 144 598 79 c 0,17,18
 595 64 595 64 595 51 c 0,19,20
 595 4 595 4 627 -29 c 1,21,22
 648 -53 648 -53 683 -53 c 0,23,24
 694 -53 694 -53 706 -50 c 0,25,26
 756 -41 756 -41 784 -19 c 0,27,28
 802 -4 802 -4 817 15 c 128,-1,29
 832 34 832 34 847 55 c 1,30,31
 836 -5 836 -5 823.5 -69.5 c 128,-1,32
 811 -134 811 -134 782 -185 c 1,33,34
 755 -230 755 -230 719 -272 c 128,-1,35
 683 -314 683 -314 622 -323 c 0,36,37
 614 -324 614 -324 606 -324 c 0,38,39
 570 -324 570 -324 549 -300 c 0,40,41
 523 -271 523 -271 511 -238 c 0,42,43
 488 -175 488 -175 488 -112 c 0,44,45
 488 -50 488 -50 511 11 c 0,46,47
 555 133 555 133 600 222 c 1,48,-1
 600 221 l 1,49,-1
 611 242 l 1,50,51
 576 217 576 217 549 204 c 1,52,53
 519 188 519 188 471 168.5 c 128,-1,54
 423 149 423 149 392 141 c 0,55,56
 283 114 283 114 209.5 101 c 128,-1,57
 136 88 136 88 71 28 c 1,58,-1
 70 27 l 1,59,60
 50 -2 50 -2 33 -2 c 0,61,62
 20 -2 20 -2 8 15 c 0,63,64
 -2 29 -2 29 -2 46 c 0,65,66
 -2 74 -2 74 28 110 c 1,67,-1
 28 112 l 1,68,69
 46 153 46 153 67 186 c 1,70,71
 117 315 117 315 191 332 c 128,-1,72
 265 349 265 349 388 374 c 1,73,74
 466 393 466 393 547 418 c 128,-1,75
 628 443 628 443 684 467 c 1,76,-1
 683 466 l 1,77,-1
 683 473 l 2,78,79
 683 512 683 512 664 580 c 1,80,81
 642 653 642 653 621 715 c 1,0,-1
EndSplineSet
EndChar
StartChar: _.notdef_135
Encoding: 65708 -1 286
Width: 677
GlyphClass: 2
Flags: W
AnchorPoint: "Anchor-17" 0 0 basechar 0
AnchorPoint: "Cursive-10" 0 0 exit 0
AnchorPoint: "Anchor-16" 666 -288 basechar 0
AnchorPoint: "Anchor-14" 693 909 basechar 0
AnchorPoint: "Anchor-15" 774 936 basechar 0
AnchorPoint: "Cursive-13" 810 99 entry 0
AnchorPoint: "Cursive-4" 810 99 entry 0
AnchorPoint: "Cursive-0" 810 99 entry 0
LayerCount: 2
Fore
SplineSet
736 390 m 0,0,1
 755 404 755 404 765 431 c 128,-1,2
 775 458 775 458 788 480 c 0,3,4
 792 487 792 487 795 487 c 0,5,6
 797 487 797 487 797 479 c 2,7,-1
 797 462 l 2,8,9
 797 416 797 416 784 370 c 1,10,11
 938 397 938 397 973 538 c 0,12,13
 975 547 975 547 979 549 c 0,14,15
 981 550 981 550 982 550 c 256,16,17
 983 550 983 550 983 548 c 0,18,19
 973 445 973 445 951 350.5 c 128,-1,20
 929 256 929 256 878 190 c 0,21,22
 852 157 852 157 782 124.5 c 128,-1,23
 712 92 712 92 673 92 c 0,24,25
 659 92 659 92 656 105 c 1,26,27
 651 105 651 105 624 90 c 1,28,29
 578 67 578 67 479 50 c 0,30,31
 465 47 465 47 452 47 c 0,32,33
 391 47 391 47 391 113 c 0,34,35
 391 123 391 123 392 134 c 1,36,-1
 392 136 l 2,37,38
 392 152 392 152 368 152 c 0,39,40
 346 152 346 152 303 138 c 0,41,42
 210 109 210 109 144 83 c 1,43,44
 108 61 108 61 71 28 c 1,45,-1
 70 27 l 1,46,47
 51 -1 51 -1 33 -1 c 0,48,49
 25 -1 25 -1 18 5 c 0,50,51
 0 18 0 18 0 44 c 0,52,53
 0 54 0 54 3 66 c 1,54,-1
 3 68 l 2,55,56
 3 72 3 72 10 84 c 0,57,58
 19 99 19 99 22 106 c 0,59,60
 37 141 37 141 50 181 c 128,-1,61
 63 221 63 221 82 258 c 0,62,63
 115 322 115 322 274 372 c 0,64,65
 413 415 413 415 486 415 c 0,66,67
 496 415 496 415 505 414 c 0,68,69
 531 411 531 411 531 391 c 2,70,-1
 531 389 l 1,71,72
 530 377 530 377 530 366 c 0,73,74
 530 313 530 313 568 313 c 0,75,76
 584 313 584 313 606 322 c 0,77,78
 692 356 692 356 736 390 c 0,0,1
EndSplineSet
EndChar
StartChar: _.notdef_137
Encoding: 65710 -1 423
Width: 437
GlyphClass: 2
Flags: W
AnchorPoint: "Anchor-14" 0 0 basechar 0
AnchorPoint: "Cursive-5" 0 0 exit 0
AnchorPoint: "Cursive-6" 297 -216 entry 0
AnchorPoint: "Anchor-11" 549 1611 basechar 0
AnchorPoint: "Anchor-13" 693 -153 basechar 0
AnchorPoint: "Anchor-12" 909 1152 basechar 0
LayerCount: 2
Fore
SplineSet
439 1127 m 1,0,-1
 590 1368 l 1,1,-1
 634 711 l 1,2,-1
 483 470 l 1,3,-1
 439 1127 l 1,0,-1
292 138 m 0,4,5
 162 113 162 113 71 28 c 1,6,-1
 70 27 l 1,7,8
 50 -2 50 -2 33 -2 c 0,9,10
 20 -2 20 -2 8 15 c 0,11,12
 -2 29 -2 29 -2 46 c 0,13,14
 -2 74 -2 74 28 110 c 1,15,-1
 28 112 l 1,16,17
 46 153 46 153 67 186 c 0,18,19
 130 288 130 288 229 333 c 128,-1,20
 328 378 328 378 437 396 c 1,21,-1
 440 400 l 1,22,-1
 441 401 l 1,23,24
 528 502 528 502 620 600 c 128,-1,25
 712 698 712 698 811 791 c 0,26,27
 858 835 858 835 954 854 c 0,28,29
 976 858 976 858 996 858 c 0,30,31
 1062 858 1062 858 1102 810 c 0,32,33
 1132 773 1132 773 1136 736 c 1,34,-1
 1137 737 l 1,35,-1
 1137 736 l 1,36,37
 1138 726 1138 726 1138 717 c 0,38,39
 1138 664 1138 664 1106 612 c 0,40,41
 1067 549 1067 549 1028 496 c 0,42,43
 908 335 908 335 698 255.5 c 128,-1,44
 488 176 488 176 292 138 c 0,4,5
923 580 m 0,45,46
 905 613 905 613 854 628 c 0,47,48
 834 634 834 634 815 634 c 0,49,50
 786 634 786 634 760 620 c 0,51,52
 688 581 688 581 632 525 c 128,-1,53
 576 469 576 469 521 412 c 1,54,55
 629 433 629 433 730.5 458 c 128,-1,56
 832 483 832 483 920 526 c 0,57,58
 933 532 933 532 933 547 c 0,59,60
 933 560 933 560 923 580 c 0,45,46
EndSplineSet
EndChar
StartChar: _.notdef_138
Encoding: 65711 -1 414
Width: 588
GlyphClass: 2
Flags: W
AnchorPoint: "Anchor-17" 0 0 basechar 0
AnchorPoint: "Cursive-10" 0 0 exit 0
AnchorPoint: "Cursive-9" 522 153 entry 0
AnchorPoint: "Anchor-16" 594 -171 basechar 0
AnchorPoint: "Anchor-14" 621 1116 basechar 0
AnchorPoint: "Anchor-15" 702 1152 basechar 0
LayerCount: 2
Fore
SplineSet
496 177 m 1,0,1
 422 147 422 147 351.5 128 c 128,-1,2
 281 109 281 109 206 88 c 0,3,4
 105 60 105 60 71 28 c 1,5,-1
 70 27 l 1,6,7
 50 -2 50 -2 33 -2 c 0,8,9
 20 -2 20 -2 8 15 c 0,10,11
 -2 29 -2 29 -2 46 c 0,12,13
 -2 74 -2 74 28 110 c 1,14,-1
 28 112 l 1,15,16
 46 153 46 153 67 186 c 0,17,18
 158 335 158 335 240.5 345 c 128,-1,19
 323 355 323 355 425 372 c 1,20,-1
 424 371 l 1,21,-1
 487 382 l 1,22,-1
 447 517 l 2,23,24
 446 520 446 520 446 523 c 0,25,26
 446 557 446 557 523 648 c 0,27,28
 607 748 607 748 625 762 c 1,29,30
 670 775 670 775 743 775 c 2,31,-1
 763 775 l 1,32,33
 849 773 849 773 882 742 c 0,34,35
 911 714 911 714 911 678 c 0,36,37
 911 661 911 661 905 642 c 0,38,39
 885 583 885 583 861 547 c 2,40,-1
 757 385 l 2,41,42
 700 295 700 295 621.5 243 c 128,-1,43
 543 191 543 191 496 177 c 1,0,1
EndSplineSet
EndChar
StartChar: _.notdef_14
Encoding: 65587 -1 165
Width: 961
GlyphClass: 2
Flags: W
AnchorPoint: "Anchor-17" 477 -459 basechar 0
AnchorPoint: "Anchor-16" 495 -396 basechar 0
AnchorPoint: "Anchor-14" 567 882 basechar 0
AnchorPoint: "Anchor-15" 738 936 basechar 0
LayerCount: 2
Fore
SplineSet
916 557 m 1,0,1
 895 453 895 453 851 341 c 128,-1,2
 807 229 807 229 759 172 c 0,3,4
 690 88 690 88 584 43 c 0,5,6
 485 0 485 0 342 0 c 2,7,-1
 323 0 l 1,8,9
 203 3 203 3 115 12.5 c 128,-1,10
 27 22 27 22 6 43 c 0,11,12
 1 48 1 48 1 55 c 0,13,14
 1 73 1 73 47 100 c 0,15,16
 109 135 109 135 291 192 c 0,17,18
 415 231 415 231 533 275.5 c 128,-1,19
 651 320 651 320 749 386 c 0,20,21
 843 450 843 450 891 557 c 0,22,23
 896 569 896 569 905 569 c 2,24,-1
 906 569 l 1,25,26
 915 568 915 568 916 557 c 1,0,1
EndSplineSet
PairPos2: "'kern' Horizontal Kerning in Arabic lookup 14 subtable" __.notdef_52 dx=0 dy=0 dh=0 dv=0 dx=100 dy=300 dh=0 dv=0
PairPos2: "'kern' Horizontal Kerning in Arabic lookup 14 subtable" __.notdef_46 dx=0 dy=0 dh=0 dv=0 dx=300 dy=0 dh=0 dv=0
PairPos2: "'kern' Horizontal Kerning in Arabic lookup 14 subtable" _.notdef_28 dx=0 dy=0 dh=0 dv=0 dx=400 dy=0 dh=0 dv=0
PairPos2: "'kern' Horizontal Kerning in Arabic lookup 14 subtable" _.notdef_24 dx=0 dy=0 dh=0 dv=0 dx=540 dy=440 dh=0 dv=0
PairPos2: "'kern' Horizontal Kerning in Arabic lookup 14 subtable" _.notdef_20 dx=0 dy=0 dh=0 dv=0 dx=500 dy=0 dh=0 dv=0
PairPos2: "'kern' Horizontal Kerning in Arabic lookup 14 subtable" _.notdef_16 dx=0 dy=0 dh=0 dv=0 dx=500 dy=0 dh=0 dv=0
PairPos2: "'kern' Horizontal Kerning in Arabic lookup 14 subtable" _.notdef_8 dx=0 dy=0 dh=0 dv=0 dx=300 dy=0 dh=0 dv=0
EndChar
StartChar: _.notdef_141
Encoding: 65694 -1 277
Width: 639
GlyphClass: 2
Flags: W
AnchorPoint: "Cursive-10" -20 150 exit 0
AnchorPoint: "Anchor-17" 0 0 basechar 0
AnchorPoint: "Anchor-15" 0 0 basechar 0
AnchorPoint: "Anchor-14" 630 1584 basechar 0
AnchorPoint: "Cursive-4" 639 0 entry 0
AnchorPoint: "Cursive-0" 639 0 entry 0
AnchorPoint: "Anchor-16" 720 -324 basechar 0
LayerCount: 2
Fore
SplineSet
598 459 m 1,0,1
 547 358 547 358 450 321 c 0,2,3
 340 279 340 279 210 251 c 1,4,-1
 210 250 l 1,5,6
 97 220 97 220 61 186 c 1,7,-1
 60 185 l 1,8,9
 40 156 40 156 23 156 c 0,10,11
 10 156 10 156 -2 173 c 0,12,13
 -12 187 -12 187 -12 204 c 0,14,15
 -12 232 -12 232 18 268 c 1,16,-1
 18 270 l 1,17,18
 36 311 36 311 57 344 c 0,19,20
 104 420 104 420 147.5 455 c 128,-1,21
 191 490 191 490 235 505 c 1,22,23
 321 532 321 532 586 590 c 1,24,-1
 547 1027 l 1,25,-1
 699 1278 l 1,26,-1
 786 222 l 1,27,-1
 639 0 l 1,28,-1
 598 459 l 1,0,1
EndSplineSet
EndChar
StartChar: _.notdef_144
Encoding: 65717 -1 420
Width: 642
GlyphClass: 2
Flags: W
AnchorPoint: "Anchor-17" 0 0 basechar 0
AnchorPoint: "Anchor-15" 0 0 basechar 0
AnchorPoint: "Cursive-10" 0 0 exit 0
AnchorPoint: "Anchor-16" 531 -792 basechar 0
AnchorPoint: "Cursive-11" 549 81 entry 0
AnchorPoint: "Anchor-14" 657 927 basechar 0
LayerCount: 2
Fore
SplineSet
644 -395 m 1,0,1
 642 -398 642 -398 640.5 -401 c 128,-1,2
 639 -404 639 -404 638 -407 c 0,3,4
 597 -493 597 -493 575 -493 c 0,5,6
 566 -493 566 -493 560 -477 c 0,7,8
 548 -443 548 -443 548 -380 c 0,9,10
 548 -344 548 -344 552 -298 c 2,11,-1
 590 177 l 1,12,13
 542 165 542 165 444.5 144.5 c 128,-1,14
 347 124 347 124 265 102 c 1,15,16
 235 102 235 102 163.5 74.5 c 128,-1,17
 92 47 92 47 71 27 c 1,18,-1
 70 27 l 1,19,20
 50 -3 50 -3 33 -3 c 0,21,22
 20 -3 20 -3 8 15 c 0,23,24
 -2 29 -2 29 -2 46 c 0,25,26
 -2 74 -2 74 28 110 c 1,27,-1
 28 112 l 1,28,29
 46 153 46 153 67 186 c 0,30,31
 127 284 127 284 182.5 316 c 128,-1,32
 238 348 238 348 297 357 c 0,33,34
 437 377 437 377 501 388 c 128,-1,35
 565 399 565 399 721 460 c 1,36,37
 730 466 730 466 735 466 c 0,38,39
 743 466 743 466 743 453 c 2,40,-1
 743 447 l 1,41,-1
 658 -147 l 1,42,-1
 674 -115 l 1,43,-1
 644 -395 l 1,0,1
EndSplineSet
Substitution2: "'ss01' Style Set 1 in Arabic lookup 48 subtable" _.notdef_143
EndChar
StartChar: _.notdef_15
Encoding: 65588 -1 166
Width: 840
GlyphClass: 2
Flags: W
AnchorPoint: "Cursive-0" 0 0 exit 0
AnchorPoint: "Anchor-17" 432 -450 basechar 0
AnchorPoint: "Anchor-16" 459 -360 basechar 0
AnchorPoint: "Cursive-10" 648 216 entry 0
AnchorPoint: "Anchor-15" 684 900 basechar 0
AnchorPoint: "Anchor-14" 756 954 basechar 0
LayerCount: 2
Fore
SplineSet
769 285 m 1,0,1
 738 258 738 258 714.5 220 c 128,-1,2
 691 182 691 182 670 141 c 0,3,4
 615 36 615 36 528 15 c 0,5,6
 453 -3 453 -3 345 19 c 0,7,8
 310 26 310 26 176 67 c 128,-1,9
 42 108 42 108 17 129 c 0,10,11
 0 143 0 143 28 156 c 1,12,13
 169 206 169 206 327.5 232 c 128,-1,14
 486 258 486 258 634 297 c 0,15,16
 689 311 689 311 729 356 c 1,17,-1
 729 355 l 1,18,19
 743 374 743 374 764 370 c 0,20,21
 801 364 801 364 792 319 c 0,22,23
 787 294 787 294 769 285 c 1,0,1
EndSplineSet
PairPos2: "'kern' Horizontal Kerning in Arabic lookup 14 subtable" __.notdef_52 dx=0 dy=0 dh=0 dv=0 dx=100 dy=300 dh=0 dv=0
PairPos2: "'kern' Horizontal Kerning in Arabic lookup 14 subtable" _.notdef_24 dx=0 dy=0 dh=0 dv=0 dx=540 dy=440 dh=0 dv=0
PairPos2: "'kern' Horizontal Kerning in Arabic lookup 14 subtable" _.notdef_8 dx=0 dy=0 dh=0 dv=0 dx=275 dy=0 dh=0 dv=0
EndChar
StartChar: _.notdef_152
Encoding: 65705 -1 288
Width: 1505
GlyphClass: 2
Flags: W
AnchorPoint: "Anchor-17" 0 0 basechar 0
AnchorPoint: "Cursive-1" 0 0 exit 0
AnchorPoint: "Anchor-16" 927 -270 basechar 0
AnchorPoint: "Anchor-14" 1386 1998 basechar 0
AnchorPoint: "Anchor-15" 1503 1890 basechar 0
LayerCount: 2
Fore
SplineSet
1167 476 m 1,0,1
 1129 325 1129 325 1015.5 224.5 c 128,-1,2
 902 124 902 124 755 68 c 128,-1,3
 608 12 608 12 449 -3 c 0,4,5
 378 -10 378 -10 312 -10 c 0,6,7
 232 -10 232 -10 161 0 c 0,8,9
 30 19 30 19 10 110 c 0,10,11
 3 143 3 143 3 180 c 0,12,13
 3 241 3 241 24 310 c 0,14,15
 57 420 57 420 117 523 c 128,-1,16
 177 626 177 626 209 671 c 0,17,18
 213 676 213 676 218 676 c 2,19,-1
 223 676 l 1,20,21
 227 674 227 674 227 670 c 0,22,23
 227 667 227 667 225 662 c 0,24,25
 146 504 146 504 146 409 c 0,26,27
 146 341 146 341 185 305 c 0,28,29
 272 224 272 224 428 224 c 0,30,31
 442 224 442 224 457 225 c 0,32,33
 633 233 633 233 815.5 296.5 c 128,-1,34
 998 360 998 360 1038 396 c 1,35,36
 1038 552 1038 552 1025.5 716 c 128,-1,37
 1013 880 1013 880 1003 1035 c 1,38,-1
 1126 1231 l 1,39,-1
 1193 1469 l 1,40,41
 1358 1565 1358 1565 1523.5 1662 c 128,-1,42
 1689 1759 1689 1759 1855 1857 c 1,43,44
 1863 1860 1863 1860 1868 1860 c 0,45,46
 1878 1860 1878 1860 1878 1849 c 0,47,48
 1878 1846 1878 1846 1877 1843 c 2,49,-1
 1810 1604 l 1,50,51
 1647 1508 1647 1508 1483.5 1412.5 c 128,-1,52
 1320 1317 1320 1317 1157 1222 c 1,53,-1
 1191 697 l 2,54,55
 1192 679 1192 679 1192 661 c 0,56,57
 1192 617 1192 617 1187 576 c 0,58,59
 1179 519 1179 519 1167 476 c 1,0,1
EndSplineSet
EndChar
StartChar: _.notdef_158
Encoding: 65731 -1 434
Width: 1109
GlyphClass: 2
Flags: W
AnchorPoint: "Cursive-1" 0 0 exit 0
AnchorPoint: "Anchor-14" 864 1242 basechar 0
AnchorPoint: "Anchor-17" 990 -306 basechar 0
AnchorPoint: "Anchor-16" 990 -234 basechar 0
AnchorPoint: "Cursive-8" 990 621 entry 0
AnchorPoint: "Anchor-15" 1008 1422 basechar 0
LayerCount: 2
Fore
SplineSet
171 14 m 0,0,1
 40 33 40 33 20 124 c 128,-1,2
 0 215 0 215 33.5 325 c 128,-1,3
 67 435 67 435 127 538 c 128,-1,4
 187 641 187 641 219 685 c 0,5,6
 224 692 224 692 232.5 690 c 128,-1,7
 241 688 241 688 235 676 c 0,8,9
 130 468 130 468 189 380.5 c 128,-1,10
 248 293 248 293 393 282 c 128,-1,11
 538 271 538 271 730.5 315 c 128,-1,12
 923 359 923 359 1087 415 c 0,13,14
 1162 440 1162 440 1216 459.5 c 128,-1,15
 1270 479 1270 479 1338 515 c 1,16,17
 1357 530 1357 530 1359 534 c 1,18,19
 1353 559 1353 559 1293 573 c 0,20,21
 1227 588 1227 588 1133.5 591 c 128,-1,22
 1040 594 1040 594 1001 603 c 1,23,24
 981 606 981 606 999 641 c 1,25,26
 1023 700 1023 700 1051.5 755 c 128,-1,27
 1080 810 1080 810 1109 870 c 1,28,-1
 1111 871 l 1,29,30
 1180 854 1180 854 1319 842.5 c 128,-1,31
 1458 831 1458 831 1514 788 c 0,32,33
 1550 760 1550 760 1527 704.5 c 128,-1,34
 1504 649 1504 649 1490 620 c 0,35,36
 1319 267 1319 267 928 113.5 c 128,-1,37
 537 -40 537 -40 171 14 c 0,0,1
EndSplineSet
EndChar
StartChar: _.notdef_159
Encoding: 65727 -1 295
Width: 1188
GlyphClass: 2
Flags: W
AnchorPoint: "Anchor-17" 0 0 basechar 0
AnchorPoint: "Cursive-1" 0 0 exit 0
AnchorPoint: "Anchor-16" 1044 -261 basechar 0
AnchorPoint: "Anchor-14" 1233 1044 basechar 0
AnchorPoint: "Anchor-15" 1296 1044 basechar 0
AnchorPoint: "Cursive-13" 1323 162 entry 0
AnchorPoint: "Cursive-4" 1323 162 entry 0
AnchorPoint: "Cursive-0" 1323 162 entry 0
LayerCount: 2
Fore
SplineSet
161 6 m 0,0,1
 30 25 30 25 10 116 c 0,2,3
 3 149 3 149 3 186 c 0,4,5
 3 247 3 247 24 316 c 0,6,7
 57 426 57 426 117 529 c 128,-1,8
 177 632 177 632 209 677 c 0,9,10
 213 682 213 682 218 682 c 0,11,12
 220 682 220 682 223 681 c 0,13,14
 227 680 227 680 227 675 c 0,15,16
 227 672 227 672 225 667 c 0,17,18
 146 511 146 511 146 424 c 0,19,20
 146 409 146 409 148 397 c 0,21,22
 164 309 164 309 245 282 c 0,23,24
 304 262 304 262 399 262 c 0,25,26
 417 262 417 262 437 263 c 0,27,28
 558 267 558 267 684 294 c 128,-1,29
 810 321 810 321 916.5 369 c 128,-1,30
 1023 417 1023 417 1064 480 c 1,31,32
 1065 484 1065 484 1067 484 c 0,33,34
 1068 484 1068 484 1071 475 c 1,35,36
 1074 459 1074 459 1075 453 c 1,37,-1
 1075 445 l 2,38,39
 1075 422 1075 422 1067 376 c 1,40,-1
 1068 376 l 1,41,42
 1069 375 1069 375 1071 375 c 0,43,44
 1122 377 1122 377 1168 398.5 c 128,-1,45
 1214 420 1214 420 1247 445 c 1,46,47
 1265 460 1265 460 1275 486.5 c 128,-1,48
 1285 513 1285 513 1298 535 c 0,49,50
 1302 543 1302 543 1305 543 c 0,51,52
 1307 543 1307 543 1308 535 c 1,53,-1
 1308 527 l 2,54,55
 1308 474 1308 474 1295 425 c 1,56,57
 1447 452 1447 452 1484 594 c 0,58,59
 1486 603 1486 603 1490 605 c 1,60,-1
 1492 605 l 2,61,62
 1494 605 1494 605 1494 603 c 0,63,64
 1484 500 1484 500 1461.5 406 c 128,-1,65
 1439 312 1439 312 1388 246 c 0,66,67
 1363 213 1363 213 1293 180 c 128,-1,68
 1223 147 1223 147 1184 147 c 0,69,70
 1170 147 1170 147 1167 161 c 1,71,72
 1161 161 1161 161 1134 146 c 1,73,74
 1075 116 1075 116 1023 100 c 1,75,76
 1006 96 1006 96 992 96 c 0,77,78
 953 96 953 96 947 133 c 1,79,80
 815 73 815 73 557 30 c 0,81,82
 379 0 379 0 259 0 c 0,83,84
 204 0 204 0 161 6 c 0,0,1
EndSplineSet
EndChar
StartChar: _.notdef_16
Encoding: 65589 -1 292
Width: 1912
GlyphClass: 2
Flags: W
AnchorPoint: "Anchor-17" 1107 -9 basechar 0
AnchorPoint: "Anchor-16" 1233 54 basechar 0
AnchorPoint: "Anchor-15" 1296 1440 basechar 0
AnchorPoint: "Anchor-14" 1341 1485 basechar 0
LayerCount: 2
Fore
SplineSet
873 593 m 1,0,1
 834 490 834 490 807 420.5 c 128,-1,2
 780 351 780 351 716 258 c 0,3,4
 603 96 603 96 432 33 c 0,5,6
 343 1 343 1 268 1 c 0,7,8
 198 1 198 1 139 30 c 0,9,10
 17 89 17 89 0 285 c 0,11,12
 -1 301 -1 301 -1 317 c 0,13,14
 -1 509 -1 509 179 838 c 0,15,16
 189 857 189 857 198 857 c 0,17,18
 201 857 201 857 204 856 c 0,19,20
 210 853 210 853 210 843 c 0,21,22
 210 832 210 832 203 814 c 1,23,24
 179 761 179 761 141.5 688 c 128,-1,25
 104 615 104 615 85 542 c 0,26,27
 75 501 75 501 75 463 c 0,28,29
 75 433 75 433 82 404 c 0,30,31
 97 340 97 340 179 305 c 1,32,33
 245 293 245 293 306 293 c 0,34,35
 413 293 413 293 508 330 c 0,36,37
 656 387 656 387 754 477 c 1,38,-1
 754 495 l 2,39,40
 754 562 754 562 742 621 c 1,41,42
 727 687 727 687 706 760 c 1,43,-1
 814 1031 l 1,44,45
 847 961 847 961 864 910 c 0,46,47
 878 865 878 865 925 865 c 0,48,49
 932 865 932 865 940 866 c 0,50,51
 1132 906 1132 906 1321 948 c 128,-1,52
 1510 990 1510 990 1675 1056 c 1,53,54
 1773 1094 1773 1094 1807 1148 c 0,55,56
 1808 1150 1808 1150 1810 1150 c 256,57,58
 1812 1150 1812 1150 1815 1148 c 0,59,60
 1821 1144 1821 1144 1821 1141 c 0,61,62
 1779 1015 1779 1015 1730.5 894.5 c 128,-1,63
 1682 774 1682 774 1628 659 c 0,64,65
 1617 636 1617 636 1601 636 c 0,66,67
 1592 636 1592 636 1582 644 c 0,68,69
 1574 650 1574 650 1574 665 c 0,70,71
 1574 679 1574 679 1581 701 c 0,72,73
 1590 731 1590 731 1605.5 760 c 128,-1,74
 1621 789 1621 789 1633 819 c 1,75,76
 1466 744 1466 744 1260 696.5 c 128,-1,77
 1054 649 1054 649 873 593 c 1,0,1
EndSplineSet
MultipleSubs2: "'jalt' Justification Alternatives in Arabic lookup 27 subtable" _.notdef_298
EndChar
StartChar: _.notdef_166
Encoding: 65739 -1 442
Width: 1188
GlyphClass: 2
Flags: W
AnchorPoint: "Anchor-17" 0 0 basechar 0
AnchorPoint: "Anchor-15" 0 0 basechar 0
AnchorPoint: "Cursive-1" 0 0 exit 0
AnchorPoint: "Cursive-6" 1089 477 entry 0
AnchorPoint: "Anchor-16" 1215 -243 basechar 0
AnchorPoint: "Anchor-14" 1314 1062 basechar 0
LayerCount: 2
Fore
SplineSet
549 26 m 0,0,1
 316 -13 316 -13 161 7 c 1,2,3
 57 22 57 22 20 93 c 1,4,5
 -7 147 -7 147 3 222.5 c 128,-1,6
 13 298 13 298 43 377 c 0,7,8
 80 472 80 472 130.5 556 c 128,-1,9
 181 640 181 640 209 679 c 0,10,11
 214 685 214 685 222.5 683 c 128,-1,12
 231 681 231 681 225 669 c 0,13,14
 124 468 124 468 181 371 c 1,15,16
 215 310 215 310 298.5 290 c 128,-1,17
 382 270 382 270 488 276 c 0,18,19
 611 283 611 283 761 316 c 1,20,21
 831 330 831 330 904.5 348.5 c 128,-1,22
 978 367 978 367 1048 387 c 1,23,24
 1075 446 1075 446 1125.5 560 c 128,-1,25
 1176 674 1176 674 1231 674 c 1,26,27
 1268 686 1268 686 1363 682.5 c 128,-1,28
 1458 679 1458 679 1443 601 c 0,29,30
 1419 484 1419 484 1394.5 440 c 128,-1,31
 1370 396 1370 396 1322 336 c 1,32,33
 1262 263 1262 263 1137 200 c 0,34,35
 1071 167 1071 167 990.5 138.5 c 128,-1,36
 910 110 910 110 839 91 c 1,37,38
 758 67 758 67 683 51 c 128,-1,39
 608 35 608 35 549 26 c 0,0,1
EndSplineSet
EndChar
StartChar: _.notdef_169
Encoding: 65722 -1 305
Width: 1009
GlyphClass: 2
Flags: W
AnchorPoint: "Cursive-9" 0 0 exit 0
AnchorPoint: "Anchor-14" 612 1080 basechar 0
AnchorPoint: "Anchor-17" 621 -333 basechar 0
AnchorPoint: "Anchor-16" 684 -351 basechar 0
AnchorPoint: "Anchor-15" 738 1062 basechar 0
LayerCount: 2
Fore
SplineSet
756 545 m 1,0,-1
 913 777 l 2,1,2
 921 788 921 788 941 696.5 c 128,-1,3
 961 605 961 605 956 557 c 0,4,5
 933 359 933 359 815 218 c 0,6,7
 748 138 748 138 662 94 c 1,8,9
 547 32 547 32 391 12.5 c 128,-1,10
 235 -7 235 -7 115 5 c 0,11,12
 72 9 72 9 37 32 c 128,-1,13
 2 55 2 55 0 100 c 1,14,15
 39 253 39 253 80 361 c 1,16,17
 99 295 99 295 188.5 275 c 128,-1,18
 278 255 278 255 391 263.5 c 128,-1,19
 504 272 504 272 617.5 300 c 128,-1,20
 731 328 731 328 798 357 c 1,21,-1
 797 357 l 1,22,23
 799 422 799 422 756 545 c 1,0,-1
EndSplineSet
EndChar
StartChar: _.notdef_170
Encoding: 65743 -1 446
Width: 1282
GlyphClass: 2
Flags: W
AnchorPoint: "Cursive-9" 0 0 exit 0
AnchorPoint: "Anchor-17" 693 -306 basechar 0
AnchorPoint: "Anchor-14" 819 1152 basechar 0
AnchorPoint: "Anchor-16" 828 -270 basechar 0
AnchorPoint: "Anchor-15" 864 1152 basechar 0
LayerCount: 2
Fore
SplineSet
546 296 m 1,0,1
 565 350 565 350 602.5 439.5 c 128,-1,2
 640 529 640 529 692.5 607 c 128,-1,3
 745 685 745 685 810 729.5 c 128,-1,4
 875 774 875 774 950 738 c 1,5,6
 1010 708 1010 708 1045 644.5 c 128,-1,7
 1080 581 1080 581 1103 504 c 1,8,9
 1148 455 1148 455 1221 487 c 1,10,-1
 1090 206 l 1,11,12
 943 159 943 159 803 126.5 c 128,-1,13
 663 94 663 94 501 53 c 1,14,15
 491 33 491 33 483 -3 c 128,-1,16
 475 -39 475 -39 449 -48 c 0,17,18
 424 -57 424 -57 430 -29 c 0,19,20
 432 -16 432 -16 437 2 c 128,-1,21
 442 20 442 20 445 37 c 1,22,23
 348 16 348 16 280.5 5 c 128,-1,24
 213 -6 213 -6 114 3 c 1,25,26
 71 8 71 8 36 30.5 c 128,-1,27
 1 53 1 53 0 98 c 1,28,29
 36 246 36 246 79 359 c 1,30,31
 95 301 95 301 154.5 282 c 128,-1,32
 214 263 214 263 287.5 264 c 128,-1,33
 361 265 361 265 433 277.5 c 128,-1,34
 505 290 505 290 546 296 c 1,0,1
897 381 m 0,35,36
 866 451 866 451 822 487 c 0,37,38
 762 535 762 535 705 485 c 0,39,40
 663 448 663 448 640.5 400 c 128,-1,41
 618 352 618 352 597 300 c 1,42,-1
 887 357 l 2,43,44
 905 361 905 361 897 381 c 0,35,36
EndSplineSet
EndChar
StartChar: _.notdef_171
Encoding: 65739 -1 307
Width: 1485
GlyphClass: 2
Flags: W
AnchorPoint: "Anchor-17" 0 0 basechar 0
AnchorPoint: "Cursive-9" 0 0 exit 0
AnchorPoint: "Anchor-16" 828 -288 basechar 0
AnchorPoint: "Anchor-14" 909 1008 basechar 0
AnchorPoint: "Anchor-15" 918 1008 basechar 0
LayerCount: 2
Fore
SplineSet
1414 562 m 0,0,1
 1336 323 1336 323 1221 80 c 0,2,3
 1203 42 1203 42 1175 65 c 1,4,5
 1158 77 1158 77 1175 121 c 1,6,7
 1184 151 1184 151 1199 180 c 128,-1,8
 1214 209 1214 209 1226 240 c 1,9,10
 1122 193 1122 193 969.5 146.5 c 128,-1,11
 817 100 817 100 657.5 65 c 128,-1,12
 498 30 498 30 352 12 c 128,-1,13
 206 -6 206 -6 115 3 c 0,14,15
 72 7 72 7 37 30 c 128,-1,16
 2 53 2 53 0 98 c 1,17,18
 40 255 40 255 80 359 c 1,19,20
 105 270 105 270 272.5 269 c 128,-1,21
 440 268 440 268 642 306 c 128,-1,22
 844 344 844 344 1027.5 398.5 c 128,-1,23
 1211 453 1211 453 1268 476 c 0,24,25
 1308 492 1308 492 1343.5 513.5 c 128,-1,26
 1379 535 1379 535 1400 569 c 0,27,28
 1403 572 1403 572 1409 568.5 c 128,-1,29
 1415 565 1415 565 1414 562 c 0,0,1
EndSplineSet
EndChar
StartChar: _.notdef_177
Encoding: 65750 -1 463
Width: 931
GlyphClass: 2
Flags: W
AnchorPoint: "Anchor-14" 0 0 basechar 0
AnchorPoint: "Anchor-12" 0 0 basechar 0
AnchorPoint: "Cursive-4" 0 0 exit 0
AnchorPoint: "Anchor-11" 675 1710 basechar 0
AnchorPoint: "Anchor-13" 747 -252 basechar 0
LayerCount: 2
Fore
SplineSet
858 450 m 1,0,1
 800 215 800 215 595 107 c 0,2,3
 356 -20 356 -20 115 5 c 1,4,5
 72 8 72 8 37 31 c 128,-1,6
 2 54 2 54 0 99 c 1,7,8
 39 252 39 252 80 360 c 1,9,10
 100 288 100 288 189.5 274 c 128,-1,11
 279 260 279 260 386 276 c 128,-1,12
 493 292 493 292 591.5 322.5 c 128,-1,13
 690 353 690 353 729 370 c 1,14,15
 729 526 729 526 713.5 815.5 c 128,-1,16
 698 1105 698 1105 688 1260 c 1,17,-1
 839 1500 l 1,18,-1
 882 671 l 2,19,20
 887 556 887 556 858 450 c 1,0,1
EndSplineSet
EndChar
StartChar: _.notdef_178
Encoding: 65751 -1 464
Width: 1151
GlyphClass: 2
Flags: W
AnchorPoint: "Anchor-14" 0 0 basechar 0
AnchorPoint: "Anchor-12" 0 0 basechar 0
AnchorPoint: "Cursive-4" 0 0 exit 0
AnchorPoint: "Anchor-13" 783 -315 basechar 0
AnchorPoint: "Anchor-11" 945 1089 basechar 0
LayerCount: 2
Fore
SplineSet
803 182 m 0,0,1
 662 89 662 89 472.5 38 c 128,-1,2
 283 -13 283 -13 115 4 c 0,3,4
 72 8 72 8 37 31 c 128,-1,5
 2 54 2 54 0 99 c 1,6,7
 39 252 39 252 80 360 c 1,8,9
 100 288 100 288 186 272.5 c 128,-1,10
 272 257 272 257 376 269 c 128,-1,11
 480 281 480 281 579 307 c 128,-1,12
 678 333 678 333 725 347 c 1,13,14
 700 388 700 388 725 435 c 0,15,16
 757 495 757 495 778 564.5 c 128,-1,17
 799 634 799 634 849 681 c 0,18,19
 882 712 882 712 945 706 c 128,-1,20
 1008 700 1008 700 1063 694 c 0,21,22
 1091 691 1091 691 1094 668 c 128,-1,23
 1097 645 1097 645 1093 626 c 0,24,25
 1057 449 1057 449 997.5 360 c 128,-1,26
 938 271 938 271 803 182 c 0,0,1
EndSplineSet
EndChar
StartChar: _.notdef_179
Encoding: 65752 -1 455
Width: 1439
GlyphClass: 2
Flags: W
AnchorPoint: "Anchor-17" 0 0 basechar 0
AnchorPoint: "Anchor-15" 0 0 basechar 0
AnchorPoint: "Cursive-9" 0 0 exit 0
AnchorPoint: "Anchor-16" 963 -279 basechar 0
AnchorPoint: "Anchor-14" 981 1530 basechar 0
LayerCount: 2
Fore
SplineSet
851 412 m 1,0,-1
 847 418 l 1,1,2
 818 499 818 499 777 499 c 0,3,4
 770 499 770 499 762 497 c 0,5,6
 711 479 711 479 677 404 c 0,7,8
 673 395 673 395 673 386 c 0,9,10
 673 372 673 372 684 359 c 0,11,12
 700 341 700 341 709 341 c 2,13,-1
 712 341 l 1,14,15
 798 367 798 367 851 412 c 1,0,-1
604 87 m 1,16,-1
 605 83 l 1,17,18
 601 83 601 83 598 82 c 0,19,20
 476 52 476 52 358 21.5 c 128,-1,21
 240 -9 240 -9 115 3 c 0,22,23
 72 7 72 7 37 30 c 128,-1,24
 2 53 2 53 0 98 c 1,25,26
 39 251 39 251 80 359 c 1,27,28
 98 297 98 297 162.5 278.5 c 128,-1,29
 227 260 227 260 305.5 264.5 c 128,-1,30
 384 269 384 269 462 286 c 0,31,32
 521 299 521 299 562 308 c 1,33,-1
 561 312 l 1,34,35
 663 560 663 560 806 726 c 0,36,37
 866 796 866 796 912 796 c 0,38,39
 951 796 951 796 980 746 c 0,40,41
 1017 681 1017 681 1017 623 c 0,42,43
 1017 584 1017 584 999 548 c 0,44,45
 956 460 956 460 901 354 c 1,46,47
 1055 383 1055 383 1155 447 c 1,48,49
 1157 482 1157 482 1157 515 c 0,50,51
 1157 762 1157 762 1072 940 c 1,52,53
 1057 968 1057 968 1023 991 c 0,54,55
 1005 1002 1005 1002 985 1002 c 0,56,57
 966 1002 966 1002 945 992 c 0,58,59
 878 958 878 958 836.5 898 c 128,-1,60
 795 838 795 838 748 786 c 0,61,62
 739 776 739 776 717 776 c 1,63,64
 716 775 716 775 715 775 c 0,65,66
 698 775 698 775 698 784 c 0,67,68
 698 785 698 785 699 787 c 0,69,70
 721 852 721 852 762 904.5 c 128,-1,71
 803 957 803 957 842 1010 c 0,72,73
 892 1077 892 1077 962 1141.5 c 128,-1,74
 1032 1206 1032 1206 1101 1229 c 0,75,76
 1127 1238 1127 1238 1151 1238 c 0,77,78
 1191 1238 1191 1238 1227 1214 c 0,79,80
 1283 1176 1283 1176 1306 1038 c 0,81,82
 1321 942 1321 942 1335 857 c 0,83,84
 1344 804 1344 804 1344 753 c 0,85,86
 1344 720 1344 720 1340 687 c 0,87,88
 1328 570 1328 570 1236.5 430 c 128,-1,89
 1145 290 1145 290 1053 219 c 0,90,91
 882 87 882 87 626 87 c 2,92,-1
 604 87 l 1,16,-1
EndSplineSet
EndChar
StartChar: _.notdef_181
Encoding: 65754 -1 467
Width: 711
GlyphClass: 2
Flags: W
AnchorPoint: "Cursive-9" 0 0 exit 0
AnchorPoint: "Anchor-17" 459 -279 basechar 0
AnchorPoint: "Anchor-15" 639 819 basechar 0
AnchorPoint: "Anchor-16" 657 -369 basechar 0
AnchorPoint: "Cursive-4" 720 54 entry 0
AnchorPoint: "Cursive-0" 720 54 entry 0
AnchorPoint: "Anchor-14" 819 837 basechar 0
LayerCount: 2
Fore
SplineSet
712 52 m 1,0,1
 694 50 694 50 708 87 c 1,2,3
 603 44 603 44 414 18.5 c 128,-1,4
 225 -7 225 -7 115 3 c 0,5,6
 72 7 72 7 37 30 c 128,-1,7
 2 53 2 53 0 98 c 1,8,9
 39 251 39 251 80 359 c 1,10,11
 95 308 95 308 155.5 286.5 c 128,-1,12
 216 265 216 265 300 263 c 0,13,14
 378 261 378 261 555.5 284 c 128,-1,15
 733 307 733 307 806 348 c 1,16,17
 864 379 864 379 894 448 c 1,18,19
 904 463 904 463 904 444 c 128,-1,20
 904 425 904 425 902 420 c 0,21,22
 879 348 879 348 834 240.5 c 128,-1,23
 789 133 789 133 712 52 c 1,0,1
EndSplineSet
EndChar
StartChar: _.notdef_182
Encoding: 65755 -1 468
Width: 810
GlyphClass: 2
Flags: W
AnchorPoint: "Cursive-9" 0 0 exit 0
AnchorPoint: "Anchor-14" 486 1017 basechar 0
AnchorPoint: "Cursive-8" 693 594 entry 0
AnchorPoint: "Anchor-16" 846 -261 basechar 0
AnchorPoint: "Anchor-17" 864 -216 basechar 0
AnchorPoint: "Anchor-15" 864 1287 basechar 0
LayerCount: 2
Fore
SplineSet
1039 473 m 0,0,1
 1056 481 1056 481 1061 491 c 1,2,3
 1054 516 1054 516 994 530 c 0,4,5
 928 545 928 545 835 548 c 128,-1,6
 742 551 742 551 703 560 c 1,7,8
 685 563 685 563 700 599 c 0,9,10
 725 657 725 657 753.5 712.5 c 128,-1,11
 782 768 782 768 811 828 c 1,12,-1
 812 828 l 1,13,14
 882 811 882 811 1021 800 c 128,-1,15
 1160 789 1160 789 1215 746 c 0,16,17
 1251 717 1251 717 1228 662 c 128,-1,18
 1205 607 1205 607 1191 578 c 0,19,20
 1166 526 1166 526 1137.5 480.5 c 128,-1,21
 1109 435 1109 435 1079 388 c 0,22,23
 1018 296 1018 296 931 226 c 0,24,25
 829 143 829 143 704.5 92 c 128,-1,26
 580 41 580 41 453 19 c 1,27,28
 283 -9 283 -9 115 7 c 0,29,30
 72 11 72 11 37 33.5 c 128,-1,31
 2 56 2 56 0 101 c 1,32,33
 39 254 39 254 80 362 c 1,34,35
 98 299 98 299 173 274 c 1,36,37
 255 244 255 244 414 265 c 0,38,39
 560 284 560 284 711 332 c 0,40,41
 870 383 870 383 1039 473 c 0,0,1
EndSplineSet
EndChar
StartChar: _.notdef_184
Encoding: 65757 -1 460
Width: 794
GlyphClass: 2
Flags: W
AnchorPoint: "Anchor-17" 0 0 basechar 0
AnchorPoint: "Cursive-9" 0 0 exit 0
AnchorPoint: "Cursive-1" 552 -512 entry 0
AnchorPoint: "Anchor-16" 1026 -324 basechar 0
AnchorPoint: "Anchor-14" 1035 1053 basechar 0
AnchorPoint: "Anchor-15" 1242 1089 basechar 0
LayerCount: 2
Fore
SplineSet
756 408 m 0,0,1
 741 361 741 361 696 261 c 1,2,3
 696 261 696 261 739 269.5 c 128,-1,4
 782 278 782 278 794 281 c 1,5,6
 881 382 881 382 973 480 c 128,-1,7
 1065 578 1065 578 1164 671 c 0,8,9
 1211 715 1211 715 1307 733.5 c 128,-1,10
 1403 752 1403 752 1455 690 c 0,11,12
 1519 613 1519 613 1475 528 c 128,-1,13
 1431 443 1431 443 1380 374 c 0,14,15
 1308 278 1308 278 1202.5 210.5 c 128,-1,16
 1097 143 1097 143 975 98 c 1,17,-1
 975 98 l 1,18,-1
 975 98 l 1,19,20
 952 91 952 91 879 69 c 128,-1,21
 806 47 806 47 730.5 33 c 128,-1,22
 655 19 655 19 600.5 23.5 c 128,-1,23
 546 28 546 28 561 75 c 1,24,25
 507 52 507 52 415.5 32.5 c 128,-1,26
 324 13 324 13 240 1 c 1,27,-1
 239 1 l 1,28,-1
 239 1 l 1,29,30
 160 0 160 0 115 4 c 0,31,32
 72 8 72 8 37 31 c 128,-1,33
 2 54 2 54 0 99 c 1,34,35
 39 251 39 251 80 360 c 1,36,37
 104 275 104 275 273 265 c 1,38,-1
 273 265 l 1,39,-1
 275 265 l 1,40,41
 326 268 326 268 451 278.5 c 128,-1,42
 576 289 576 289 660 335 c 1,43,44
 720 369 720 369 747 436 c 1,45,46
 758 450 758 450 758 431 c 128,-1,47
 758 412 758 412 756 408 c 0,0,1
1276 460 m 0,48,49
 1258 493 1258 493 1207 508 c 128,-1,50
 1156 523 1156 523 1113 500 c 0,51,52
 1041 461 1041 461 985 405 c 128,-1,53
 929 349 929 349 874 292 c 1,54,55
 982 313 982 313 1083.5 338.5 c 128,-1,56
 1185 364 1185 364 1273 406 c 0,57,58
 1298 418 1298 418 1276 460 c 0,48,49
EndSplineSet
EndChar
StartChar: _.notdef_185
Encoding: 65753 -1 336
Width: 670
GlyphClass: 2
Flags: W
AnchorPoint: "Anchor-17" 0 0 basechar 0
AnchorPoint: "Cursive-9" 0 0 exit 0
AnchorPoint: "Cursive-1" 449 -471 entry 0
AnchorPoint: "Anchor-14" 747 1512 basechar 0
AnchorPoint: "Anchor-16" 927 -270 basechar 0
AnchorPoint: "Anchor-15" 1116 1071 basechar 0
LayerCount: 2
Fore
SplineSet
650 1022 m 1,0,-1
 801 1262 l 1,1,-1
 845 605 l 1,2,-1
 694 365 l 1,3,-1
 650 1022 l 1,0,-1
1237 388 m 0,4,5
 1166 292 1166 292 1060.5 224.5 c 128,-1,6
 955 157 955 157 833 112 c 1,7,-1
 833 112 l 1,8,-1
 833 112 l 1,9,10
 643 57 643 57 447 24 c 128,-1,11
 251 -9 251 -9 115 4 c 0,12,13
 72 8 72 8 37 31 c 128,-1,14
 2 54 2 54 0 99 c 1,15,16
 40 256 40 256 80 360 c 1,17,18
 99 292 99 292 195 275 c 128,-1,19
 291 258 291 258 411 268 c 1,20,-1
 411 268 l 1,21,-1
 413 268 l 1,22,23
 455 270 455 270 520 275 c 128,-1,24
 585 280 585 280 651 295 c 1,25,26
 739 397 739 397 831 494.5 c 128,-1,27
 923 592 923 592 1022 685 c 0,28,29
 1069 730 1069 730 1165 748 c 128,-1,30
 1261 766 1261 766 1313 704 c 0,31,32
 1377 627 1377 627 1332.5 542 c 128,-1,33
 1288 457 1288 457 1237 388 c 0,4,5
1134 474 m 0,34,35
 1116 508 1116 508 1065 522.5 c 128,-1,36
 1014 537 1014 537 971 514 c 0,37,38
 899 475 899 475 843 419 c 128,-1,39
 787 363 787 363 732 307 c 1,40,41
 840 327 840 327 941.5 352.5 c 128,-1,42
 1043 378 1043 378 1131 420 c 0,43,44
 1156 432 1156 432 1134 474 c 0,34,35
EndSplineSet
EndChar
StartChar: _.notdef_188
Encoding: 65756 -1 324
Width: 903
GlyphClass: 2
Flags: W
AnchorPoint: "Anchor-17" 0 0 basechar 0
AnchorPoint: "Cursive-9" 0 0 exit 0
AnchorPoint: "Cursive-4" 900 0 entry 0
AnchorPoint: "Cursive-0" 900 0 entry 0
AnchorPoint: "Anchor-16" 927 -387 basechar 0
AnchorPoint: "Anchor-14" 1107 1935 basechar 0
AnchorPoint: "Anchor-15" 1224 1764 basechar 0
LayerCount: 2
Fore
SplineSet
812 1026 m 1,0,-1
 944 1246 l 1,1,-1
 991 1413 l 1,2,3
 1156 1509 1156 1509 1304 1592 c 128,-1,4
 1452 1675 1452 1675 1618 1772 c 1,5,6
 1644 1785 1644 1785 1640 1759 c 1,7,-1
 1574 1520 l 1,8,9
 1414 1426 1414 1426 1271 1346 c 128,-1,10
 1128 1266 1128 1266 971 1175 c 1,11,-1
 1049 224 l 1,12,-1
 903 0 l 1,13,-1
 884 255 l 1,14,15
 789 117 789 117 694.5 80.5 c 128,-1,16
 600 44 600 44 458 20 c 0,17,18
 254 -14 254 -14 115 -1 c 0,19,20
 72 3 72 3 37 26 c 128,-1,21
 2 49 2 49 0 94 c 1,22,23
 40 251 40 251 80 355 c 1,24,25
 95 303 95 303 156.5 281.5 c 128,-1,26
 218 260 218 260 302 259 c 1,27,28
 411 256 411 256 595 284.5 c 128,-1,29
 779 313 779 313 875 363 c 1,30,-1
 812 1026 l 1,0,-1
EndSplineSet
EndChar
StartChar: _.notdef_189
Encoding: 65762 -1 475
Width: 905
GlyphClass: 2
Flags: W
AnchorPoint: "Anchor-14" 0 0 basechar 0
AnchorPoint: "Anchor-12" 0 0 basechar 0
AnchorPoint: "Cursive-4" 0 0 exit 0
AnchorPoint: "Anchor-11" 873 1647 basechar 0
AnchorPoint: "Cursive-0" 891 0 entry 0
AnchorPoint: "Anchor-13" 927 -333 basechar 0
LayerCount: 2
Fore
SplineSet
813 1160 m 1,0,-1
 964 1411 l 1,1,-1
 1051 212 l 1,2,-1
 905 0 l 1,3,-1
 885 256 l 1,4,5
 763 76 763 76 539 27.5 c 128,-1,6
 315 -21 315 -21 115 -1 c 0,7,8
 72 4 72 4 37 26.5 c 128,-1,9
 2 49 2 49 0 94 c 1,10,11
 39 247 39 247 80 355 c 1,12,13
 95 303 95 303 156.5 281.5 c 128,-1,14
 218 260 218 260 302 259 c 0,15,16
 410 257 410 257 595 285 c 128,-1,17
 780 313 780 313 877 363 c 1,18,-1
 813 1160 l 1,0,-1
EndSplineSet
EndChar
